G04 #@! TF.GenerationSoftware,KiCad,Pcbnew,7.0.9-7.0.9~ubuntu20.04.1*
G04 #@! TF.CreationDate,2023-12-17T16:45:51+01:00*
G04 #@! TF.ProjectId,low_pass,6c6f775f-7061-4737-932e-6b696361645f,1.0*
G04 #@! TF.SameCoordinates,Original*
G04 #@! TF.FileFunction,Paste,Bot*
G04 #@! TF.FilePolarity,Positive*
%FSLAX46Y46*%
G04 Gerber Fmt 4.6, Leading zero omitted, Abs format (unit mm)*
G04 Created by KiCad (PCBNEW 7.0.9-7.0.9~ubuntu20.04.1) date 2023-12-17 16:45:51*
%MOMM*%
%LPD*%
G01*
G04 APERTURE LIST*
G04 Aperture macros list*
%AMRoundRect*
0 Rectangle with rounded corners*
0 $1 Rounding radius*
0 $2 $3 $4 $5 $6 $7 $8 $9 X,Y pos of 4 corners*
0 Add a 4 corners polygon primitive as box body*
4,1,4,$2,$3,$4,$5,$6,$7,$8,$9,$2,$3,0*
0 Add four circle primitives for the rounded corners*
1,1,$1+$1,$2,$3*
1,1,$1+$1,$4,$5*
1,1,$1+$1,$6,$7*
1,1,$1+$1,$8,$9*
0 Add four rect primitives between the rounded corners*
20,1,$1+$1,$2,$3,$4,$5,0*
20,1,$1+$1,$4,$5,$6,$7,0*
20,1,$1+$1,$6,$7,$8,$9,0*
20,1,$1+$1,$8,$9,$2,$3,0*%
G04 Aperture macros list end*
%ADD10RoundRect,0.249999X0.450001X1.450001X-0.450001X1.450001X-0.450001X-1.450001X0.450001X-1.450001X0*%
%ADD11R,2.300000X2.500000*%
G04 APERTURE END LIST*
D10*
X245550000Y-97500000D03*
X245550000Y-119000000D03*
X245550000Y-115000000D03*
X245550000Y-81500000D03*
X245550000Y-93500000D03*
X245550000Y-56000000D03*
X245550000Y-60000000D03*
X245550000Y-111000000D03*
X245550000Y-89500000D03*
X245550000Y-52000000D03*
X245550000Y-123000000D03*
X245550000Y-64000000D03*
X245550000Y-127000000D03*
X245550000Y-85500000D03*
X245550000Y-68000000D03*
X241450000Y-52000000D03*
X241450000Y-64000000D03*
X241450000Y-68000000D03*
X241450000Y-60000000D03*
X241450000Y-56000000D03*
X241450000Y-123000000D03*
X241450000Y-115000000D03*
X241450000Y-111000000D03*
X241450000Y-119000000D03*
X241450000Y-127000000D03*
X241450000Y-81500000D03*
X241450000Y-85500000D03*
X241450000Y-93500000D03*
X241450000Y-89500000D03*
X241450000Y-97500000D03*
X187550000Y-97500000D03*
X187550000Y-119000000D03*
X187550000Y-68000000D03*
X187550000Y-89500000D03*
X187550000Y-123000000D03*
X187550000Y-93500000D03*
X187550000Y-64000000D03*
X187550000Y-111000000D03*
X187550000Y-60000000D03*
X187550000Y-56000000D03*
X187550000Y-81500000D03*
X187550000Y-127000000D03*
X187550000Y-85500000D03*
X187550000Y-52000000D03*
X187550000Y-115000000D03*
X183450000Y-52000000D03*
X183450000Y-68000000D03*
X183450000Y-64000000D03*
X183450000Y-60000000D03*
X183450000Y-56000000D03*
X183450000Y-127000000D03*
X183450000Y-111000000D03*
X183450000Y-115000000D03*
X183450000Y-123000000D03*
X183450000Y-119000000D03*
X183450000Y-93500000D03*
X183450000Y-97500000D03*
X183450000Y-81500000D03*
X183450000Y-89500000D03*
X183450000Y-85500000D03*
D11*
X178500000Y-138700000D03*
X178500000Y-143000000D03*
D10*
X216550000Y-60000000D03*
X216550000Y-52000000D03*
X216550000Y-89500000D03*
X216550000Y-111000000D03*
X216550000Y-85500000D03*
X216550000Y-119000000D03*
X216550000Y-93500000D03*
X216550000Y-56000000D03*
X216550000Y-81500000D03*
X216550000Y-97500000D03*
X216550000Y-123000000D03*
X216550000Y-115000000D03*
X216550000Y-127000000D03*
X216550000Y-64000000D03*
X216550000Y-68000000D03*
X212450000Y-52000000D03*
X212450000Y-68000000D03*
X212450000Y-64000000D03*
X212450000Y-60000000D03*
X212450000Y-56000000D03*
X212450000Y-111000000D03*
X212450000Y-127000000D03*
X212450000Y-119000000D03*
X212450000Y-123000000D03*
X212450000Y-115000000D03*
X212450000Y-97500000D03*
X212450000Y-81500000D03*
X212450000Y-85500000D03*
X212450000Y-89500000D03*
X212450000Y-93500000D03*
D11*
X178500000Y-41000000D03*
X178500000Y-36700000D03*
X248500000Y-138700000D03*
X248500000Y-143000000D03*
D10*
X129550000Y-89500000D03*
X129550000Y-81500000D03*
X129550000Y-64000000D03*
X129550000Y-111000000D03*
X129550000Y-85500000D03*
X129550000Y-123000000D03*
X129550000Y-56000000D03*
X129550000Y-68000000D03*
X129550000Y-52000000D03*
X129550000Y-115000000D03*
X129550000Y-93500000D03*
X129550000Y-119000000D03*
X129550000Y-127000000D03*
X129550000Y-97500000D03*
X129550000Y-60000000D03*
X125450000Y-60000000D03*
X125450000Y-68000000D03*
X125450000Y-64000000D03*
X125450000Y-52000000D03*
X125450000Y-56000000D03*
X125450000Y-123000000D03*
X125450000Y-111000000D03*
X125450000Y-119000000D03*
X125450000Y-115000000D03*
X125450000Y-127000000D03*
X125450000Y-89500000D03*
X125450000Y-85500000D03*
X125450000Y-97500000D03*
X125450000Y-93500000D03*
X125450000Y-81500000D03*
D11*
X213500000Y-138700000D03*
X213500000Y-143000000D03*
X73500000Y-40837500D03*
X73500000Y-36537500D03*
D10*
X100550000Y-115000000D03*
X100550000Y-119000000D03*
X100550000Y-127000000D03*
X100550000Y-85500000D03*
X100550000Y-81500000D03*
X100550000Y-56000000D03*
X100550000Y-68000000D03*
X100550000Y-64000000D03*
X100550000Y-93500000D03*
X100550000Y-97500000D03*
X100550000Y-52000000D03*
X100550000Y-89500000D03*
X100550000Y-60000000D03*
X100550000Y-111000000D03*
X100550000Y-123000000D03*
X96450000Y-68000000D03*
X96450000Y-56000000D03*
X96450000Y-52000000D03*
X96450000Y-64000000D03*
X96450000Y-60000000D03*
X96450000Y-123000000D03*
X96450000Y-127000000D03*
X96450000Y-115000000D03*
X96450000Y-119000000D03*
X96450000Y-111000000D03*
X96450000Y-89500000D03*
X96450000Y-81500000D03*
X96450000Y-93500000D03*
X96450000Y-97500000D03*
X96450000Y-85500000D03*
D11*
X108500000Y-41000000D03*
X108500000Y-36700000D03*
X213500000Y-41000000D03*
X213500000Y-36700000D03*
X143500000Y-40837500D03*
X143500000Y-36537500D03*
X108500000Y-138700000D03*
X108500000Y-143000000D03*
D10*
X158550000Y-68000000D03*
X158550000Y-85500000D03*
X158550000Y-89500000D03*
X158550000Y-97500000D03*
X158550000Y-93500000D03*
X158550000Y-81500000D03*
X158550000Y-119000000D03*
X158550000Y-60000000D03*
X158550000Y-123000000D03*
X158550000Y-127000000D03*
X158550000Y-56000000D03*
X158550000Y-111000000D03*
X158550000Y-52000000D03*
X158550000Y-64000000D03*
X158550000Y-115000000D03*
X154450000Y-64000000D03*
X154450000Y-52000000D03*
X154450000Y-56000000D03*
X154450000Y-60000000D03*
X154450000Y-68000000D03*
X154450000Y-127000000D03*
X154450000Y-111000000D03*
X154450000Y-123000000D03*
X154450000Y-119000000D03*
X154450000Y-115000000D03*
X154450000Y-97500000D03*
X154450000Y-85500000D03*
X154450000Y-81500000D03*
X154450000Y-93500000D03*
X154450000Y-89500000D03*
D11*
X248500000Y-41000000D03*
X248500000Y-36700000D03*
X143500000Y-138700000D03*
X143500000Y-143000000D03*
X73500000Y-138700000D03*
X73500000Y-143000000D03*
D10*
X71550000Y-111000000D03*
X71550000Y-97500000D03*
X71550000Y-123000000D03*
X71550000Y-81500000D03*
X71550000Y-89500000D03*
X71550000Y-119000000D03*
X71550000Y-127000000D03*
X71550000Y-85500000D03*
X71550000Y-52000000D03*
X71550000Y-64000000D03*
X71550000Y-68000000D03*
X71550000Y-93500000D03*
X71550000Y-60000000D03*
X71550000Y-56000000D03*
X71550000Y-115000000D03*
X67450000Y-68000000D03*
X67450000Y-52000000D03*
X67450000Y-56000000D03*
X67450000Y-60000000D03*
X67450000Y-64000000D03*
X67450000Y-127000000D03*
X67450000Y-123000000D03*
X67450000Y-111000000D03*
X67450000Y-115000000D03*
X67450000Y-119000000D03*
X67450000Y-89500000D03*
X67450000Y-93500000D03*
X67450000Y-85500000D03*
X67450000Y-81500000D03*
X67450000Y-97500000D03*
M02*
