M48
; DRILL file {KiCad 7.0.9-7.0.9~ubuntu20.04.1} date ned 17 dec 2023 16:46:04
; FORMAT={-:-/ absolute / metric / decimal}
; #@! TF.CreationDate,2023-12-17T16:46:04+01:00
; #@! TF.GenerationSoftware,Kicad,Pcbnew,7.0.9-7.0.9~ubuntu20.04.1
; #@! TF.FileFunction,Plated,1,2,PTH
FMAT,2
METRIC
; #@! TA.AperFunction,Plated,PTH,ViaDrill
T1C0.400
; #@! TA.AperFunction,Plated,PTH,ComponentDrill
T2C0.762
; #@! TA.AperFunction,Plated,PTH,ComponentDrill
T3C1.000
; #@! TA.AperFunction,Plated,PTH,ComponentDrill
T4C1.500
; #@! TA.AperFunction,Plated,PTH,ComponentDrill
T5C2.500
; #@! TA.AperFunction,Plated,PTH,ComponentDrill
T6C3.200
%
G90
G05
T1
X36.83Y-58.42
X36.83Y-76.2
X36.83Y-104.14
X36.83Y-121.92
X39.37Y-58.42
X39.37Y-76.2
X39.37Y-104.14
X39.37Y-121.92
X41.91Y-58.42
X41.91Y-76.2
X41.91Y-104.14
X41.91Y-121.92
X44.45Y-58.42
X44.45Y-76.2
X44.45Y-104.14
X44.45Y-121.92
X46.99Y-58.42
X46.99Y-60.96
X46.99Y-63.5
X46.99Y-66.04
X46.99Y-68.58
X46.99Y-71.12
X46.99Y-73.66
X46.99Y-76.2
X46.99Y-104.14
X46.99Y-106.68
X46.99Y-109.22
X46.99Y-111.76
X46.99Y-114.3
X46.99Y-116.84
X46.99Y-119.38
X46.99Y-121.92
X245.5Y-41.0
X245.7Y-138.7
X251.649Y-90.75
X252.549Y-83.495
X253.53Y-88.22
X260.496Y-87.004
X261.399Y-85.899
X262.299Y-92.5
X263.198Y-90.75
T2
X74.0Y-52.0
X74.0Y-56.0
X74.0Y-60.0
X74.0Y-64.0
X74.0Y-68.0
X74.0Y-81.5
X74.0Y-85.5
X74.0Y-89.5
X74.0Y-93.5
X74.0Y-97.5
X74.0Y-111.0
X74.0Y-115.0
X74.0Y-119.0
X74.0Y-123.0
X74.0Y-127.0
X103.0Y-52.0
X103.0Y-56.0
X103.0Y-60.0
X103.0Y-64.0
X103.0Y-68.0
X103.0Y-81.5
X103.0Y-85.5
X103.0Y-89.5
X103.0Y-93.5
X103.0Y-97.5
X103.0Y-111.0
X103.0Y-115.0
X103.0Y-119.0
X103.0Y-123.0
X103.0Y-127.0
X132.0Y-52.0
X132.0Y-56.0
X132.0Y-60.0
X132.0Y-64.0
X132.0Y-68.0
X132.0Y-81.5
X132.0Y-85.5
X132.0Y-89.5
X132.0Y-93.5
X132.0Y-97.5
X132.0Y-111.0
X132.0Y-115.0
X132.0Y-119.0
X132.0Y-123.0
X132.0Y-127.0
X161.0Y-52.0
X161.0Y-56.0
X161.0Y-60.0
X161.0Y-64.0
X161.0Y-68.0
X161.0Y-81.5
X161.0Y-85.5
X161.0Y-89.5
X161.0Y-93.5
X161.0Y-97.5
X161.0Y-111.0
X161.0Y-115.0
X161.0Y-119.0
X161.0Y-123.0
X161.0Y-127.0
X190.0Y-52.0
X190.0Y-56.0
X190.0Y-60.0
X190.0Y-64.0
X190.0Y-68.0
X190.0Y-81.5
X190.0Y-85.5
X190.0Y-89.5
X190.0Y-93.5
X190.0Y-97.5
X190.0Y-111.0
X190.0Y-115.0
X190.0Y-119.0
X190.0Y-123.0
X190.0Y-127.0
X219.0Y-52.0
X219.0Y-56.0
X219.0Y-60.0
X219.0Y-64.0
X219.0Y-68.0
X219.0Y-81.5
X219.0Y-85.5
X219.0Y-89.5
X219.0Y-93.5
X219.0Y-97.5
X219.0Y-111.0
X219.0Y-115.0
X219.0Y-119.0
X219.0Y-123.0
X219.0Y-127.0
X248.0Y-52.0
X248.0Y-56.0
X248.0Y-60.0
X248.0Y-64.0
X248.0Y-68.0
X248.0Y-81.5
X248.0Y-85.5
X248.0Y-89.5
X248.0Y-93.5
X248.0Y-97.5
X248.0Y-111.0
X248.0Y-115.0
X248.0Y-119.0
X248.0Y-123.0
X248.0Y-127.0
T3
X255.735Y-85.68
X255.735Y-88.22
X255.735Y-90.76
X255.735Y-93.3
X258.275Y-85.68
X258.275Y-88.22
X258.275Y-90.76
X258.275Y-93.3
T4
X53.0Y-35.0
X53.0Y-42.5
X53.0Y-137.0
X53.0Y-144.5
X58.0Y-35.0
X58.0Y-42.5
X58.0Y-137.0
X58.0Y-144.5
X63.0Y-35.0
X63.0Y-42.5
X63.0Y-137.0
X63.0Y-144.5
X78.0Y-35.0
X78.0Y-42.5
X78.0Y-137.0
X78.0Y-144.5
X88.0Y-35.0
X88.0Y-42.5
X88.0Y-137.0
X88.0Y-144.5
X93.0Y-35.0
X93.0Y-42.5
X93.0Y-137.0
X93.0Y-144.5
X98.0Y-35.0
X98.0Y-42.5
X98.0Y-137.0
X98.0Y-144.5
X113.0Y-35.0
X113.0Y-42.5
X113.0Y-137.0
X113.0Y-144.5
X123.0Y-35.0
X123.0Y-42.5
X123.0Y-137.0
X123.0Y-144.5
X128.0Y-35.0
X128.0Y-42.5
X128.0Y-137.0
X128.0Y-144.5
X133.0Y-35.0
X133.0Y-42.5
X133.0Y-137.0
X133.0Y-144.5
X148.0Y-35.0
X148.0Y-42.5
X148.0Y-137.0
X148.0Y-144.5
X158.0Y-35.0
X158.0Y-42.5
X158.0Y-137.0
X158.0Y-144.5
X163.0Y-35.0
X163.0Y-42.5
X163.0Y-137.0
X163.0Y-144.5
X168.0Y-35.0
X168.0Y-42.5
X168.0Y-137.0
X168.0Y-144.5
X183.0Y-35.0
X183.0Y-42.5
X183.0Y-137.0
X183.0Y-144.5
X193.0Y-35.0
X193.0Y-42.5
X193.0Y-137.0
X193.0Y-144.5
X198.0Y-35.0
X198.0Y-42.5
X198.0Y-137.0
X198.0Y-144.5
X203.0Y-35.0
X203.0Y-42.5
X203.0Y-137.0
X203.0Y-144.5
X218.0Y-35.0
X218.0Y-42.5
X218.0Y-137.0
X218.0Y-144.5
X228.0Y-35.0
X228.0Y-42.5
X228.0Y-137.0
X228.0Y-144.5
X233.0Y-35.0
X233.0Y-42.5
X233.0Y-137.0
X233.0Y-144.5
X238.0Y-35.0
X238.0Y-42.5
X238.0Y-137.0
X238.0Y-144.5
X253.0Y-35.0
X253.0Y-42.5
X253.0Y-137.0
X253.0Y-144.5
T5
X56.0Y-79.5
X56.0Y-109.0
X56.0Y-115.5
X62.5Y-63.5
X62.5Y-70.0
X62.5Y-99.5
X85.0Y-79.5
X85.0Y-109.0
X85.0Y-115.5
X91.5Y-63.5
X91.5Y-70.0
X91.5Y-99.5
X114.0Y-85.5
X114.0Y-122.0
X114.0Y-128.5
X120.5Y-50.5
X120.5Y-57.0
X120.5Y-93.5
X143.0Y-85.5
X143.0Y-122.0
X143.0Y-128.5
X149.5Y-50.5
X149.5Y-57.0
X149.5Y-93.5
X172.0Y-85.5
X172.0Y-122.0
X172.0Y-128.5
X178.5Y-50.5
X178.5Y-57.0
X178.5Y-93.5
X201.0Y-85.5
X201.0Y-122.0
X201.0Y-128.5
X207.5Y-50.5
X207.5Y-57.0
X207.5Y-93.5
X230.0Y-85.5
X230.0Y-122.0
X230.0Y-128.5
X236.5Y-50.5
X236.5Y-57.0
X236.5Y-93.5
T6
X40.0Y-30.0
X40.0Y-150.0
X260.0Y-30.0
X260.0Y-150.0
T0
M30
