G04 #@! TF.GenerationSoftware,KiCad,Pcbnew,7.0.9-7.0.9~ubuntu20.04.1*
G04 #@! TF.CreationDate,2023-12-17T16:45:51+01:00*
G04 #@! TF.ProjectId,low_pass,6c6f775f-7061-4737-932e-6b696361645f,1.0*
G04 #@! TF.SameCoordinates,Original*
G04 #@! TF.FileFunction,Soldermask,Bot*
G04 #@! TF.FilePolarity,Negative*
%FSLAX46Y46*%
G04 Gerber Fmt 4.6, Leading zero omitted, Abs format (unit mm)*
G04 Created by KiCad (PCBNEW 7.0.9-7.0.9~ubuntu20.04.1) date 2023-12-17 16:45:51*
%MOMM*%
%LPD*%
G01*
G04 APERTURE LIST*
G04 Aperture macros list*
%AMRoundRect*
0 Rectangle with rounded corners*
0 $1 Rounding radius*
0 $2 $3 $4 $5 $6 $7 $8 $9 X,Y pos of 4 corners*
0 Add a 4 corners polygon primitive as box body*
4,1,4,$2,$3,$4,$5,$6,$7,$8,$9,$2,$3,0*
0 Add four circle primitives for the rounded corners*
1,1,$1+$1,$2,$3*
1,1,$1+$1,$4,$5*
1,1,$1+$1,$6,$7*
1,1,$1+$1,$8,$9*
0 Add four rect primitives between the rounded corners*
20,1,$1+$1,$2,$3,$4,$5,0*
20,1,$1+$1,$4,$5,$6,$7,0*
20,1,$1+$1,$6,$7,$8,$9,0*
20,1,$1+$1,$8,$9,$2,$3,0*%
G04 Aperture macros list end*
%ADD10C,5.600000*%
%ADD11R,2.500000X2.500000*%
%ADD12O,2.500000X2.500000*%
%ADD13R,1.700000X1.700000*%
%ADD14O,1.700000X1.700000*%
%ADD15RoundRect,0.249999X0.450001X1.450001X-0.450001X1.450001X-0.450001X-1.450001X0.450001X-1.450001X0*%
%ADD16C,5.000000*%
%ADD17R,2.300000X2.500000*%
%ADD18C,2.000000*%
G04 APERTURE END LIST*
D10*
X40000000Y-150000000D03*
X40000000Y-30000000D03*
D11*
X148000000Y-35000000D03*
D12*
X133000000Y-35000000D03*
X128000000Y-35000000D03*
X123000000Y-35000000D03*
X123000000Y-42500000D03*
X128000000Y-42500000D03*
X133000000Y-42500000D03*
X148000000Y-42500000D03*
D11*
X253000000Y-35000000D03*
D12*
X238000000Y-35000000D03*
X233000000Y-35000000D03*
X228000000Y-35000000D03*
X228000000Y-42500000D03*
X233000000Y-42500000D03*
X238000000Y-42500000D03*
X253000000Y-42500000D03*
D11*
X183000000Y-137000000D03*
D12*
X168000000Y-137000000D03*
X163000000Y-137000000D03*
X158000000Y-137000000D03*
X158000000Y-144500000D03*
X163000000Y-144500000D03*
X168000000Y-144500000D03*
X183000000Y-144500000D03*
D10*
X260000000Y-150000000D03*
D11*
X113000000Y-137000000D03*
D12*
X98000000Y-137000000D03*
X93000000Y-137000000D03*
X88000000Y-137000000D03*
X88000000Y-144500000D03*
X93000000Y-144500000D03*
X98000000Y-144500000D03*
X113000000Y-144500000D03*
D11*
X218000000Y-35000000D03*
D12*
X203000000Y-35000000D03*
X198000000Y-35000000D03*
X193000000Y-35000000D03*
X193000000Y-42500000D03*
X198000000Y-42500000D03*
X203000000Y-42500000D03*
X218000000Y-42500000D03*
D11*
X113000000Y-35000000D03*
D12*
X98000000Y-35000000D03*
X93000000Y-35000000D03*
X88000000Y-35000000D03*
X88000000Y-42500000D03*
X93000000Y-42500000D03*
X98000000Y-42500000D03*
X113000000Y-42500000D03*
D11*
X218000000Y-137000000D03*
D12*
X203000000Y-137000000D03*
X198000000Y-137000000D03*
X193000000Y-137000000D03*
X193000000Y-144500000D03*
X198000000Y-144500000D03*
X203000000Y-144500000D03*
X218000000Y-144500000D03*
D11*
X183000000Y-35000000D03*
D12*
X168000000Y-35000000D03*
X163000000Y-35000000D03*
X158000000Y-35000000D03*
X158000000Y-42500000D03*
X163000000Y-42500000D03*
X168000000Y-42500000D03*
X183000000Y-42500000D03*
D10*
X260000000Y-30000000D03*
D11*
X148000000Y-137000000D03*
D12*
X133000000Y-137000000D03*
X128000000Y-137000000D03*
X123000000Y-137000000D03*
X123000000Y-144500000D03*
X128000000Y-144500000D03*
X133000000Y-144500000D03*
X148000000Y-144500000D03*
D11*
X253000000Y-137000000D03*
D12*
X238000000Y-137000000D03*
X233000000Y-137000000D03*
X228000000Y-137000000D03*
X228000000Y-144500000D03*
X233000000Y-144500000D03*
X238000000Y-144500000D03*
X253000000Y-144500000D03*
D11*
X78000000Y-137000000D03*
D12*
X63000000Y-137000000D03*
X58000000Y-137000000D03*
X53000000Y-137000000D03*
X53000000Y-144500000D03*
X58000000Y-144500000D03*
X63000000Y-144500000D03*
X78000000Y-144500000D03*
D11*
X78000000Y-35000000D03*
D12*
X63000000Y-35000000D03*
X58000000Y-35000000D03*
X53000000Y-35000000D03*
X53000000Y-42500000D03*
X58000000Y-42500000D03*
X63000000Y-42500000D03*
X78000000Y-42500000D03*
D13*
X258275000Y-93300000D03*
D14*
X255735000Y-93300000D03*
X258275000Y-90760000D03*
X255735000Y-90760000D03*
X258275000Y-88220000D03*
X255735000Y-88220000D03*
X258275000Y-85680000D03*
X255735000Y-85680000D03*
D15*
X245550000Y-97500000D03*
X245550000Y-119000000D03*
X245550000Y-115000000D03*
X245550000Y-81500000D03*
X245550000Y-93500000D03*
X245550000Y-56000000D03*
X245550000Y-60000000D03*
X245550000Y-111000000D03*
X245550000Y-89500000D03*
X245550000Y-52000000D03*
X245550000Y-123000000D03*
X245550000Y-64000000D03*
X245550000Y-127000000D03*
X245550000Y-85500000D03*
X245550000Y-68000000D03*
X241450000Y-52000000D03*
D16*
X236500000Y-50500000D03*
D15*
X241450000Y-64000000D03*
X241450000Y-68000000D03*
D16*
X236500000Y-57000000D03*
D15*
X241450000Y-60000000D03*
X241450000Y-56000000D03*
X241450000Y-123000000D03*
X241450000Y-115000000D03*
X241450000Y-111000000D03*
D16*
X230000000Y-122000000D03*
D15*
X241450000Y-119000000D03*
X241450000Y-127000000D03*
D16*
X230000000Y-128500000D03*
D15*
X241450000Y-81500000D03*
X241450000Y-85500000D03*
X241450000Y-93500000D03*
X241450000Y-89500000D03*
D16*
X230000000Y-85500000D03*
X236500000Y-93500000D03*
D15*
X241450000Y-97500000D03*
X187550000Y-97500000D03*
X187550000Y-119000000D03*
X187550000Y-68000000D03*
X187550000Y-89500000D03*
X187550000Y-123000000D03*
X187550000Y-93500000D03*
X187550000Y-64000000D03*
X187550000Y-111000000D03*
X187550000Y-60000000D03*
X187550000Y-56000000D03*
X187550000Y-81500000D03*
X187550000Y-127000000D03*
X187550000Y-85500000D03*
X187550000Y-52000000D03*
X187550000Y-115000000D03*
D16*
X178500000Y-50500000D03*
D15*
X183450000Y-52000000D03*
X183450000Y-68000000D03*
X183450000Y-64000000D03*
X183450000Y-60000000D03*
D16*
X178500000Y-57000000D03*
D15*
X183450000Y-56000000D03*
D16*
X172000000Y-128500000D03*
X172000000Y-122000000D03*
D15*
X183450000Y-127000000D03*
X183450000Y-111000000D03*
X183450000Y-115000000D03*
X183450000Y-123000000D03*
X183450000Y-119000000D03*
X183450000Y-93500000D03*
D16*
X178500000Y-93500000D03*
D15*
X183450000Y-97500000D03*
D16*
X172000000Y-85500000D03*
D15*
X183450000Y-81500000D03*
X183450000Y-89500000D03*
X183450000Y-85500000D03*
D17*
X178500000Y-138700000D03*
X178500000Y-143000000D03*
D15*
X216550000Y-60000000D03*
X216550000Y-52000000D03*
X216550000Y-89500000D03*
X216550000Y-111000000D03*
X216550000Y-85500000D03*
X216550000Y-119000000D03*
X216550000Y-93500000D03*
X216550000Y-56000000D03*
X216550000Y-81500000D03*
X216550000Y-97500000D03*
X216550000Y-123000000D03*
X216550000Y-115000000D03*
X216550000Y-127000000D03*
X216550000Y-64000000D03*
X216550000Y-68000000D03*
X212450000Y-52000000D03*
X212450000Y-68000000D03*
D16*
X207500000Y-57000000D03*
D15*
X212450000Y-64000000D03*
D16*
X207500000Y-50500000D03*
D15*
X212450000Y-60000000D03*
X212450000Y-56000000D03*
X212450000Y-111000000D03*
X212450000Y-127000000D03*
D16*
X201000000Y-128500000D03*
X201000000Y-122000000D03*
D15*
X212450000Y-119000000D03*
X212450000Y-123000000D03*
X212450000Y-115000000D03*
D16*
X201000000Y-85500000D03*
D15*
X212450000Y-97500000D03*
X212450000Y-81500000D03*
X212450000Y-85500000D03*
X212450000Y-89500000D03*
X212450000Y-93500000D03*
D16*
X207500000Y-93500000D03*
D17*
X178500000Y-41000000D03*
X178500000Y-36700000D03*
X248500000Y-138700000D03*
X248500000Y-143000000D03*
D15*
X129550000Y-89500000D03*
X129550000Y-81500000D03*
X129550000Y-64000000D03*
X129550000Y-111000000D03*
X129550000Y-85500000D03*
X129550000Y-123000000D03*
X129550000Y-56000000D03*
X129550000Y-68000000D03*
X129550000Y-52000000D03*
X129550000Y-115000000D03*
X129550000Y-93500000D03*
X129550000Y-119000000D03*
X129550000Y-127000000D03*
X129550000Y-97500000D03*
X129550000Y-60000000D03*
X125450000Y-60000000D03*
X125450000Y-68000000D03*
D16*
X120500000Y-50500000D03*
D15*
X125450000Y-64000000D03*
X125450000Y-52000000D03*
X125450000Y-56000000D03*
D16*
X120500000Y-57000000D03*
D15*
X125450000Y-123000000D03*
X125450000Y-111000000D03*
X125450000Y-119000000D03*
X125450000Y-115000000D03*
D16*
X114000000Y-122000000D03*
X114000000Y-128500000D03*
D15*
X125450000Y-127000000D03*
X125450000Y-89500000D03*
X125450000Y-85500000D03*
X125450000Y-97500000D03*
X125450000Y-93500000D03*
D16*
X114000000Y-85500000D03*
D15*
X125450000Y-81500000D03*
D16*
X120500000Y-93500000D03*
D18*
X254000000Y-150000000D03*
D17*
X213500000Y-138700000D03*
X213500000Y-143000000D03*
X73500000Y-40837500D03*
X73500000Y-36537500D03*
D15*
X100550000Y-115000000D03*
X100550000Y-119000000D03*
X100550000Y-127000000D03*
X100550000Y-85500000D03*
X100550000Y-81500000D03*
X100550000Y-56000000D03*
X100550000Y-68000000D03*
X100550000Y-64000000D03*
X100550000Y-93500000D03*
X100550000Y-97500000D03*
X100550000Y-52000000D03*
X100550000Y-89500000D03*
X100550000Y-60000000D03*
X100550000Y-111000000D03*
X100550000Y-123000000D03*
D16*
X91500000Y-63500000D03*
D15*
X96450000Y-68000000D03*
X96450000Y-56000000D03*
X96450000Y-52000000D03*
D16*
X91500000Y-70000000D03*
D15*
X96450000Y-64000000D03*
X96450000Y-60000000D03*
X96450000Y-123000000D03*
D16*
X85000000Y-109000000D03*
D15*
X96450000Y-127000000D03*
X96450000Y-115000000D03*
X96450000Y-119000000D03*
X96450000Y-111000000D03*
D16*
X85000000Y-115500000D03*
X91500000Y-99500000D03*
D15*
X96450000Y-89500000D03*
X96450000Y-81500000D03*
X96450000Y-93500000D03*
X96450000Y-97500000D03*
X96450000Y-85500000D03*
D16*
X85000000Y-79500000D03*
D17*
X108500000Y-41000000D03*
X108500000Y-36700000D03*
X213500000Y-41000000D03*
X213500000Y-36700000D03*
X143500000Y-40837500D03*
X143500000Y-36537500D03*
X108500000Y-138700000D03*
X108500000Y-143000000D03*
D15*
X158550000Y-68000000D03*
X158550000Y-85500000D03*
X158550000Y-89500000D03*
X158550000Y-97500000D03*
X158550000Y-93500000D03*
X158550000Y-81500000D03*
X158550000Y-119000000D03*
X158550000Y-60000000D03*
X158550000Y-123000000D03*
X158550000Y-127000000D03*
X158550000Y-56000000D03*
X158550000Y-111000000D03*
X158550000Y-52000000D03*
X158550000Y-64000000D03*
X158550000Y-115000000D03*
D16*
X149500000Y-50500000D03*
D15*
X154450000Y-64000000D03*
X154450000Y-52000000D03*
X154450000Y-56000000D03*
X154450000Y-60000000D03*
D16*
X149500000Y-57000000D03*
D15*
X154450000Y-68000000D03*
X154450000Y-127000000D03*
D16*
X143000000Y-122000000D03*
D15*
X154450000Y-111000000D03*
X154450000Y-123000000D03*
D16*
X143000000Y-128500000D03*
D15*
X154450000Y-119000000D03*
X154450000Y-115000000D03*
X154450000Y-97500000D03*
X154450000Y-85500000D03*
X154450000Y-81500000D03*
X154450000Y-93500000D03*
D16*
X149500000Y-93500000D03*
D15*
X154450000Y-89500000D03*
D16*
X143000000Y-85500000D03*
D18*
X46000000Y-30000000D03*
D17*
X248500000Y-41000000D03*
X248500000Y-36700000D03*
X143500000Y-138700000D03*
X143500000Y-143000000D03*
X73500000Y-138700000D03*
X73500000Y-143000000D03*
D15*
X71550000Y-111000000D03*
X71550000Y-97500000D03*
X71550000Y-123000000D03*
X71550000Y-81500000D03*
X71550000Y-89500000D03*
X71550000Y-119000000D03*
X71550000Y-127000000D03*
X71550000Y-85500000D03*
X71550000Y-52000000D03*
X71550000Y-64000000D03*
X71550000Y-68000000D03*
X71550000Y-93500000D03*
X71550000Y-60000000D03*
X71550000Y-56000000D03*
X71550000Y-115000000D03*
X67450000Y-68000000D03*
D16*
X62500000Y-70000000D03*
D15*
X67450000Y-52000000D03*
X67450000Y-56000000D03*
X67450000Y-60000000D03*
D16*
X62500000Y-63500000D03*
D15*
X67450000Y-64000000D03*
D16*
X56000000Y-109000000D03*
D15*
X67450000Y-127000000D03*
X67450000Y-123000000D03*
X67450000Y-111000000D03*
D16*
X56000000Y-115500000D03*
D15*
X67450000Y-115000000D03*
X67450000Y-119000000D03*
D16*
X62500000Y-99500000D03*
D15*
X67450000Y-89500000D03*
D16*
X56000000Y-79500000D03*
D15*
X67450000Y-93500000D03*
X67450000Y-85500000D03*
X67450000Y-81500000D03*
X67450000Y-97500000D03*
M02*
