G04 #@! TF.GenerationSoftware,KiCad,Pcbnew,7.0.9-7.0.9~ubuntu20.04.1*
G04 #@! TF.CreationDate,2023-12-17T16:45:51+01:00*
G04 #@! TF.ProjectId,low_pass,6c6f775f-7061-4737-932e-6b696361645f,1.0*
G04 #@! TF.SameCoordinates,Original*
G04 #@! TF.FileFunction,Legend,Top*
G04 #@! TF.FilePolarity,Positive*
%FSLAX46Y46*%
G04 Gerber Fmt 4.6, Leading zero omitted, Abs format (unit mm)*
G04 Created by KiCad (PCBNEW 7.0.9-7.0.9~ubuntu20.04.1) date 2023-12-17 16:45:51*
%MOMM*%
%LPD*%
G01*
G04 APERTURE LIST*
G04 Aperture macros list*
%AMRoundRect*
0 Rectangle with rounded corners*
0 $1 Rounding radius*
0 $2 $3 $4 $5 $6 $7 $8 $9 X,Y pos of 4 corners*
0 Add a 4 corners polygon primitive as box body*
4,1,4,$2,$3,$4,$5,$6,$7,$8,$9,$2,$3,0*
0 Add four circle primitives for the rounded corners*
1,1,$1+$1,$2,$3*
1,1,$1+$1,$4,$5*
1,1,$1+$1,$6,$7*
1,1,$1+$1,$8,$9*
0 Add four rect primitives between the rounded corners*
20,1,$1+$1,$2,$3,$4,$5,0*
20,1,$1+$1,$4,$5,$6,$7,0*
20,1,$1+$1,$6,$7,$8,$9,0*
20,1,$1+$1,$8,$9,$2,$3,0*%
G04 Aperture macros list end*
%ADD10C,0.575000*%
%ADD11C,0.300000*%
%ADD12C,0.700000*%
%ADD13C,0.150000*%
%ADD14C,0.120000*%
%ADD15C,2.000000*%
%ADD16C,5.600000*%
%ADD17R,2.500000X2.500000*%
%ADD18O,2.500000X2.500000*%
%ADD19RoundRect,1.500000X-3.500000X3.500000X-3.500000X-3.500000X3.500000X-3.500000X3.500000X3.500000X0*%
%ADD20RoundRect,0.500000X-4.500000X7.500000X-4.500000X-7.500000X4.500000X-7.500000X4.500000X7.500000X0*%
%ADD21RoundRect,1.500000X3.500000X-3.500000X3.500000X3.500000X-3.500000X3.500000X-3.500000X-3.500000X0*%
%ADD22RoundRect,0.500000X4.500000X-7.500000X4.500000X7.500000X-4.500000X7.500000X-4.500000X-7.500000X0*%
%ADD23R,1.700000X1.700000*%
%ADD24O,1.700000X1.700000*%
%ADD25C,5.000000*%
G04 APERTURE END LIST*
D10*
X261787500Y-94000000D02*
G75*
G03*
X261787500Y-94000000I-287500J0D01*
G01*
D11*
X254919114Y-74374060D02*
X253119114Y-74374060D01*
X253976257Y-74374060D02*
X253976257Y-73345489D01*
X254919114Y-73345489D02*
X253119114Y-73345489D01*
X253976257Y-71888346D02*
X253976257Y-72488346D01*
X254919114Y-72488346D02*
X253119114Y-72488346D01*
X253119114Y-72488346D02*
X253119114Y-71631203D01*
X254919114Y-68716917D02*
X254919114Y-69574060D01*
X254919114Y-69574060D02*
X253119114Y-69574060D01*
X254919114Y-67859774D02*
X254833400Y-68031203D01*
X254833400Y-68031203D02*
X254747685Y-68116917D01*
X254747685Y-68116917D02*
X254576257Y-68202631D01*
X254576257Y-68202631D02*
X254061971Y-68202631D01*
X254061971Y-68202631D02*
X253890542Y-68116917D01*
X253890542Y-68116917D02*
X253804828Y-68031203D01*
X253804828Y-68031203D02*
X253719114Y-67859774D01*
X253719114Y-67859774D02*
X253719114Y-67602631D01*
X253719114Y-67602631D02*
X253804828Y-67431203D01*
X253804828Y-67431203D02*
X253890542Y-67345489D01*
X253890542Y-67345489D02*
X254061971Y-67259774D01*
X254061971Y-67259774D02*
X254576257Y-67259774D01*
X254576257Y-67259774D02*
X254747685Y-67345489D01*
X254747685Y-67345489D02*
X254833400Y-67431203D01*
X254833400Y-67431203D02*
X254919114Y-67602631D01*
X254919114Y-67602631D02*
X254919114Y-67859774D01*
X253719114Y-66659775D02*
X254919114Y-66316918D01*
X254919114Y-66316918D02*
X254061971Y-65974060D01*
X254061971Y-65974060D02*
X254919114Y-65631203D01*
X254919114Y-65631203D02*
X253719114Y-65288346D01*
X253719114Y-63231203D02*
X255519114Y-63231203D01*
X253804828Y-63231203D02*
X253719114Y-63059775D01*
X253719114Y-63059775D02*
X253719114Y-62716917D01*
X253719114Y-62716917D02*
X253804828Y-62545489D01*
X253804828Y-62545489D02*
X253890542Y-62459775D01*
X253890542Y-62459775D02*
X254061971Y-62374060D01*
X254061971Y-62374060D02*
X254576257Y-62374060D01*
X254576257Y-62374060D02*
X254747685Y-62459775D01*
X254747685Y-62459775D02*
X254833400Y-62545489D01*
X254833400Y-62545489D02*
X254919114Y-62716917D01*
X254919114Y-62716917D02*
X254919114Y-63059775D01*
X254919114Y-63059775D02*
X254833400Y-63231203D01*
X254919114Y-60831204D02*
X253976257Y-60831204D01*
X253976257Y-60831204D02*
X253804828Y-60916918D01*
X253804828Y-60916918D02*
X253719114Y-61088346D01*
X253719114Y-61088346D02*
X253719114Y-61431204D01*
X253719114Y-61431204D02*
X253804828Y-61602632D01*
X254833400Y-60831204D02*
X254919114Y-61002632D01*
X254919114Y-61002632D02*
X254919114Y-61431204D01*
X254919114Y-61431204D02*
X254833400Y-61602632D01*
X254833400Y-61602632D02*
X254661971Y-61688346D01*
X254661971Y-61688346D02*
X254490542Y-61688346D01*
X254490542Y-61688346D02*
X254319114Y-61602632D01*
X254319114Y-61602632D02*
X254233400Y-61431204D01*
X254233400Y-61431204D02*
X254233400Y-61002632D01*
X254233400Y-61002632D02*
X254147685Y-60831204D01*
X254833400Y-60059775D02*
X254919114Y-59888347D01*
X254919114Y-59888347D02*
X254919114Y-59545490D01*
X254919114Y-59545490D02*
X254833400Y-59374061D01*
X254833400Y-59374061D02*
X254661971Y-59288347D01*
X254661971Y-59288347D02*
X254576257Y-59288347D01*
X254576257Y-59288347D02*
X254404828Y-59374061D01*
X254404828Y-59374061D02*
X254319114Y-59545490D01*
X254319114Y-59545490D02*
X254319114Y-59802633D01*
X254319114Y-59802633D02*
X254233400Y-59974061D01*
X254233400Y-59974061D02*
X254061971Y-60059775D01*
X254061971Y-60059775D02*
X253976257Y-60059775D01*
X253976257Y-60059775D02*
X253804828Y-59974061D01*
X253804828Y-59974061D02*
X253719114Y-59802633D01*
X253719114Y-59802633D02*
X253719114Y-59545490D01*
X253719114Y-59545490D02*
X253804828Y-59374061D01*
X254833400Y-58602632D02*
X254919114Y-58431204D01*
X254919114Y-58431204D02*
X254919114Y-58088347D01*
X254919114Y-58088347D02*
X254833400Y-57916918D01*
X254833400Y-57916918D02*
X254661971Y-57831204D01*
X254661971Y-57831204D02*
X254576257Y-57831204D01*
X254576257Y-57831204D02*
X254404828Y-57916918D01*
X254404828Y-57916918D02*
X254319114Y-58088347D01*
X254319114Y-58088347D02*
X254319114Y-58345490D01*
X254319114Y-58345490D02*
X254233400Y-58516918D01*
X254233400Y-58516918D02*
X254061971Y-58602632D01*
X254061971Y-58602632D02*
X253976257Y-58602632D01*
X253976257Y-58602632D02*
X253804828Y-58516918D01*
X253804828Y-58516918D02*
X253719114Y-58345490D01*
X253719114Y-58345490D02*
X253719114Y-58088347D01*
X253719114Y-58088347D02*
X253804828Y-57916918D01*
X253719114Y-55945489D02*
X253719114Y-55259775D01*
X254919114Y-55688346D02*
X253376257Y-55688346D01*
X253376257Y-55688346D02*
X253204828Y-55602632D01*
X253204828Y-55602632D02*
X253119114Y-55431203D01*
X253119114Y-55431203D02*
X253119114Y-55259775D01*
X254919114Y-54659775D02*
X253719114Y-54659775D01*
X253119114Y-54659775D02*
X253204828Y-54745489D01*
X253204828Y-54745489D02*
X253290542Y-54659775D01*
X253290542Y-54659775D02*
X253204828Y-54574061D01*
X253204828Y-54574061D02*
X253119114Y-54659775D01*
X253119114Y-54659775D02*
X253290542Y-54659775D01*
X254919114Y-53545489D02*
X254833400Y-53716918D01*
X254833400Y-53716918D02*
X254661971Y-53802632D01*
X254661971Y-53802632D02*
X253119114Y-53802632D01*
X253719114Y-53116918D02*
X253719114Y-52431204D01*
X253119114Y-52859775D02*
X254661971Y-52859775D01*
X254661971Y-52859775D02*
X254833400Y-52774061D01*
X254833400Y-52774061D02*
X254919114Y-52602632D01*
X254919114Y-52602632D02*
X254919114Y-52431204D01*
X254833400Y-51145490D02*
X254919114Y-51316918D01*
X254919114Y-51316918D02*
X254919114Y-51659776D01*
X254919114Y-51659776D02*
X254833400Y-51831204D01*
X254833400Y-51831204D02*
X254661971Y-51916918D01*
X254661971Y-51916918D02*
X253976257Y-51916918D01*
X253976257Y-51916918D02*
X253804828Y-51831204D01*
X253804828Y-51831204D02*
X253719114Y-51659776D01*
X253719114Y-51659776D02*
X253719114Y-51316918D01*
X253719114Y-51316918D02*
X253804828Y-51145490D01*
X253804828Y-51145490D02*
X253976257Y-51059776D01*
X253976257Y-51059776D02*
X254147685Y-51059776D01*
X254147685Y-51059776D02*
X254319114Y-51916918D01*
X254919114Y-50288347D02*
X253719114Y-50288347D01*
X254061971Y-50288347D02*
X253890542Y-50202633D01*
X253890542Y-50202633D02*
X253804828Y-50116919D01*
X253804828Y-50116919D02*
X253719114Y-49945490D01*
X253719114Y-49945490D02*
X253719114Y-49774061D01*
X257817114Y-74374060D02*
X256617114Y-74374060D01*
X256959971Y-74374060D02*
X256788542Y-74288346D01*
X256788542Y-74288346D02*
X256702828Y-74202632D01*
X256702828Y-74202632D02*
X256617114Y-74031203D01*
X256617114Y-74031203D02*
X256617114Y-73859774D01*
X257731400Y-72574060D02*
X257817114Y-72745488D01*
X257817114Y-72745488D02*
X257817114Y-73088346D01*
X257817114Y-73088346D02*
X257731400Y-73259774D01*
X257731400Y-73259774D02*
X257559971Y-73345488D01*
X257559971Y-73345488D02*
X256874257Y-73345488D01*
X256874257Y-73345488D02*
X256702828Y-73259774D01*
X256702828Y-73259774D02*
X256617114Y-73088346D01*
X256617114Y-73088346D02*
X256617114Y-72745488D01*
X256617114Y-72745488D02*
X256702828Y-72574060D01*
X256702828Y-72574060D02*
X256874257Y-72488346D01*
X256874257Y-72488346D02*
X257045685Y-72488346D01*
X257045685Y-72488346D02*
X257217114Y-73345488D01*
X256617114Y-71888346D02*
X257817114Y-71459774D01*
X257817114Y-71459774D02*
X256617114Y-71031203D01*
X257645685Y-70345488D02*
X257731400Y-70259774D01*
X257731400Y-70259774D02*
X257817114Y-70345488D01*
X257817114Y-70345488D02*
X257731400Y-70431202D01*
X257731400Y-70431202D02*
X257645685Y-70345488D01*
X257645685Y-70345488D02*
X257817114Y-70345488D01*
X256702828Y-70345488D02*
X256788542Y-70259774D01*
X256788542Y-70259774D02*
X256874257Y-70345488D01*
X256874257Y-70345488D02*
X256788542Y-70431202D01*
X256788542Y-70431202D02*
X256702828Y-70345488D01*
X256702828Y-70345488D02*
X256874257Y-70345488D01*
X257817114Y-68545488D02*
X257817114Y-69574059D01*
X257817114Y-69059774D02*
X256017114Y-69059774D01*
X256017114Y-69059774D02*
X256274257Y-69231202D01*
X256274257Y-69231202D02*
X256445685Y-69402631D01*
X256445685Y-69402631D02*
X256531400Y-69574059D01*
X257645685Y-67774059D02*
X257731400Y-67688345D01*
X257731400Y-67688345D02*
X257817114Y-67774059D01*
X257817114Y-67774059D02*
X257731400Y-67859773D01*
X257731400Y-67859773D02*
X257645685Y-67774059D01*
X257645685Y-67774059D02*
X257817114Y-67774059D01*
X256017114Y-66574059D02*
X256017114Y-66402630D01*
X256017114Y-66402630D02*
X256102828Y-66231202D01*
X256102828Y-66231202D02*
X256188542Y-66145488D01*
X256188542Y-66145488D02*
X256359971Y-66059773D01*
X256359971Y-66059773D02*
X256702828Y-65974059D01*
X256702828Y-65974059D02*
X257131400Y-65974059D01*
X257131400Y-65974059D02*
X257474257Y-66059773D01*
X257474257Y-66059773D02*
X257645685Y-66145488D01*
X257645685Y-66145488D02*
X257731400Y-66231202D01*
X257731400Y-66231202D02*
X257817114Y-66402630D01*
X257817114Y-66402630D02*
X257817114Y-66574059D01*
X257817114Y-66574059D02*
X257731400Y-66745488D01*
X257731400Y-66745488D02*
X257645685Y-66831202D01*
X257645685Y-66831202D02*
X257474257Y-66916916D01*
X257474257Y-66916916D02*
X257131400Y-67002630D01*
X257131400Y-67002630D02*
X256702828Y-67002630D01*
X256702828Y-67002630D02*
X256359971Y-66916916D01*
X256359971Y-66916916D02*
X256188542Y-66831202D01*
X256188542Y-66831202D02*
X256102828Y-66745488D01*
X256102828Y-66745488D02*
X256017114Y-66574059D01*
X260715114Y-73431203D02*
X260715114Y-74459774D01*
X260715114Y-73945489D02*
X258915114Y-73945489D01*
X258915114Y-73945489D02*
X259172257Y-74116917D01*
X259172257Y-74116917D02*
X259343685Y-74288346D01*
X259343685Y-74288346D02*
X259429400Y-74459774D01*
X258915114Y-71888346D02*
X258915114Y-72231203D01*
X258915114Y-72231203D02*
X259000828Y-72402631D01*
X259000828Y-72402631D02*
X259086542Y-72488346D01*
X259086542Y-72488346D02*
X259343685Y-72659774D01*
X259343685Y-72659774D02*
X259686542Y-72745488D01*
X259686542Y-72745488D02*
X260372257Y-72745488D01*
X260372257Y-72745488D02*
X260543685Y-72659774D01*
X260543685Y-72659774D02*
X260629400Y-72574060D01*
X260629400Y-72574060D02*
X260715114Y-72402631D01*
X260715114Y-72402631D02*
X260715114Y-72059774D01*
X260715114Y-72059774D02*
X260629400Y-71888346D01*
X260629400Y-71888346D02*
X260543685Y-71802631D01*
X260543685Y-71802631D02*
X260372257Y-71716917D01*
X260372257Y-71716917D02*
X259943685Y-71716917D01*
X259943685Y-71716917D02*
X259772257Y-71802631D01*
X259772257Y-71802631D02*
X259686542Y-71888346D01*
X259686542Y-71888346D02*
X259600828Y-72059774D01*
X259600828Y-72059774D02*
X259600828Y-72402631D01*
X259600828Y-72402631D02*
X259686542Y-72574060D01*
X259686542Y-72574060D02*
X259772257Y-72659774D01*
X259772257Y-72659774D02*
X259943685Y-72745488D01*
X260543685Y-70945488D02*
X260629400Y-70859774D01*
X260629400Y-70859774D02*
X260715114Y-70945488D01*
X260715114Y-70945488D02*
X260629400Y-71031202D01*
X260629400Y-71031202D02*
X260543685Y-70945488D01*
X260543685Y-70945488D02*
X260715114Y-70945488D01*
X259515114Y-69316917D02*
X260715114Y-69316917D01*
X258829400Y-69745488D02*
X260115114Y-70174059D01*
X260115114Y-70174059D02*
X260115114Y-69059774D01*
X260543685Y-68374059D02*
X260629400Y-68288345D01*
X260629400Y-68288345D02*
X260715114Y-68374059D01*
X260715114Y-68374059D02*
X260629400Y-68459773D01*
X260629400Y-68459773D02*
X260543685Y-68374059D01*
X260543685Y-68374059D02*
X260715114Y-68374059D01*
X259086542Y-67602630D02*
X259000828Y-67516916D01*
X259000828Y-67516916D02*
X258915114Y-67345488D01*
X258915114Y-67345488D02*
X258915114Y-66916916D01*
X258915114Y-66916916D02*
X259000828Y-66745488D01*
X259000828Y-66745488D02*
X259086542Y-66659773D01*
X259086542Y-66659773D02*
X259257971Y-66574059D01*
X259257971Y-66574059D02*
X259429400Y-66574059D01*
X259429400Y-66574059D02*
X259686542Y-66659773D01*
X259686542Y-66659773D02*
X260715114Y-67688345D01*
X260715114Y-67688345D02*
X260715114Y-66574059D01*
X258915114Y-65459773D02*
X258915114Y-65288344D01*
X258915114Y-65288344D02*
X259000828Y-65116916D01*
X259000828Y-65116916D02*
X259086542Y-65031202D01*
X259086542Y-65031202D02*
X259257971Y-64945487D01*
X259257971Y-64945487D02*
X259600828Y-64859773D01*
X259600828Y-64859773D02*
X260029400Y-64859773D01*
X260029400Y-64859773D02*
X260372257Y-64945487D01*
X260372257Y-64945487D02*
X260543685Y-65031202D01*
X260543685Y-65031202D02*
X260629400Y-65116916D01*
X260629400Y-65116916D02*
X260715114Y-65288344D01*
X260715114Y-65288344D02*
X260715114Y-65459773D01*
X260715114Y-65459773D02*
X260629400Y-65631202D01*
X260629400Y-65631202D02*
X260543685Y-65716916D01*
X260543685Y-65716916D02*
X260372257Y-65802630D01*
X260372257Y-65802630D02*
X260029400Y-65888344D01*
X260029400Y-65888344D02*
X259600828Y-65888344D01*
X259600828Y-65888344D02*
X259257971Y-65802630D01*
X259257971Y-65802630D02*
X259086542Y-65716916D01*
X259086542Y-65716916D02*
X259000828Y-65631202D01*
X259000828Y-65631202D02*
X258915114Y-65459773D01*
X259086542Y-64174058D02*
X259000828Y-64088344D01*
X259000828Y-64088344D02*
X258915114Y-63916916D01*
X258915114Y-63916916D02*
X258915114Y-63488344D01*
X258915114Y-63488344D02*
X259000828Y-63316916D01*
X259000828Y-63316916D02*
X259086542Y-63231201D01*
X259086542Y-63231201D02*
X259257971Y-63145487D01*
X259257971Y-63145487D02*
X259429400Y-63145487D01*
X259429400Y-63145487D02*
X259686542Y-63231201D01*
X259686542Y-63231201D02*
X260715114Y-64259773D01*
X260715114Y-64259773D02*
X260715114Y-63145487D01*
X258915114Y-62545487D02*
X258915114Y-61431201D01*
X258915114Y-61431201D02*
X259600828Y-62031201D01*
X259600828Y-62031201D02*
X259600828Y-61774058D01*
X259600828Y-61774058D02*
X259686542Y-61602630D01*
X259686542Y-61602630D02*
X259772257Y-61516915D01*
X259772257Y-61516915D02*
X259943685Y-61431201D01*
X259943685Y-61431201D02*
X260372257Y-61431201D01*
X260372257Y-61431201D02*
X260543685Y-61516915D01*
X260543685Y-61516915D02*
X260629400Y-61602630D01*
X260629400Y-61602630D02*
X260715114Y-61774058D01*
X260715114Y-61774058D02*
X260715114Y-62288344D01*
X260715114Y-62288344D02*
X260629400Y-62459772D01*
X260629400Y-62459772D02*
X260543685Y-62545487D01*
D12*
X258208600Y-121357142D02*
X258351457Y-120928571D01*
X258351457Y-120928571D02*
X258351457Y-120214285D01*
X258351457Y-120214285D02*
X258208600Y-119928571D01*
X258208600Y-119928571D02*
X258065742Y-119785713D01*
X258065742Y-119785713D02*
X257780028Y-119642856D01*
X257780028Y-119642856D02*
X257494314Y-119642856D01*
X257494314Y-119642856D02*
X257208600Y-119785713D01*
X257208600Y-119785713D02*
X257065742Y-119928571D01*
X257065742Y-119928571D02*
X256922885Y-120214285D01*
X256922885Y-120214285D02*
X256780028Y-120785713D01*
X256780028Y-120785713D02*
X256637171Y-121071428D01*
X256637171Y-121071428D02*
X256494314Y-121214285D01*
X256494314Y-121214285D02*
X256208600Y-121357142D01*
X256208600Y-121357142D02*
X255922885Y-121357142D01*
X255922885Y-121357142D02*
X255637171Y-121214285D01*
X255637171Y-121214285D02*
X255494314Y-121071428D01*
X255494314Y-121071428D02*
X255351457Y-120785713D01*
X255351457Y-120785713D02*
X255351457Y-120071428D01*
X255351457Y-120071428D02*
X255494314Y-119642856D01*
X255351457Y-116928570D02*
X255351457Y-118357142D01*
X255351457Y-118357142D02*
X256780028Y-118499999D01*
X256780028Y-118499999D02*
X256637171Y-118357142D01*
X256637171Y-118357142D02*
X256494314Y-118071428D01*
X256494314Y-118071428D02*
X256494314Y-117357142D01*
X256494314Y-117357142D02*
X256637171Y-117071428D01*
X256637171Y-117071428D02*
X256780028Y-116928570D01*
X256780028Y-116928570D02*
X257065742Y-116785713D01*
X257065742Y-116785713D02*
X257780028Y-116785713D01*
X257780028Y-116785713D02*
X258065742Y-116928570D01*
X258065742Y-116928570D02*
X258208600Y-117071428D01*
X258208600Y-117071428D02*
X258351457Y-117357142D01*
X258351457Y-117357142D02*
X258351457Y-118071428D01*
X258351457Y-118071428D02*
X258208600Y-118357142D01*
X258208600Y-118357142D02*
X258065742Y-118499999D01*
X258351457Y-115357142D02*
X258351457Y-114785713D01*
X258351457Y-114785713D02*
X258208600Y-114499999D01*
X258208600Y-114499999D02*
X258065742Y-114357142D01*
X258065742Y-114357142D02*
X257637171Y-114071427D01*
X257637171Y-114071427D02*
X257065742Y-113928570D01*
X257065742Y-113928570D02*
X255922885Y-113928570D01*
X255922885Y-113928570D02*
X255637171Y-114071427D01*
X255637171Y-114071427D02*
X255494314Y-114214285D01*
X255494314Y-114214285D02*
X255351457Y-114499999D01*
X255351457Y-114499999D02*
X255351457Y-115071427D01*
X255351457Y-115071427D02*
X255494314Y-115357142D01*
X255494314Y-115357142D02*
X255637171Y-115499999D01*
X255637171Y-115499999D02*
X255922885Y-115642856D01*
X255922885Y-115642856D02*
X256637171Y-115642856D01*
X256637171Y-115642856D02*
X256922885Y-115499999D01*
X256922885Y-115499999D02*
X257065742Y-115357142D01*
X257065742Y-115357142D02*
X257208600Y-115071427D01*
X257208600Y-115071427D02*
X257208600Y-114499999D01*
X257208600Y-114499999D02*
X257065742Y-114214285D01*
X257065742Y-114214285D02*
X256922885Y-114071427D01*
X256922885Y-114071427D02*
X256637171Y-113928570D01*
X258351457Y-112642856D02*
X255351457Y-112642856D01*
X255351457Y-112642856D02*
X257494314Y-111642856D01*
X257494314Y-111642856D02*
X255351457Y-110642856D01*
X255351457Y-110642856D02*
X258351457Y-110642856D01*
X255351457Y-109499999D02*
X255351457Y-107499999D01*
X255351457Y-107499999D02*
X258351457Y-109499999D01*
X258351457Y-109499999D02*
X258351457Y-107499999D01*
D13*
X252928571Y-147931009D02*
X252595238Y-147931009D01*
X252595238Y-148454819D02*
X252595238Y-147454819D01*
X252595238Y-147454819D02*
X253071428Y-147454819D01*
X253452381Y-148454819D02*
X253452381Y-147454819D01*
X253928571Y-148454819D02*
X253928571Y-147454819D01*
X253928571Y-147454819D02*
X254166666Y-147454819D01*
X254166666Y-147454819D02*
X254309523Y-147502438D01*
X254309523Y-147502438D02*
X254404761Y-147597676D01*
X254404761Y-147597676D02*
X254452380Y-147692914D01*
X254452380Y-147692914D02*
X254499999Y-147883390D01*
X254499999Y-147883390D02*
X254499999Y-148026247D01*
X254499999Y-148026247D02*
X254452380Y-148216723D01*
X254452380Y-148216723D02*
X254404761Y-148311961D01*
X254404761Y-148311961D02*
X254309523Y-148407200D01*
X254309523Y-148407200D02*
X254166666Y-148454819D01*
X254166666Y-148454819D02*
X253928571Y-148454819D01*
X254880952Y-147550057D02*
X254928571Y-147502438D01*
X254928571Y-147502438D02*
X255023809Y-147454819D01*
X255023809Y-147454819D02*
X255261904Y-147454819D01*
X255261904Y-147454819D02*
X255357142Y-147502438D01*
X255357142Y-147502438D02*
X255404761Y-147550057D01*
X255404761Y-147550057D02*
X255452380Y-147645295D01*
X255452380Y-147645295D02*
X255452380Y-147740533D01*
X255452380Y-147740533D02*
X255404761Y-147883390D01*
X255404761Y-147883390D02*
X254833333Y-148454819D01*
X254833333Y-148454819D02*
X255452380Y-148454819D01*
X135328571Y-31454819D02*
X134995238Y-30978628D01*
X134757143Y-31454819D02*
X134757143Y-30454819D01*
X134757143Y-30454819D02*
X135138095Y-30454819D01*
X135138095Y-30454819D02*
X135233333Y-30502438D01*
X135233333Y-30502438D02*
X135280952Y-30550057D01*
X135280952Y-30550057D02*
X135328571Y-30645295D01*
X135328571Y-30645295D02*
X135328571Y-30788152D01*
X135328571Y-30788152D02*
X135280952Y-30883390D01*
X135280952Y-30883390D02*
X135233333Y-30931009D01*
X135233333Y-30931009D02*
X135138095Y-30978628D01*
X135138095Y-30978628D02*
X134757143Y-30978628D01*
X136233333Y-31454819D02*
X135757143Y-31454819D01*
X135757143Y-31454819D02*
X135757143Y-30454819D01*
X136995238Y-30454819D02*
X136804762Y-30454819D01*
X136804762Y-30454819D02*
X136709524Y-30502438D01*
X136709524Y-30502438D02*
X136661905Y-30550057D01*
X136661905Y-30550057D02*
X136566667Y-30692914D01*
X136566667Y-30692914D02*
X136519048Y-30883390D01*
X136519048Y-30883390D02*
X136519048Y-31264342D01*
X136519048Y-31264342D02*
X136566667Y-31359580D01*
X136566667Y-31359580D02*
X136614286Y-31407200D01*
X136614286Y-31407200D02*
X136709524Y-31454819D01*
X136709524Y-31454819D02*
X136900000Y-31454819D01*
X136900000Y-31454819D02*
X136995238Y-31407200D01*
X136995238Y-31407200D02*
X137042857Y-31359580D01*
X137042857Y-31359580D02*
X137090476Y-31264342D01*
X137090476Y-31264342D02*
X137090476Y-31026247D01*
X137090476Y-31026247D02*
X137042857Y-30931009D01*
X137042857Y-30931009D02*
X136995238Y-30883390D01*
X136995238Y-30883390D02*
X136900000Y-30835771D01*
X136900000Y-30835771D02*
X136709524Y-30835771D01*
X136709524Y-30835771D02*
X136614286Y-30883390D01*
X136614286Y-30883390D02*
X136566667Y-30931009D01*
X136566667Y-30931009D02*
X136519048Y-31026247D01*
X40666666Y-141454819D02*
X40666666Y-142169104D01*
X40666666Y-142169104D02*
X40619047Y-142311961D01*
X40619047Y-142311961D02*
X40523809Y-142407200D01*
X40523809Y-142407200D02*
X40380952Y-142454819D01*
X40380952Y-142454819D02*
X40285714Y-142454819D01*
X41047619Y-141454819D02*
X41666666Y-141454819D01*
X41666666Y-141454819D02*
X41333333Y-141835771D01*
X41333333Y-141835771D02*
X41476190Y-141835771D01*
X41476190Y-141835771D02*
X41571428Y-141883390D01*
X41571428Y-141883390D02*
X41619047Y-141931009D01*
X41619047Y-141931009D02*
X41666666Y-142026247D01*
X41666666Y-142026247D02*
X41666666Y-142264342D01*
X41666666Y-142264342D02*
X41619047Y-142359580D01*
X41619047Y-142359580D02*
X41571428Y-142407200D01*
X41571428Y-142407200D02*
X41476190Y-142454819D01*
X41476190Y-142454819D02*
X41190476Y-142454819D01*
X41190476Y-142454819D02*
X41095238Y-142407200D01*
X41095238Y-142407200D02*
X41047619Y-142359580D01*
D11*
X50409638Y-122857142D02*
X48409638Y-122857142D01*
X50409638Y-121904761D02*
X48409638Y-121904761D01*
X48409638Y-121904761D02*
X50409638Y-120761904D01*
X50409638Y-120761904D02*
X48409638Y-120761904D01*
X50409638Y-119809523D02*
X48409638Y-119809523D01*
X48409638Y-119809523D02*
X48409638Y-119047618D01*
X48409638Y-119047618D02*
X48504876Y-118857142D01*
X48504876Y-118857142D02*
X48600114Y-118761904D01*
X48600114Y-118761904D02*
X48790590Y-118666666D01*
X48790590Y-118666666D02*
X49076304Y-118666666D01*
X49076304Y-118666666D02*
X49266780Y-118761904D01*
X49266780Y-118761904D02*
X49362019Y-118857142D01*
X49362019Y-118857142D02*
X49457257Y-119047618D01*
X49457257Y-119047618D02*
X49457257Y-119809523D01*
X48409638Y-117809523D02*
X50028685Y-117809523D01*
X50028685Y-117809523D02*
X50219161Y-117714285D01*
X50219161Y-117714285D02*
X50314400Y-117619047D01*
X50314400Y-117619047D02*
X50409638Y-117428571D01*
X50409638Y-117428571D02*
X50409638Y-117047618D01*
X50409638Y-117047618D02*
X50314400Y-116857142D01*
X50314400Y-116857142D02*
X50219161Y-116761904D01*
X50219161Y-116761904D02*
X50028685Y-116666666D01*
X50028685Y-116666666D02*
X48409638Y-116666666D01*
X48409638Y-115999999D02*
X48409638Y-114857142D01*
X50409638Y-115428571D02*
X48409638Y-115428571D01*
D13*
X239852380Y-31454819D02*
X239519047Y-30978628D01*
X239280952Y-31454819D02*
X239280952Y-30454819D01*
X239280952Y-30454819D02*
X239661904Y-30454819D01*
X239661904Y-30454819D02*
X239757142Y-30502438D01*
X239757142Y-30502438D02*
X239804761Y-30550057D01*
X239804761Y-30550057D02*
X239852380Y-30645295D01*
X239852380Y-30645295D02*
X239852380Y-30788152D01*
X239852380Y-30788152D02*
X239804761Y-30883390D01*
X239804761Y-30883390D02*
X239757142Y-30931009D01*
X239757142Y-30931009D02*
X239661904Y-30978628D01*
X239661904Y-30978628D02*
X239280952Y-30978628D01*
X240757142Y-31454819D02*
X240280952Y-31454819D01*
X240280952Y-31454819D02*
X240280952Y-30454819D01*
X241614285Y-31454819D02*
X241042857Y-31454819D01*
X241328571Y-31454819D02*
X241328571Y-30454819D01*
X241328571Y-30454819D02*
X241233333Y-30597676D01*
X241233333Y-30597676D02*
X241138095Y-30692914D01*
X241138095Y-30692914D02*
X241042857Y-30740533D01*
X241995238Y-30550057D02*
X242042857Y-30502438D01*
X242042857Y-30502438D02*
X242138095Y-30454819D01*
X242138095Y-30454819D02*
X242376190Y-30454819D01*
X242376190Y-30454819D02*
X242471428Y-30502438D01*
X242471428Y-30502438D02*
X242519047Y-30550057D01*
X242519047Y-30550057D02*
X242566666Y-30645295D01*
X242566666Y-30645295D02*
X242566666Y-30740533D01*
X242566666Y-30740533D02*
X242519047Y-30883390D01*
X242519047Y-30883390D02*
X241947619Y-31454819D01*
X241947619Y-31454819D02*
X242566666Y-31454819D01*
X170328571Y-148954819D02*
X169995238Y-148478628D01*
X169757143Y-148954819D02*
X169757143Y-147954819D01*
X169757143Y-147954819D02*
X170138095Y-147954819D01*
X170138095Y-147954819D02*
X170233333Y-148002438D01*
X170233333Y-148002438D02*
X170280952Y-148050057D01*
X170280952Y-148050057D02*
X170328571Y-148145295D01*
X170328571Y-148145295D02*
X170328571Y-148288152D01*
X170328571Y-148288152D02*
X170280952Y-148383390D01*
X170280952Y-148383390D02*
X170233333Y-148431009D01*
X170233333Y-148431009D02*
X170138095Y-148478628D01*
X170138095Y-148478628D02*
X169757143Y-148478628D01*
X171233333Y-148954819D02*
X170757143Y-148954819D01*
X170757143Y-148954819D02*
X170757143Y-147954819D01*
X171471429Y-147954819D02*
X172138095Y-147954819D01*
X172138095Y-147954819D02*
X171709524Y-148954819D01*
X100328571Y-148954819D02*
X99995238Y-148478628D01*
X99757143Y-148954819D02*
X99757143Y-147954819D01*
X99757143Y-147954819D02*
X100138095Y-147954819D01*
X100138095Y-147954819D02*
X100233333Y-148002438D01*
X100233333Y-148002438D02*
X100280952Y-148050057D01*
X100280952Y-148050057D02*
X100328571Y-148145295D01*
X100328571Y-148145295D02*
X100328571Y-148288152D01*
X100328571Y-148288152D02*
X100280952Y-148383390D01*
X100280952Y-148383390D02*
X100233333Y-148431009D01*
X100233333Y-148431009D02*
X100138095Y-148478628D01*
X100138095Y-148478628D02*
X99757143Y-148478628D01*
X101233333Y-148954819D02*
X100757143Y-148954819D01*
X100757143Y-148954819D02*
X100757143Y-147954819D01*
X101471429Y-147954819D02*
X102090476Y-147954819D01*
X102090476Y-147954819D02*
X101757143Y-148335771D01*
X101757143Y-148335771D02*
X101900000Y-148335771D01*
X101900000Y-148335771D02*
X101995238Y-148383390D01*
X101995238Y-148383390D02*
X102042857Y-148431009D01*
X102042857Y-148431009D02*
X102090476Y-148526247D01*
X102090476Y-148526247D02*
X102090476Y-148764342D01*
X102090476Y-148764342D02*
X102042857Y-148859580D01*
X102042857Y-148859580D02*
X101995238Y-148907200D01*
X101995238Y-148907200D02*
X101900000Y-148954819D01*
X101900000Y-148954819D02*
X101614286Y-148954819D01*
X101614286Y-148954819D02*
X101519048Y-148907200D01*
X101519048Y-148907200D02*
X101471429Y-148859580D01*
X204852380Y-31454819D02*
X204519047Y-30978628D01*
X204280952Y-31454819D02*
X204280952Y-30454819D01*
X204280952Y-30454819D02*
X204661904Y-30454819D01*
X204661904Y-30454819D02*
X204757142Y-30502438D01*
X204757142Y-30502438D02*
X204804761Y-30550057D01*
X204804761Y-30550057D02*
X204852380Y-30645295D01*
X204852380Y-30645295D02*
X204852380Y-30788152D01*
X204852380Y-30788152D02*
X204804761Y-30883390D01*
X204804761Y-30883390D02*
X204757142Y-30931009D01*
X204757142Y-30931009D02*
X204661904Y-30978628D01*
X204661904Y-30978628D02*
X204280952Y-30978628D01*
X205757142Y-31454819D02*
X205280952Y-31454819D01*
X205280952Y-31454819D02*
X205280952Y-30454819D01*
X206614285Y-31454819D02*
X206042857Y-31454819D01*
X206328571Y-31454819D02*
X206328571Y-30454819D01*
X206328571Y-30454819D02*
X206233333Y-30597676D01*
X206233333Y-30597676D02*
X206138095Y-30692914D01*
X206138095Y-30692914D02*
X206042857Y-30740533D01*
X207233333Y-30454819D02*
X207328571Y-30454819D01*
X207328571Y-30454819D02*
X207423809Y-30502438D01*
X207423809Y-30502438D02*
X207471428Y-30550057D01*
X207471428Y-30550057D02*
X207519047Y-30645295D01*
X207519047Y-30645295D02*
X207566666Y-30835771D01*
X207566666Y-30835771D02*
X207566666Y-31073866D01*
X207566666Y-31073866D02*
X207519047Y-31264342D01*
X207519047Y-31264342D02*
X207471428Y-31359580D01*
X207471428Y-31359580D02*
X207423809Y-31407200D01*
X207423809Y-31407200D02*
X207328571Y-31454819D01*
X207328571Y-31454819D02*
X207233333Y-31454819D01*
X207233333Y-31454819D02*
X207138095Y-31407200D01*
X207138095Y-31407200D02*
X207090476Y-31359580D01*
X207090476Y-31359580D02*
X207042857Y-31264342D01*
X207042857Y-31264342D02*
X206995238Y-31073866D01*
X206995238Y-31073866D02*
X206995238Y-30835771D01*
X206995238Y-30835771D02*
X207042857Y-30645295D01*
X207042857Y-30645295D02*
X207090476Y-30550057D01*
X207090476Y-30550057D02*
X207138095Y-30502438D01*
X207138095Y-30502438D02*
X207233333Y-30454819D01*
X100328571Y-31454819D02*
X99995238Y-30978628D01*
X99757143Y-31454819D02*
X99757143Y-30454819D01*
X99757143Y-30454819D02*
X100138095Y-30454819D01*
X100138095Y-30454819D02*
X100233333Y-30502438D01*
X100233333Y-30502438D02*
X100280952Y-30550057D01*
X100280952Y-30550057D02*
X100328571Y-30645295D01*
X100328571Y-30645295D02*
X100328571Y-30788152D01*
X100328571Y-30788152D02*
X100280952Y-30883390D01*
X100280952Y-30883390D02*
X100233333Y-30931009D01*
X100233333Y-30931009D02*
X100138095Y-30978628D01*
X100138095Y-30978628D02*
X99757143Y-30978628D01*
X101233333Y-31454819D02*
X100757143Y-31454819D01*
X100757143Y-31454819D02*
X100757143Y-30454819D01*
X101995238Y-30788152D02*
X101995238Y-31454819D01*
X101757143Y-30407200D02*
X101519048Y-31121485D01*
X101519048Y-31121485D02*
X102138095Y-31121485D01*
X205328571Y-148954819D02*
X204995238Y-148478628D01*
X204757143Y-148954819D02*
X204757143Y-147954819D01*
X204757143Y-147954819D02*
X205138095Y-147954819D01*
X205138095Y-147954819D02*
X205233333Y-148002438D01*
X205233333Y-148002438D02*
X205280952Y-148050057D01*
X205280952Y-148050057D02*
X205328571Y-148145295D01*
X205328571Y-148145295D02*
X205328571Y-148288152D01*
X205328571Y-148288152D02*
X205280952Y-148383390D01*
X205280952Y-148383390D02*
X205233333Y-148431009D01*
X205233333Y-148431009D02*
X205138095Y-148478628D01*
X205138095Y-148478628D02*
X204757143Y-148478628D01*
X206233333Y-148954819D02*
X205757143Y-148954819D01*
X205757143Y-148954819D02*
X205757143Y-147954819D01*
X206614286Y-148954819D02*
X206804762Y-148954819D01*
X206804762Y-148954819D02*
X206900000Y-148907200D01*
X206900000Y-148907200D02*
X206947619Y-148859580D01*
X206947619Y-148859580D02*
X207042857Y-148716723D01*
X207042857Y-148716723D02*
X207090476Y-148526247D01*
X207090476Y-148526247D02*
X207090476Y-148145295D01*
X207090476Y-148145295D02*
X207042857Y-148050057D01*
X207042857Y-148050057D02*
X206995238Y-148002438D01*
X206995238Y-148002438D02*
X206900000Y-147954819D01*
X206900000Y-147954819D02*
X206709524Y-147954819D01*
X206709524Y-147954819D02*
X206614286Y-148002438D01*
X206614286Y-148002438D02*
X206566667Y-148050057D01*
X206566667Y-148050057D02*
X206519048Y-148145295D01*
X206519048Y-148145295D02*
X206519048Y-148383390D01*
X206519048Y-148383390D02*
X206566667Y-148478628D01*
X206566667Y-148478628D02*
X206614286Y-148526247D01*
X206614286Y-148526247D02*
X206709524Y-148573866D01*
X206709524Y-148573866D02*
X206900000Y-148573866D01*
X206900000Y-148573866D02*
X206995238Y-148526247D01*
X206995238Y-148526247D02*
X207042857Y-148478628D01*
X207042857Y-148478628D02*
X207090476Y-148383390D01*
X170328571Y-31454819D02*
X169995238Y-30978628D01*
X169757143Y-31454819D02*
X169757143Y-30454819D01*
X169757143Y-30454819D02*
X170138095Y-30454819D01*
X170138095Y-30454819D02*
X170233333Y-30502438D01*
X170233333Y-30502438D02*
X170280952Y-30550057D01*
X170280952Y-30550057D02*
X170328571Y-30645295D01*
X170328571Y-30645295D02*
X170328571Y-30788152D01*
X170328571Y-30788152D02*
X170280952Y-30883390D01*
X170280952Y-30883390D02*
X170233333Y-30931009D01*
X170233333Y-30931009D02*
X170138095Y-30978628D01*
X170138095Y-30978628D02*
X169757143Y-30978628D01*
X171233333Y-31454819D02*
X170757143Y-31454819D01*
X170757143Y-31454819D02*
X170757143Y-30454819D01*
X171709524Y-30883390D02*
X171614286Y-30835771D01*
X171614286Y-30835771D02*
X171566667Y-30788152D01*
X171566667Y-30788152D02*
X171519048Y-30692914D01*
X171519048Y-30692914D02*
X171519048Y-30645295D01*
X171519048Y-30645295D02*
X171566667Y-30550057D01*
X171566667Y-30550057D02*
X171614286Y-30502438D01*
X171614286Y-30502438D02*
X171709524Y-30454819D01*
X171709524Y-30454819D02*
X171900000Y-30454819D01*
X171900000Y-30454819D02*
X171995238Y-30502438D01*
X171995238Y-30502438D02*
X172042857Y-30550057D01*
X172042857Y-30550057D02*
X172090476Y-30645295D01*
X172090476Y-30645295D02*
X172090476Y-30692914D01*
X172090476Y-30692914D02*
X172042857Y-30788152D01*
X172042857Y-30788152D02*
X171995238Y-30835771D01*
X171995238Y-30835771D02*
X171900000Y-30883390D01*
X171900000Y-30883390D02*
X171709524Y-30883390D01*
X171709524Y-30883390D02*
X171614286Y-30931009D01*
X171614286Y-30931009D02*
X171566667Y-30978628D01*
X171566667Y-30978628D02*
X171519048Y-31073866D01*
X171519048Y-31073866D02*
X171519048Y-31264342D01*
X171519048Y-31264342D02*
X171566667Y-31359580D01*
X171566667Y-31359580D02*
X171614286Y-31407200D01*
X171614286Y-31407200D02*
X171709524Y-31454819D01*
X171709524Y-31454819D02*
X171900000Y-31454819D01*
X171900000Y-31454819D02*
X171995238Y-31407200D01*
X171995238Y-31407200D02*
X172042857Y-31359580D01*
X172042857Y-31359580D02*
X172090476Y-31264342D01*
X172090476Y-31264342D02*
X172090476Y-31073866D01*
X172090476Y-31073866D02*
X172042857Y-30978628D01*
X172042857Y-30978628D02*
X171995238Y-30931009D01*
X171995238Y-30931009D02*
X171900000Y-30883390D01*
X135328571Y-148954819D02*
X134995238Y-148478628D01*
X134757143Y-148954819D02*
X134757143Y-147954819D01*
X134757143Y-147954819D02*
X135138095Y-147954819D01*
X135138095Y-147954819D02*
X135233333Y-148002438D01*
X135233333Y-148002438D02*
X135280952Y-148050057D01*
X135280952Y-148050057D02*
X135328571Y-148145295D01*
X135328571Y-148145295D02*
X135328571Y-148288152D01*
X135328571Y-148288152D02*
X135280952Y-148383390D01*
X135280952Y-148383390D02*
X135233333Y-148431009D01*
X135233333Y-148431009D02*
X135138095Y-148478628D01*
X135138095Y-148478628D02*
X134757143Y-148478628D01*
X136233333Y-148954819D02*
X135757143Y-148954819D01*
X135757143Y-148954819D02*
X135757143Y-147954819D01*
X137042857Y-147954819D02*
X136566667Y-147954819D01*
X136566667Y-147954819D02*
X136519048Y-148431009D01*
X136519048Y-148431009D02*
X136566667Y-148383390D01*
X136566667Y-148383390D02*
X136661905Y-148335771D01*
X136661905Y-148335771D02*
X136900000Y-148335771D01*
X136900000Y-148335771D02*
X136995238Y-148383390D01*
X136995238Y-148383390D02*
X137042857Y-148431009D01*
X137042857Y-148431009D02*
X137090476Y-148526247D01*
X137090476Y-148526247D02*
X137090476Y-148764342D01*
X137090476Y-148764342D02*
X137042857Y-148859580D01*
X137042857Y-148859580D02*
X136995238Y-148907200D01*
X136995238Y-148907200D02*
X136900000Y-148954819D01*
X136900000Y-148954819D02*
X136661905Y-148954819D01*
X136661905Y-148954819D02*
X136566667Y-148907200D01*
X136566667Y-148907200D02*
X136519048Y-148859580D01*
X239852380Y-148954819D02*
X239519047Y-148478628D01*
X239280952Y-148954819D02*
X239280952Y-147954819D01*
X239280952Y-147954819D02*
X239661904Y-147954819D01*
X239661904Y-147954819D02*
X239757142Y-148002438D01*
X239757142Y-148002438D02*
X239804761Y-148050057D01*
X239804761Y-148050057D02*
X239852380Y-148145295D01*
X239852380Y-148145295D02*
X239852380Y-148288152D01*
X239852380Y-148288152D02*
X239804761Y-148383390D01*
X239804761Y-148383390D02*
X239757142Y-148431009D01*
X239757142Y-148431009D02*
X239661904Y-148478628D01*
X239661904Y-148478628D02*
X239280952Y-148478628D01*
X240757142Y-148954819D02*
X240280952Y-148954819D01*
X240280952Y-148954819D02*
X240280952Y-147954819D01*
X241614285Y-148954819D02*
X241042857Y-148954819D01*
X241328571Y-148954819D02*
X241328571Y-147954819D01*
X241328571Y-147954819D02*
X241233333Y-148097676D01*
X241233333Y-148097676D02*
X241138095Y-148192914D01*
X241138095Y-148192914D02*
X241042857Y-148240533D01*
X242566666Y-148954819D02*
X241995238Y-148954819D01*
X242280952Y-148954819D02*
X242280952Y-147954819D01*
X242280952Y-147954819D02*
X242185714Y-148097676D01*
X242185714Y-148097676D02*
X242090476Y-148192914D01*
X242090476Y-148192914D02*
X241995238Y-148240533D01*
X65328571Y-148954819D02*
X64995238Y-148478628D01*
X64757143Y-148954819D02*
X64757143Y-147954819D01*
X64757143Y-147954819D02*
X65138095Y-147954819D01*
X65138095Y-147954819D02*
X65233333Y-148002438D01*
X65233333Y-148002438D02*
X65280952Y-148050057D01*
X65280952Y-148050057D02*
X65328571Y-148145295D01*
X65328571Y-148145295D02*
X65328571Y-148288152D01*
X65328571Y-148288152D02*
X65280952Y-148383390D01*
X65280952Y-148383390D02*
X65233333Y-148431009D01*
X65233333Y-148431009D02*
X65138095Y-148478628D01*
X65138095Y-148478628D02*
X64757143Y-148478628D01*
X66233333Y-148954819D02*
X65757143Y-148954819D01*
X65757143Y-148954819D02*
X65757143Y-147954819D01*
X67090476Y-148954819D02*
X66519048Y-148954819D01*
X66804762Y-148954819D02*
X66804762Y-147954819D01*
X66804762Y-147954819D02*
X66709524Y-148097676D01*
X66709524Y-148097676D02*
X66614286Y-148192914D01*
X66614286Y-148192914D02*
X66519048Y-148240533D01*
X44928571Y-27931009D02*
X44595238Y-27931009D01*
X44595238Y-28454819D02*
X44595238Y-27454819D01*
X44595238Y-27454819D02*
X45071428Y-27454819D01*
X45452381Y-28454819D02*
X45452381Y-27454819D01*
X45928571Y-28454819D02*
X45928571Y-27454819D01*
X45928571Y-27454819D02*
X46166666Y-27454819D01*
X46166666Y-27454819D02*
X46309523Y-27502438D01*
X46309523Y-27502438D02*
X46404761Y-27597676D01*
X46404761Y-27597676D02*
X46452380Y-27692914D01*
X46452380Y-27692914D02*
X46499999Y-27883390D01*
X46499999Y-27883390D02*
X46499999Y-28026247D01*
X46499999Y-28026247D02*
X46452380Y-28216723D01*
X46452380Y-28216723D02*
X46404761Y-28311961D01*
X46404761Y-28311961D02*
X46309523Y-28407200D01*
X46309523Y-28407200D02*
X46166666Y-28454819D01*
X46166666Y-28454819D02*
X45928571Y-28454819D01*
X47452380Y-28454819D02*
X46880952Y-28454819D01*
X47166666Y-28454819D02*
X47166666Y-27454819D01*
X47166666Y-27454819D02*
X47071428Y-27597676D01*
X47071428Y-27597676D02*
X46976190Y-27692914D01*
X46976190Y-27692914D02*
X46880952Y-27740533D01*
X65328571Y-31454819D02*
X64995238Y-30978628D01*
X64757143Y-31454819D02*
X64757143Y-30454819D01*
X64757143Y-30454819D02*
X65138095Y-30454819D01*
X65138095Y-30454819D02*
X65233333Y-30502438D01*
X65233333Y-30502438D02*
X65280952Y-30550057D01*
X65280952Y-30550057D02*
X65328571Y-30645295D01*
X65328571Y-30645295D02*
X65328571Y-30788152D01*
X65328571Y-30788152D02*
X65280952Y-30883390D01*
X65280952Y-30883390D02*
X65233333Y-30931009D01*
X65233333Y-30931009D02*
X65138095Y-30978628D01*
X65138095Y-30978628D02*
X64757143Y-30978628D01*
X66233333Y-31454819D02*
X65757143Y-31454819D01*
X65757143Y-31454819D02*
X65757143Y-30454819D01*
X66519048Y-30550057D02*
X66566667Y-30502438D01*
X66566667Y-30502438D02*
X66661905Y-30454819D01*
X66661905Y-30454819D02*
X66900000Y-30454819D01*
X66900000Y-30454819D02*
X66995238Y-30502438D01*
X66995238Y-30502438D02*
X67042857Y-30550057D01*
X67042857Y-30550057D02*
X67090476Y-30645295D01*
X67090476Y-30645295D02*
X67090476Y-30740533D01*
X67090476Y-30740533D02*
X67042857Y-30883390D01*
X67042857Y-30883390D02*
X66471429Y-31454819D01*
X66471429Y-31454819D02*
X67090476Y-31454819D01*
X40666666Y-37954819D02*
X40666666Y-38669104D01*
X40666666Y-38669104D02*
X40619047Y-38811961D01*
X40619047Y-38811961D02*
X40523809Y-38907200D01*
X40523809Y-38907200D02*
X40380952Y-38954819D01*
X40380952Y-38954819D02*
X40285714Y-38954819D01*
X41095238Y-38050057D02*
X41142857Y-38002438D01*
X41142857Y-38002438D02*
X41238095Y-37954819D01*
X41238095Y-37954819D02*
X41476190Y-37954819D01*
X41476190Y-37954819D02*
X41571428Y-38002438D01*
X41571428Y-38002438D02*
X41619047Y-38050057D01*
X41619047Y-38050057D02*
X41666666Y-38145295D01*
X41666666Y-38145295D02*
X41666666Y-38240533D01*
X41666666Y-38240533D02*
X41619047Y-38383390D01*
X41619047Y-38383390D02*
X41047619Y-38954819D01*
X41047619Y-38954819D02*
X41666666Y-38954819D01*
D11*
X48409638Y-64809524D02*
X48409638Y-64428571D01*
X48409638Y-64428571D02*
X48504876Y-64238095D01*
X48504876Y-64238095D02*
X48695352Y-64047619D01*
X48695352Y-64047619D02*
X49076304Y-63952381D01*
X49076304Y-63952381D02*
X49742971Y-63952381D01*
X49742971Y-63952381D02*
X50123923Y-64047619D01*
X50123923Y-64047619D02*
X50314400Y-64238095D01*
X50314400Y-64238095D02*
X50409638Y-64428571D01*
X50409638Y-64428571D02*
X50409638Y-64809524D01*
X50409638Y-64809524D02*
X50314400Y-65000000D01*
X50314400Y-65000000D02*
X50123923Y-65190476D01*
X50123923Y-65190476D02*
X49742971Y-65285714D01*
X49742971Y-65285714D02*
X49076304Y-65285714D01*
X49076304Y-65285714D02*
X48695352Y-65190476D01*
X48695352Y-65190476D02*
X48504876Y-65000000D01*
X48504876Y-65000000D02*
X48409638Y-64809524D01*
X48409638Y-63095238D02*
X50028685Y-63095238D01*
X50028685Y-63095238D02*
X50219161Y-63000000D01*
X50219161Y-63000000D02*
X50314400Y-62904762D01*
X50314400Y-62904762D02*
X50409638Y-62714286D01*
X50409638Y-62714286D02*
X50409638Y-62333333D01*
X50409638Y-62333333D02*
X50314400Y-62142857D01*
X50314400Y-62142857D02*
X50219161Y-62047619D01*
X50219161Y-62047619D02*
X50028685Y-61952381D01*
X50028685Y-61952381D02*
X48409638Y-61952381D01*
X48409638Y-61285714D02*
X48409638Y-60142857D01*
X50409638Y-60714286D02*
X48409638Y-60714286D01*
X50409638Y-59476190D02*
X48409638Y-59476190D01*
X48409638Y-59476190D02*
X48409638Y-58714285D01*
X48409638Y-58714285D02*
X48504876Y-58523809D01*
X48504876Y-58523809D02*
X48600114Y-58428571D01*
X48600114Y-58428571D02*
X48790590Y-58333333D01*
X48790590Y-58333333D02*
X49076304Y-58333333D01*
X49076304Y-58333333D02*
X49266780Y-58428571D01*
X49266780Y-58428571D02*
X49362019Y-58523809D01*
X49362019Y-58523809D02*
X49457257Y-58714285D01*
X49457257Y-58714285D02*
X49457257Y-59476190D01*
X48409638Y-57476190D02*
X50028685Y-57476190D01*
X50028685Y-57476190D02*
X50219161Y-57380952D01*
X50219161Y-57380952D02*
X50314400Y-57285714D01*
X50314400Y-57285714D02*
X50409638Y-57095238D01*
X50409638Y-57095238D02*
X50409638Y-56714285D01*
X50409638Y-56714285D02*
X50314400Y-56523809D01*
X50314400Y-56523809D02*
X50219161Y-56428571D01*
X50219161Y-56428571D02*
X50028685Y-56333333D01*
X50028685Y-56333333D02*
X48409638Y-56333333D01*
X48409638Y-55666666D02*
X48409638Y-54523809D01*
X50409638Y-55095238D02*
X48409638Y-55095238D01*
D13*
X261454819Y-89833333D02*
X262169104Y-89833333D01*
X262169104Y-89833333D02*
X262311961Y-89880952D01*
X262311961Y-89880952D02*
X262407200Y-89976190D01*
X262407200Y-89976190D02*
X262454819Y-90119047D01*
X262454819Y-90119047D02*
X262454819Y-90214285D01*
X262454819Y-88833333D02*
X262454819Y-89404761D01*
X262454819Y-89119047D02*
X261454819Y-89119047D01*
X261454819Y-89119047D02*
X261597676Y-89214285D01*
X261597676Y-89214285D02*
X261692914Y-89309523D01*
X261692914Y-89309523D02*
X261740533Y-89404761D01*
D11*
X243647733Y-99690475D02*
X243647733Y-98166666D01*
X243647733Y-97214285D02*
X243647733Y-95690476D01*
X244409638Y-92166666D02*
X244409638Y-93309523D01*
X244409638Y-92738095D02*
X242409638Y-92738095D01*
X242409638Y-92738095D02*
X242695352Y-92928571D01*
X242695352Y-92928571D02*
X242885828Y-93119047D01*
X242885828Y-93119047D02*
X242981066Y-93309523D01*
X242409638Y-90452380D02*
X242409638Y-90833333D01*
X242409638Y-90833333D02*
X242504876Y-91023809D01*
X242504876Y-91023809D02*
X242600114Y-91119047D01*
X242600114Y-91119047D02*
X242885828Y-91309523D01*
X242885828Y-91309523D02*
X243266780Y-91404761D01*
X243266780Y-91404761D02*
X244028685Y-91404761D01*
X244028685Y-91404761D02*
X244219161Y-91309523D01*
X244219161Y-91309523D02*
X244314400Y-91214285D01*
X244314400Y-91214285D02*
X244409638Y-91023809D01*
X244409638Y-91023809D02*
X244409638Y-90642856D01*
X244409638Y-90642856D02*
X244314400Y-90452380D01*
X244314400Y-90452380D02*
X244219161Y-90357142D01*
X244219161Y-90357142D02*
X244028685Y-90261904D01*
X244028685Y-90261904D02*
X243552495Y-90261904D01*
X243552495Y-90261904D02*
X243362019Y-90357142D01*
X243362019Y-90357142D02*
X243266780Y-90452380D01*
X243266780Y-90452380D02*
X243171542Y-90642856D01*
X243171542Y-90642856D02*
X243171542Y-91023809D01*
X243171542Y-91023809D02*
X243266780Y-91214285D01*
X243266780Y-91214285D02*
X243362019Y-91309523D01*
X243362019Y-91309523D02*
X243552495Y-91404761D01*
X242409638Y-89023809D02*
X242409638Y-88833332D01*
X242409638Y-88833332D02*
X242504876Y-88642856D01*
X242504876Y-88642856D02*
X242600114Y-88547618D01*
X242600114Y-88547618D02*
X242790590Y-88452380D01*
X242790590Y-88452380D02*
X243171542Y-88357142D01*
X243171542Y-88357142D02*
X243647733Y-88357142D01*
X243647733Y-88357142D02*
X244028685Y-88452380D01*
X244028685Y-88452380D02*
X244219161Y-88547618D01*
X244219161Y-88547618D02*
X244314400Y-88642856D01*
X244314400Y-88642856D02*
X244409638Y-88833332D01*
X244409638Y-88833332D02*
X244409638Y-89023809D01*
X244409638Y-89023809D02*
X244314400Y-89214285D01*
X244314400Y-89214285D02*
X244219161Y-89309523D01*
X244219161Y-89309523D02*
X244028685Y-89404761D01*
X244028685Y-89404761D02*
X243647733Y-89499999D01*
X243647733Y-89499999D02*
X243171542Y-89499999D01*
X243171542Y-89499999D02*
X242790590Y-89404761D01*
X242790590Y-89404761D02*
X242600114Y-89309523D01*
X242600114Y-89309523D02*
X242504876Y-89214285D01*
X242504876Y-89214285D02*
X242409638Y-89023809D01*
X244409638Y-87499999D02*
X243076304Y-87499999D01*
X243266780Y-87499999D02*
X243171542Y-87404761D01*
X243171542Y-87404761D02*
X243076304Y-87214285D01*
X243076304Y-87214285D02*
X243076304Y-86928570D01*
X243076304Y-86928570D02*
X243171542Y-86738094D01*
X243171542Y-86738094D02*
X243362019Y-86642856D01*
X243362019Y-86642856D02*
X244409638Y-86642856D01*
X243362019Y-86642856D02*
X243171542Y-86547618D01*
X243171542Y-86547618D02*
X243076304Y-86357142D01*
X243076304Y-86357142D02*
X243076304Y-86071428D01*
X243076304Y-86071428D02*
X243171542Y-85880951D01*
X243171542Y-85880951D02*
X243362019Y-85785713D01*
X243362019Y-85785713D02*
X244409638Y-85785713D01*
X243647733Y-83309522D02*
X243647733Y-81785713D01*
X243647733Y-80833332D02*
X243647733Y-79309523D01*
X185647733Y-98738094D02*
X185647733Y-97214285D01*
X185647733Y-96261904D02*
X185647733Y-94738095D01*
X185076304Y-91404761D02*
X186409638Y-91404761D01*
X184314400Y-91880952D02*
X185742971Y-92357142D01*
X185742971Y-92357142D02*
X185742971Y-91119047D01*
X184409638Y-89976190D02*
X184409638Y-89785713D01*
X184409638Y-89785713D02*
X184504876Y-89595237D01*
X184504876Y-89595237D02*
X184600114Y-89499999D01*
X184600114Y-89499999D02*
X184790590Y-89404761D01*
X184790590Y-89404761D02*
X185171542Y-89309523D01*
X185171542Y-89309523D02*
X185647733Y-89309523D01*
X185647733Y-89309523D02*
X186028685Y-89404761D01*
X186028685Y-89404761D02*
X186219161Y-89499999D01*
X186219161Y-89499999D02*
X186314400Y-89595237D01*
X186314400Y-89595237D02*
X186409638Y-89785713D01*
X186409638Y-89785713D02*
X186409638Y-89976190D01*
X186409638Y-89976190D02*
X186314400Y-90166666D01*
X186314400Y-90166666D02*
X186219161Y-90261904D01*
X186219161Y-90261904D02*
X186028685Y-90357142D01*
X186028685Y-90357142D02*
X185647733Y-90452380D01*
X185647733Y-90452380D02*
X185171542Y-90452380D01*
X185171542Y-90452380D02*
X184790590Y-90357142D01*
X184790590Y-90357142D02*
X184600114Y-90261904D01*
X184600114Y-90261904D02*
X184504876Y-90166666D01*
X184504876Y-90166666D02*
X184409638Y-89976190D01*
X186409638Y-88452380D02*
X185076304Y-88452380D01*
X185266780Y-88452380D02*
X185171542Y-88357142D01*
X185171542Y-88357142D02*
X185076304Y-88166666D01*
X185076304Y-88166666D02*
X185076304Y-87880951D01*
X185076304Y-87880951D02*
X185171542Y-87690475D01*
X185171542Y-87690475D02*
X185362019Y-87595237D01*
X185362019Y-87595237D02*
X186409638Y-87595237D01*
X185362019Y-87595237D02*
X185171542Y-87499999D01*
X185171542Y-87499999D02*
X185076304Y-87309523D01*
X185076304Y-87309523D02*
X185076304Y-87023809D01*
X185076304Y-87023809D02*
X185171542Y-86833332D01*
X185171542Y-86833332D02*
X185362019Y-86738094D01*
X185362019Y-86738094D02*
X186409638Y-86738094D01*
X185647733Y-84261903D02*
X185647733Y-82738094D01*
X185647733Y-81785713D02*
X185647733Y-80261904D01*
X214647733Y-98738094D02*
X214647733Y-97214285D01*
X214647733Y-96261904D02*
X214647733Y-94738095D01*
X214266780Y-91976190D02*
X214171542Y-92166666D01*
X214171542Y-92166666D02*
X214076304Y-92261904D01*
X214076304Y-92261904D02*
X213885828Y-92357142D01*
X213885828Y-92357142D02*
X213790590Y-92357142D01*
X213790590Y-92357142D02*
X213600114Y-92261904D01*
X213600114Y-92261904D02*
X213504876Y-92166666D01*
X213504876Y-92166666D02*
X213409638Y-91976190D01*
X213409638Y-91976190D02*
X213409638Y-91595237D01*
X213409638Y-91595237D02*
X213504876Y-91404761D01*
X213504876Y-91404761D02*
X213600114Y-91309523D01*
X213600114Y-91309523D02*
X213790590Y-91214285D01*
X213790590Y-91214285D02*
X213885828Y-91214285D01*
X213885828Y-91214285D02*
X214076304Y-91309523D01*
X214076304Y-91309523D02*
X214171542Y-91404761D01*
X214171542Y-91404761D02*
X214266780Y-91595237D01*
X214266780Y-91595237D02*
X214266780Y-91976190D01*
X214266780Y-91976190D02*
X214362019Y-92166666D01*
X214362019Y-92166666D02*
X214457257Y-92261904D01*
X214457257Y-92261904D02*
X214647733Y-92357142D01*
X214647733Y-92357142D02*
X215028685Y-92357142D01*
X215028685Y-92357142D02*
X215219161Y-92261904D01*
X215219161Y-92261904D02*
X215314400Y-92166666D01*
X215314400Y-92166666D02*
X215409638Y-91976190D01*
X215409638Y-91976190D02*
X215409638Y-91595237D01*
X215409638Y-91595237D02*
X215314400Y-91404761D01*
X215314400Y-91404761D02*
X215219161Y-91309523D01*
X215219161Y-91309523D02*
X215028685Y-91214285D01*
X215028685Y-91214285D02*
X214647733Y-91214285D01*
X214647733Y-91214285D02*
X214457257Y-91309523D01*
X214457257Y-91309523D02*
X214362019Y-91404761D01*
X214362019Y-91404761D02*
X214266780Y-91595237D01*
X213409638Y-89976190D02*
X213409638Y-89785713D01*
X213409638Y-89785713D02*
X213504876Y-89595237D01*
X213504876Y-89595237D02*
X213600114Y-89499999D01*
X213600114Y-89499999D02*
X213790590Y-89404761D01*
X213790590Y-89404761D02*
X214171542Y-89309523D01*
X214171542Y-89309523D02*
X214647733Y-89309523D01*
X214647733Y-89309523D02*
X215028685Y-89404761D01*
X215028685Y-89404761D02*
X215219161Y-89499999D01*
X215219161Y-89499999D02*
X215314400Y-89595237D01*
X215314400Y-89595237D02*
X215409638Y-89785713D01*
X215409638Y-89785713D02*
X215409638Y-89976190D01*
X215409638Y-89976190D02*
X215314400Y-90166666D01*
X215314400Y-90166666D02*
X215219161Y-90261904D01*
X215219161Y-90261904D02*
X215028685Y-90357142D01*
X215028685Y-90357142D02*
X214647733Y-90452380D01*
X214647733Y-90452380D02*
X214171542Y-90452380D01*
X214171542Y-90452380D02*
X213790590Y-90357142D01*
X213790590Y-90357142D02*
X213600114Y-90261904D01*
X213600114Y-90261904D02*
X213504876Y-90166666D01*
X213504876Y-90166666D02*
X213409638Y-89976190D01*
X215409638Y-88452380D02*
X214076304Y-88452380D01*
X214266780Y-88452380D02*
X214171542Y-88357142D01*
X214171542Y-88357142D02*
X214076304Y-88166666D01*
X214076304Y-88166666D02*
X214076304Y-87880951D01*
X214076304Y-87880951D02*
X214171542Y-87690475D01*
X214171542Y-87690475D02*
X214362019Y-87595237D01*
X214362019Y-87595237D02*
X215409638Y-87595237D01*
X214362019Y-87595237D02*
X214171542Y-87499999D01*
X214171542Y-87499999D02*
X214076304Y-87309523D01*
X214076304Y-87309523D02*
X214076304Y-87023809D01*
X214076304Y-87023809D02*
X214171542Y-86833332D01*
X214171542Y-86833332D02*
X214362019Y-86738094D01*
X214362019Y-86738094D02*
X215409638Y-86738094D01*
X214647733Y-84261903D02*
X214647733Y-82738094D01*
X214647733Y-81785713D02*
X214647733Y-80261904D01*
X127647733Y-101690475D02*
X127647733Y-100166666D01*
X127647733Y-99214285D02*
X127647733Y-97690476D01*
X128409638Y-94166666D02*
X128409638Y-95309523D01*
X128409638Y-94738095D02*
X126409638Y-94738095D01*
X126409638Y-94738095D02*
X126695352Y-94928571D01*
X126695352Y-94928571D02*
X126885828Y-95119047D01*
X126885828Y-95119047D02*
X126981066Y-95309523D01*
X126409638Y-93499999D02*
X126409638Y-92166666D01*
X126409638Y-92166666D02*
X128409638Y-93023809D01*
X126314400Y-89976190D02*
X128885828Y-91690475D01*
X128409638Y-88261904D02*
X128409638Y-89404761D01*
X128409638Y-88833333D02*
X126409638Y-88833333D01*
X126409638Y-88833333D02*
X126695352Y-89023809D01*
X126695352Y-89023809D02*
X126885828Y-89214285D01*
X126885828Y-89214285D02*
X126981066Y-89404761D01*
X126409638Y-86452380D02*
X126409638Y-87404761D01*
X126409638Y-87404761D02*
X127362019Y-87499999D01*
X127362019Y-87499999D02*
X127266780Y-87404761D01*
X127266780Y-87404761D02*
X127171542Y-87214285D01*
X127171542Y-87214285D02*
X127171542Y-86738094D01*
X127171542Y-86738094D02*
X127266780Y-86547618D01*
X127266780Y-86547618D02*
X127362019Y-86452380D01*
X127362019Y-86452380D02*
X127552495Y-86357142D01*
X127552495Y-86357142D02*
X128028685Y-86357142D01*
X128028685Y-86357142D02*
X128219161Y-86452380D01*
X128219161Y-86452380D02*
X128314400Y-86547618D01*
X128314400Y-86547618D02*
X128409638Y-86738094D01*
X128409638Y-86738094D02*
X128409638Y-87214285D01*
X128409638Y-87214285D02*
X128314400Y-87404761D01*
X128314400Y-87404761D02*
X128219161Y-87499999D01*
X128409638Y-85499999D02*
X127076304Y-85499999D01*
X127266780Y-85499999D02*
X127171542Y-85404761D01*
X127171542Y-85404761D02*
X127076304Y-85214285D01*
X127076304Y-85214285D02*
X127076304Y-84928570D01*
X127076304Y-84928570D02*
X127171542Y-84738094D01*
X127171542Y-84738094D02*
X127362019Y-84642856D01*
X127362019Y-84642856D02*
X128409638Y-84642856D01*
X127362019Y-84642856D02*
X127171542Y-84547618D01*
X127171542Y-84547618D02*
X127076304Y-84357142D01*
X127076304Y-84357142D02*
X127076304Y-84071428D01*
X127076304Y-84071428D02*
X127171542Y-83880951D01*
X127171542Y-83880951D02*
X127362019Y-83785713D01*
X127362019Y-83785713D02*
X128409638Y-83785713D01*
X127647733Y-81309522D02*
X127647733Y-79785713D01*
X127647733Y-78833332D02*
X127647733Y-77309523D01*
X98647733Y-101690475D02*
X98647733Y-100166666D01*
X98647733Y-99214285D02*
X98647733Y-97690476D01*
X99409638Y-94166666D02*
X99409638Y-95309523D01*
X99409638Y-94738095D02*
X97409638Y-94738095D01*
X97409638Y-94738095D02*
X97695352Y-94928571D01*
X97695352Y-94928571D02*
X97885828Y-95119047D01*
X97885828Y-95119047D02*
X97981066Y-95309523D01*
X97600114Y-93404761D02*
X97504876Y-93309523D01*
X97504876Y-93309523D02*
X97409638Y-93119047D01*
X97409638Y-93119047D02*
X97409638Y-92642856D01*
X97409638Y-92642856D02*
X97504876Y-92452380D01*
X97504876Y-92452380D02*
X97600114Y-92357142D01*
X97600114Y-92357142D02*
X97790590Y-92261904D01*
X97790590Y-92261904D02*
X97981066Y-92261904D01*
X97981066Y-92261904D02*
X98266780Y-92357142D01*
X98266780Y-92357142D02*
X99409638Y-93499999D01*
X99409638Y-93499999D02*
X99409638Y-92261904D01*
X97314400Y-89976190D02*
X99885828Y-91690475D01*
X99409638Y-88261904D02*
X99409638Y-89404761D01*
X99409638Y-88833333D02*
X97409638Y-88833333D01*
X97409638Y-88833333D02*
X97695352Y-89023809D01*
X97695352Y-89023809D02*
X97885828Y-89214285D01*
X97885828Y-89214285D02*
X97981066Y-89404761D01*
X97409638Y-87023809D02*
X97409638Y-86833332D01*
X97409638Y-86833332D02*
X97504876Y-86642856D01*
X97504876Y-86642856D02*
X97600114Y-86547618D01*
X97600114Y-86547618D02*
X97790590Y-86452380D01*
X97790590Y-86452380D02*
X98171542Y-86357142D01*
X98171542Y-86357142D02*
X98647733Y-86357142D01*
X98647733Y-86357142D02*
X99028685Y-86452380D01*
X99028685Y-86452380D02*
X99219161Y-86547618D01*
X99219161Y-86547618D02*
X99314400Y-86642856D01*
X99314400Y-86642856D02*
X99409638Y-86833332D01*
X99409638Y-86833332D02*
X99409638Y-87023809D01*
X99409638Y-87023809D02*
X99314400Y-87214285D01*
X99314400Y-87214285D02*
X99219161Y-87309523D01*
X99219161Y-87309523D02*
X99028685Y-87404761D01*
X99028685Y-87404761D02*
X98647733Y-87499999D01*
X98647733Y-87499999D02*
X98171542Y-87499999D01*
X98171542Y-87499999D02*
X97790590Y-87404761D01*
X97790590Y-87404761D02*
X97600114Y-87309523D01*
X97600114Y-87309523D02*
X97504876Y-87214285D01*
X97504876Y-87214285D02*
X97409638Y-87023809D01*
X99409638Y-85499999D02*
X98076304Y-85499999D01*
X98266780Y-85499999D02*
X98171542Y-85404761D01*
X98171542Y-85404761D02*
X98076304Y-85214285D01*
X98076304Y-85214285D02*
X98076304Y-84928570D01*
X98076304Y-84928570D02*
X98171542Y-84738094D01*
X98171542Y-84738094D02*
X98362019Y-84642856D01*
X98362019Y-84642856D02*
X99409638Y-84642856D01*
X98362019Y-84642856D02*
X98171542Y-84547618D01*
X98171542Y-84547618D02*
X98076304Y-84357142D01*
X98076304Y-84357142D02*
X98076304Y-84071428D01*
X98076304Y-84071428D02*
X98171542Y-83880951D01*
X98171542Y-83880951D02*
X98362019Y-83785713D01*
X98362019Y-83785713D02*
X99409638Y-83785713D01*
X98647733Y-81309522D02*
X98647733Y-79785713D01*
X98647733Y-78833332D02*
X98647733Y-77309523D01*
X156647733Y-101690475D02*
X156647733Y-100166666D01*
X156647733Y-99214285D02*
X156647733Y-97690476D01*
X155409638Y-95404761D02*
X155409638Y-94166666D01*
X155409638Y-94166666D02*
X156171542Y-94833333D01*
X156171542Y-94833333D02*
X156171542Y-94547618D01*
X156171542Y-94547618D02*
X156266780Y-94357142D01*
X156266780Y-94357142D02*
X156362019Y-94261904D01*
X156362019Y-94261904D02*
X156552495Y-94166666D01*
X156552495Y-94166666D02*
X157028685Y-94166666D01*
X157028685Y-94166666D02*
X157219161Y-94261904D01*
X157219161Y-94261904D02*
X157314400Y-94357142D01*
X157314400Y-94357142D02*
X157409638Y-94547618D01*
X157409638Y-94547618D02*
X157409638Y-95119047D01*
X157409638Y-95119047D02*
X157314400Y-95309523D01*
X157314400Y-95309523D02*
X157219161Y-95404761D01*
X155409638Y-92928571D02*
X155409638Y-92738094D01*
X155409638Y-92738094D02*
X155504876Y-92547618D01*
X155504876Y-92547618D02*
X155600114Y-92452380D01*
X155600114Y-92452380D02*
X155790590Y-92357142D01*
X155790590Y-92357142D02*
X156171542Y-92261904D01*
X156171542Y-92261904D02*
X156647733Y-92261904D01*
X156647733Y-92261904D02*
X157028685Y-92357142D01*
X157028685Y-92357142D02*
X157219161Y-92452380D01*
X157219161Y-92452380D02*
X157314400Y-92547618D01*
X157314400Y-92547618D02*
X157409638Y-92738094D01*
X157409638Y-92738094D02*
X157409638Y-92928571D01*
X157409638Y-92928571D02*
X157314400Y-93119047D01*
X157314400Y-93119047D02*
X157219161Y-93214285D01*
X157219161Y-93214285D02*
X157028685Y-93309523D01*
X157028685Y-93309523D02*
X156647733Y-93404761D01*
X156647733Y-93404761D02*
X156171542Y-93404761D01*
X156171542Y-93404761D02*
X155790590Y-93309523D01*
X155790590Y-93309523D02*
X155600114Y-93214285D01*
X155600114Y-93214285D02*
X155504876Y-93119047D01*
X155504876Y-93119047D02*
X155409638Y-92928571D01*
X155314400Y-89976190D02*
X157885828Y-91690475D01*
X155600114Y-89404761D02*
X155504876Y-89309523D01*
X155504876Y-89309523D02*
X155409638Y-89119047D01*
X155409638Y-89119047D02*
X155409638Y-88642856D01*
X155409638Y-88642856D02*
X155504876Y-88452380D01*
X155504876Y-88452380D02*
X155600114Y-88357142D01*
X155600114Y-88357142D02*
X155790590Y-88261904D01*
X155790590Y-88261904D02*
X155981066Y-88261904D01*
X155981066Y-88261904D02*
X156266780Y-88357142D01*
X156266780Y-88357142D02*
X157409638Y-89499999D01*
X157409638Y-89499999D02*
X157409638Y-88261904D01*
X155409638Y-87023809D02*
X155409638Y-86833332D01*
X155409638Y-86833332D02*
X155504876Y-86642856D01*
X155504876Y-86642856D02*
X155600114Y-86547618D01*
X155600114Y-86547618D02*
X155790590Y-86452380D01*
X155790590Y-86452380D02*
X156171542Y-86357142D01*
X156171542Y-86357142D02*
X156647733Y-86357142D01*
X156647733Y-86357142D02*
X157028685Y-86452380D01*
X157028685Y-86452380D02*
X157219161Y-86547618D01*
X157219161Y-86547618D02*
X157314400Y-86642856D01*
X157314400Y-86642856D02*
X157409638Y-86833332D01*
X157409638Y-86833332D02*
X157409638Y-87023809D01*
X157409638Y-87023809D02*
X157314400Y-87214285D01*
X157314400Y-87214285D02*
X157219161Y-87309523D01*
X157219161Y-87309523D02*
X157028685Y-87404761D01*
X157028685Y-87404761D02*
X156647733Y-87499999D01*
X156647733Y-87499999D02*
X156171542Y-87499999D01*
X156171542Y-87499999D02*
X155790590Y-87404761D01*
X155790590Y-87404761D02*
X155600114Y-87309523D01*
X155600114Y-87309523D02*
X155504876Y-87214285D01*
X155504876Y-87214285D02*
X155409638Y-87023809D01*
X157409638Y-85499999D02*
X156076304Y-85499999D01*
X156266780Y-85499999D02*
X156171542Y-85404761D01*
X156171542Y-85404761D02*
X156076304Y-85214285D01*
X156076304Y-85214285D02*
X156076304Y-84928570D01*
X156076304Y-84928570D02*
X156171542Y-84738094D01*
X156171542Y-84738094D02*
X156362019Y-84642856D01*
X156362019Y-84642856D02*
X157409638Y-84642856D01*
X156362019Y-84642856D02*
X156171542Y-84547618D01*
X156171542Y-84547618D02*
X156076304Y-84357142D01*
X156076304Y-84357142D02*
X156076304Y-84071428D01*
X156076304Y-84071428D02*
X156171542Y-83880951D01*
X156171542Y-83880951D02*
X156362019Y-83785713D01*
X156362019Y-83785713D02*
X157409638Y-83785713D01*
X156647733Y-81309522D02*
X156647733Y-79785713D01*
X156647733Y-78833332D02*
X156647733Y-77309523D01*
X69647733Y-97785713D02*
X69647733Y-96261904D01*
X69647733Y-95309523D02*
X69647733Y-93785714D01*
X68409638Y-90452380D02*
X68409638Y-90833333D01*
X68409638Y-90833333D02*
X68504876Y-91023809D01*
X68504876Y-91023809D02*
X68600114Y-91119047D01*
X68600114Y-91119047D02*
X68885828Y-91309523D01*
X68885828Y-91309523D02*
X69266780Y-91404761D01*
X69266780Y-91404761D02*
X70028685Y-91404761D01*
X70028685Y-91404761D02*
X70219161Y-91309523D01*
X70219161Y-91309523D02*
X70314400Y-91214285D01*
X70314400Y-91214285D02*
X70409638Y-91023809D01*
X70409638Y-91023809D02*
X70409638Y-90642856D01*
X70409638Y-90642856D02*
X70314400Y-90452380D01*
X70314400Y-90452380D02*
X70219161Y-90357142D01*
X70219161Y-90357142D02*
X70028685Y-90261904D01*
X70028685Y-90261904D02*
X69552495Y-90261904D01*
X69552495Y-90261904D02*
X69362019Y-90357142D01*
X69362019Y-90357142D02*
X69266780Y-90452380D01*
X69266780Y-90452380D02*
X69171542Y-90642856D01*
X69171542Y-90642856D02*
X69171542Y-91023809D01*
X69171542Y-91023809D02*
X69266780Y-91214285D01*
X69266780Y-91214285D02*
X69362019Y-91309523D01*
X69362019Y-91309523D02*
X69552495Y-91404761D01*
X70409638Y-89404761D02*
X69076304Y-89404761D01*
X69266780Y-89404761D02*
X69171542Y-89309523D01*
X69171542Y-89309523D02*
X69076304Y-89119047D01*
X69076304Y-89119047D02*
X69076304Y-88833332D01*
X69076304Y-88833332D02*
X69171542Y-88642856D01*
X69171542Y-88642856D02*
X69362019Y-88547618D01*
X69362019Y-88547618D02*
X70409638Y-88547618D01*
X69362019Y-88547618D02*
X69171542Y-88452380D01*
X69171542Y-88452380D02*
X69076304Y-88261904D01*
X69076304Y-88261904D02*
X69076304Y-87976190D01*
X69076304Y-87976190D02*
X69171542Y-87785713D01*
X69171542Y-87785713D02*
X69362019Y-87690475D01*
X69362019Y-87690475D02*
X70409638Y-87690475D01*
X69647733Y-85214284D02*
X69647733Y-83690475D01*
X69647733Y-82738094D02*
X69647733Y-81214285D01*
D14*
X148300000Y-32160000D02*
X150640000Y-32160000D01*
X150400000Y-45100000D02*
X150400000Y-32400000D01*
X148600000Y-39100000D02*
X148600000Y-38400000D01*
X147400000Y-38400000D02*
X147400000Y-39100000D01*
X147400000Y-39100000D02*
X148600000Y-39100000D01*
X148600000Y-38400000D02*
X147400000Y-38400000D01*
X121400000Y-45100000D02*
X150400000Y-45100000D01*
X150400000Y-32400000D02*
X121400000Y-32400000D01*
X147800000Y-38400000D02*
X148200000Y-39100000D01*
X121400000Y-32400000D02*
X121400000Y-45100000D01*
X150640000Y-32160000D02*
X150640000Y-34350000D01*
X253600000Y-39100000D02*
X253600000Y-38400000D01*
X226400000Y-32400000D02*
X226400000Y-45100000D01*
X255400000Y-45100000D02*
X255400000Y-32400000D01*
X252800000Y-38400000D02*
X253200000Y-39100000D01*
X253600000Y-38400000D02*
X252400000Y-38400000D01*
X253300000Y-32160000D02*
X255640000Y-32160000D01*
X252400000Y-38400000D02*
X252400000Y-39100000D01*
X255400000Y-32400000D02*
X226400000Y-32400000D01*
X255640000Y-32160000D02*
X255640000Y-34350000D01*
X252400000Y-39100000D02*
X253600000Y-39100000D01*
X226400000Y-45100000D02*
X255400000Y-45100000D01*
X156400000Y-134400000D02*
X156400000Y-147100000D01*
X156400000Y-147100000D02*
X185400000Y-147100000D01*
X185640000Y-134160000D02*
X185640000Y-136350000D01*
X185400000Y-147100000D02*
X185400000Y-134400000D01*
X182400000Y-141100000D02*
X183600000Y-141100000D01*
X183300000Y-134160000D02*
X185640000Y-134160000D01*
X185400000Y-134400000D02*
X156400000Y-134400000D01*
X183600000Y-141100000D02*
X183600000Y-140400000D01*
X182800000Y-140400000D02*
X183200000Y-141100000D01*
X183600000Y-140400000D02*
X182400000Y-140400000D01*
X182400000Y-140400000D02*
X182400000Y-141100000D01*
X112400000Y-141100000D02*
X113600000Y-141100000D01*
X115400000Y-134400000D02*
X86400000Y-134400000D01*
X112400000Y-140400000D02*
X112400000Y-141100000D01*
X86400000Y-134400000D02*
X86400000Y-147100000D01*
X113300000Y-134160000D02*
X115640000Y-134160000D01*
X112800000Y-140400000D02*
X113200000Y-141100000D01*
X115640000Y-134160000D02*
X115640000Y-136350000D01*
X115400000Y-147100000D02*
X115400000Y-134400000D01*
X113600000Y-141100000D02*
X113600000Y-140400000D01*
X86400000Y-147100000D02*
X115400000Y-147100000D01*
X113600000Y-140400000D02*
X112400000Y-140400000D01*
X191400000Y-45100000D02*
X220400000Y-45100000D01*
X218300000Y-32160000D02*
X220640000Y-32160000D01*
X218600000Y-38400000D02*
X217400000Y-38400000D01*
X218600000Y-39100000D02*
X218600000Y-38400000D01*
X220400000Y-45100000D02*
X220400000Y-32400000D01*
X191400000Y-32400000D02*
X191400000Y-45100000D01*
X217400000Y-39100000D02*
X218600000Y-39100000D01*
X217400000Y-38400000D02*
X217400000Y-39100000D01*
X220400000Y-32400000D02*
X191400000Y-32400000D01*
X220640000Y-32160000D02*
X220640000Y-34350000D01*
X217800000Y-38400000D02*
X218200000Y-39100000D01*
X115400000Y-45100000D02*
X115400000Y-32400000D01*
X112400000Y-39100000D02*
X113600000Y-39100000D01*
X112400000Y-38400000D02*
X112400000Y-39100000D01*
X113300000Y-32160000D02*
X115640000Y-32160000D01*
X115640000Y-32160000D02*
X115640000Y-34350000D01*
X115400000Y-32400000D02*
X86400000Y-32400000D01*
X86400000Y-45100000D02*
X115400000Y-45100000D01*
X112800000Y-38400000D02*
X113200000Y-39100000D01*
X113600000Y-39100000D02*
X113600000Y-38400000D01*
X86400000Y-32400000D02*
X86400000Y-45100000D01*
X113600000Y-38400000D02*
X112400000Y-38400000D01*
X218300000Y-134160000D02*
X220640000Y-134160000D01*
X191400000Y-147100000D02*
X220400000Y-147100000D01*
X220640000Y-134160000D02*
X220640000Y-136350000D01*
X218600000Y-140400000D02*
X217400000Y-140400000D01*
X217800000Y-140400000D02*
X218200000Y-141100000D01*
X220400000Y-147100000D02*
X220400000Y-134400000D01*
X220400000Y-134400000D02*
X191400000Y-134400000D01*
X217400000Y-141100000D02*
X218600000Y-141100000D01*
X191400000Y-134400000D02*
X191400000Y-147100000D01*
X218600000Y-141100000D02*
X218600000Y-140400000D01*
X217400000Y-140400000D02*
X217400000Y-141100000D01*
X182400000Y-38400000D02*
X182400000Y-39100000D01*
X185640000Y-32160000D02*
X185640000Y-34350000D01*
X182800000Y-38400000D02*
X183200000Y-39100000D01*
X183300000Y-32160000D02*
X185640000Y-32160000D01*
X185400000Y-45100000D02*
X185400000Y-32400000D01*
X183600000Y-39100000D02*
X183600000Y-38400000D01*
X182400000Y-39100000D02*
X183600000Y-39100000D01*
X183600000Y-38400000D02*
X182400000Y-38400000D01*
X156400000Y-32400000D02*
X156400000Y-45100000D01*
X185400000Y-32400000D02*
X156400000Y-32400000D01*
X156400000Y-45100000D02*
X185400000Y-45100000D01*
X147400000Y-140400000D02*
X147400000Y-141100000D01*
X150400000Y-134400000D02*
X121400000Y-134400000D01*
X148300000Y-134160000D02*
X150640000Y-134160000D01*
X148600000Y-141100000D02*
X148600000Y-140400000D01*
X150640000Y-134160000D02*
X150640000Y-136350000D01*
X121400000Y-147100000D02*
X150400000Y-147100000D01*
X150400000Y-147100000D02*
X150400000Y-134400000D01*
X147800000Y-140400000D02*
X148200000Y-141100000D01*
X147400000Y-141100000D02*
X148600000Y-141100000D01*
X121400000Y-134400000D02*
X121400000Y-147100000D01*
X148600000Y-140400000D02*
X147400000Y-140400000D01*
X253300000Y-134160000D02*
X255640000Y-134160000D01*
X253600000Y-140400000D02*
X252400000Y-140400000D01*
X255400000Y-147100000D02*
X255400000Y-134400000D01*
X226400000Y-134400000D02*
X226400000Y-147100000D01*
X226400000Y-147100000D02*
X255400000Y-147100000D01*
X253600000Y-141100000D02*
X253600000Y-140400000D01*
X255400000Y-134400000D02*
X226400000Y-134400000D01*
X255640000Y-134160000D02*
X255640000Y-136350000D01*
X252400000Y-140400000D02*
X252400000Y-141100000D01*
X252400000Y-141100000D02*
X253600000Y-141100000D01*
X252800000Y-140400000D02*
X253200000Y-141100000D01*
X77800000Y-140400000D02*
X78200000Y-141100000D01*
X78600000Y-141100000D02*
X78600000Y-140400000D01*
X78600000Y-140400000D02*
X77400000Y-140400000D01*
X77400000Y-140400000D02*
X77400000Y-141100000D01*
X78300000Y-134160000D02*
X80640000Y-134160000D01*
X51400000Y-147100000D02*
X80400000Y-147100000D01*
X80400000Y-147100000D02*
X80400000Y-134400000D01*
X80640000Y-134160000D02*
X80640000Y-136350000D01*
X77400000Y-141100000D02*
X78600000Y-141100000D01*
X80400000Y-134400000D02*
X51400000Y-134400000D01*
X51400000Y-134400000D02*
X51400000Y-147100000D01*
X80400000Y-32400000D02*
X51400000Y-32400000D01*
X78600000Y-39100000D02*
X78600000Y-38400000D01*
X77800000Y-38400000D02*
X78200000Y-39100000D01*
X78300000Y-32160000D02*
X80640000Y-32160000D01*
X78600000Y-38400000D02*
X77400000Y-38400000D01*
X51400000Y-45100000D02*
X80400000Y-45100000D01*
X51400000Y-32400000D02*
X51400000Y-45100000D01*
X80400000Y-45100000D02*
X80400000Y-32400000D01*
X77400000Y-39100000D02*
X78600000Y-39100000D01*
X77400000Y-38400000D02*
X77400000Y-39100000D01*
X80640000Y-32160000D02*
X80640000Y-34350000D01*
X257005000Y-92030000D02*
X257005000Y-94630000D01*
X259605000Y-92030000D02*
X257005000Y-92030000D01*
X259605000Y-94630000D02*
X258275000Y-94630000D01*
X259605000Y-92030000D02*
X259605000Y-84350000D01*
X259605000Y-93300000D02*
X259605000Y-94630000D01*
X254405000Y-94630000D02*
X254405000Y-84350000D01*
X259605000Y-84350000D02*
X254405000Y-84350000D01*
X257005000Y-94630000D02*
X254405000Y-94630000D01*
%LPC*%
D15*
X254000000Y-150000000D03*
D16*
X40000000Y-150000000D03*
X40000000Y-30000000D03*
D17*
X148000000Y-35000000D03*
D18*
X133000000Y-35000000D03*
X128000000Y-35000000D03*
X123000000Y-35000000D03*
X123000000Y-42500000D03*
X128000000Y-42500000D03*
X133000000Y-42500000D03*
X148000000Y-42500000D03*
D19*
X41000000Y-132000000D03*
D20*
X41000000Y-113000000D03*
D17*
X253000000Y-35000000D03*
D18*
X238000000Y-35000000D03*
X233000000Y-35000000D03*
X228000000Y-35000000D03*
X228000000Y-42500000D03*
X233000000Y-42500000D03*
X238000000Y-42500000D03*
X253000000Y-42500000D03*
D17*
X183000000Y-137000000D03*
D18*
X168000000Y-137000000D03*
X163000000Y-137000000D03*
X158000000Y-137000000D03*
X158000000Y-144500000D03*
X163000000Y-144500000D03*
X168000000Y-144500000D03*
X183000000Y-144500000D03*
D16*
X260000000Y-150000000D03*
D17*
X113000000Y-137000000D03*
D18*
X98000000Y-137000000D03*
X93000000Y-137000000D03*
X88000000Y-137000000D03*
X88000000Y-144500000D03*
X93000000Y-144500000D03*
X98000000Y-144500000D03*
X113000000Y-144500000D03*
D17*
X218000000Y-35000000D03*
D18*
X203000000Y-35000000D03*
X198000000Y-35000000D03*
X193000000Y-35000000D03*
X193000000Y-42500000D03*
X198000000Y-42500000D03*
X203000000Y-42500000D03*
X218000000Y-42500000D03*
D17*
X113000000Y-35000000D03*
D18*
X98000000Y-35000000D03*
X93000000Y-35000000D03*
X88000000Y-35000000D03*
X88000000Y-42500000D03*
X93000000Y-42500000D03*
X98000000Y-42500000D03*
X113000000Y-42500000D03*
D17*
X218000000Y-137000000D03*
D18*
X203000000Y-137000000D03*
X198000000Y-137000000D03*
X193000000Y-137000000D03*
X193000000Y-144500000D03*
X198000000Y-144500000D03*
X203000000Y-144500000D03*
X218000000Y-144500000D03*
D17*
X183000000Y-35000000D03*
D18*
X168000000Y-35000000D03*
X163000000Y-35000000D03*
X158000000Y-35000000D03*
X158000000Y-42500000D03*
X163000000Y-42500000D03*
X168000000Y-42500000D03*
X183000000Y-42500000D03*
D16*
X260000000Y-30000000D03*
D17*
X148000000Y-137000000D03*
D18*
X133000000Y-137000000D03*
X128000000Y-137000000D03*
X123000000Y-137000000D03*
X123000000Y-144500000D03*
X128000000Y-144500000D03*
X133000000Y-144500000D03*
X148000000Y-144500000D03*
D17*
X253000000Y-137000000D03*
D18*
X238000000Y-137000000D03*
X233000000Y-137000000D03*
X228000000Y-137000000D03*
X228000000Y-144500000D03*
X233000000Y-144500000D03*
X238000000Y-144500000D03*
X253000000Y-144500000D03*
D17*
X78000000Y-137000000D03*
D18*
X63000000Y-137000000D03*
X58000000Y-137000000D03*
X53000000Y-137000000D03*
X53000000Y-144500000D03*
X58000000Y-144500000D03*
X63000000Y-144500000D03*
X78000000Y-144500000D03*
D15*
X46000000Y-30000000D03*
D17*
X78000000Y-35000000D03*
D18*
X63000000Y-35000000D03*
X58000000Y-35000000D03*
X53000000Y-35000000D03*
X53000000Y-42500000D03*
X58000000Y-42500000D03*
X63000000Y-42500000D03*
X78000000Y-42500000D03*
D21*
X41000000Y-48000000D03*
D22*
X41000000Y-67000000D03*
D23*
X258275000Y-93300000D03*
D24*
X255735000Y-93300000D03*
X258275000Y-90760000D03*
X255735000Y-90760000D03*
X258275000Y-88220000D03*
X255735000Y-88220000D03*
X258275000Y-85680000D03*
X255735000Y-85680000D03*
D25*
X236500000Y-50500000D03*
X236500000Y-57000000D03*
X230000000Y-122000000D03*
X230000000Y-128500000D03*
X230000000Y-85500000D03*
X236500000Y-93500000D03*
X178500000Y-50500000D03*
X178500000Y-57000000D03*
X172000000Y-128500000D03*
X172000000Y-122000000D03*
X178500000Y-93500000D03*
X172000000Y-85500000D03*
X207500000Y-57000000D03*
X207500000Y-50500000D03*
X201000000Y-128500000D03*
X201000000Y-122000000D03*
X201000000Y-85500000D03*
X207500000Y-93500000D03*
X120500000Y-50500000D03*
X120500000Y-57000000D03*
X114000000Y-122000000D03*
X114000000Y-128500000D03*
X114000000Y-85500000D03*
X120500000Y-93500000D03*
X91500000Y-63500000D03*
X91500000Y-70000000D03*
X85000000Y-109000000D03*
X85000000Y-115500000D03*
X91500000Y-99500000D03*
X85000000Y-79500000D03*
X149500000Y-50500000D03*
X149500000Y-57000000D03*
X143000000Y-122000000D03*
X143000000Y-128500000D03*
X149500000Y-93500000D03*
X143000000Y-85500000D03*
X62500000Y-70000000D03*
X62500000Y-63500000D03*
X56000000Y-109000000D03*
X56000000Y-115500000D03*
X62500000Y-99500000D03*
X56000000Y-79500000D03*
%LPD*%
M02*
