G04 #@! TF.GenerationSoftware,KiCad,Pcbnew,7.0.9-7.0.9~ubuntu20.04.1*
G04 #@! TF.CreationDate,2023-12-17T16:45:51+01:00*
G04 #@! TF.ProjectId,low_pass,6c6f775f-7061-4737-932e-6b696361645f,1.0*
G04 #@! TF.SameCoordinates,Original*
G04 #@! TF.FileFunction,Legend,Bot*
G04 #@! TF.FilePolarity,Positive*
%FSLAX46Y46*%
G04 Gerber Fmt 4.6, Leading zero omitted, Abs format (unit mm)*
G04 Created by KiCad (PCBNEW 7.0.9-7.0.9~ubuntu20.04.1) date 2023-12-17 16:45:51*
%MOMM*%
%LPD*%
G01*
G04 APERTURE LIST*
G04 Aperture macros list*
%AMRoundRect*
0 Rectangle with rounded corners*
0 $1 Rounding radius*
0 $2 $3 $4 $5 $6 $7 $8 $9 X,Y pos of 4 corners*
0 Add a 4 corners polygon primitive as box body*
4,1,4,$2,$3,$4,$5,$6,$7,$8,$9,$2,$3,0*
0 Add four circle primitives for the rounded corners*
1,1,$1+$1,$2,$3*
1,1,$1+$1,$4,$5*
1,1,$1+$1,$6,$7*
1,1,$1+$1,$8,$9*
0 Add four rect primitives between the rounded corners*
20,1,$1+$1,$2,$3,$4,$5,0*
20,1,$1+$1,$4,$5,$6,$7,0*
20,1,$1+$1,$6,$7,$8,$9,0*
20,1,$1+$1,$8,$9,$2,$3,0*%
G04 Aperture macros list end*
%ADD10C,0.700000*%
%ADD11C,0.150000*%
%ADD12C,0.120000*%
%ADD13C,5.600000*%
%ADD14R,2.500000X2.500000*%
%ADD15O,2.500000X2.500000*%
%ADD16R,1.700000X1.700000*%
%ADD17O,1.700000X1.700000*%
%ADD18RoundRect,0.249999X0.450001X1.450001X-0.450001X1.450001X-0.450001X-1.450001X0.450001X-1.450001X0*%
%ADD19C,5.000000*%
%ADD20R,2.300000X2.500000*%
%ADD21C,2.000000*%
G04 APERTURE END LIST*
D10*
X43708600Y-82642857D02*
X43851457Y-83071429D01*
X43851457Y-83071429D02*
X43851457Y-83785714D01*
X43851457Y-83785714D02*
X43708600Y-84071429D01*
X43708600Y-84071429D02*
X43565742Y-84214286D01*
X43565742Y-84214286D02*
X43280028Y-84357143D01*
X43280028Y-84357143D02*
X42994314Y-84357143D01*
X42994314Y-84357143D02*
X42708600Y-84214286D01*
X42708600Y-84214286D02*
X42565742Y-84071429D01*
X42565742Y-84071429D02*
X42422885Y-83785714D01*
X42422885Y-83785714D02*
X42280028Y-83214286D01*
X42280028Y-83214286D02*
X42137171Y-82928571D01*
X42137171Y-82928571D02*
X41994314Y-82785714D01*
X41994314Y-82785714D02*
X41708600Y-82642857D01*
X41708600Y-82642857D02*
X41422885Y-82642857D01*
X41422885Y-82642857D02*
X41137171Y-82785714D01*
X41137171Y-82785714D02*
X40994314Y-82928571D01*
X40994314Y-82928571D02*
X40851457Y-83214286D01*
X40851457Y-83214286D02*
X40851457Y-83928571D01*
X40851457Y-83928571D02*
X40994314Y-84357143D01*
X40851457Y-87071429D02*
X40851457Y-85642857D01*
X40851457Y-85642857D02*
X42280028Y-85500000D01*
X42280028Y-85500000D02*
X42137171Y-85642857D01*
X42137171Y-85642857D02*
X41994314Y-85928572D01*
X41994314Y-85928572D02*
X41994314Y-86642857D01*
X41994314Y-86642857D02*
X42137171Y-86928572D01*
X42137171Y-86928572D02*
X42280028Y-87071429D01*
X42280028Y-87071429D02*
X42565742Y-87214286D01*
X42565742Y-87214286D02*
X43280028Y-87214286D01*
X43280028Y-87214286D02*
X43565742Y-87071429D01*
X43565742Y-87071429D02*
X43708600Y-86928572D01*
X43708600Y-86928572D02*
X43851457Y-86642857D01*
X43851457Y-86642857D02*
X43851457Y-85928572D01*
X43851457Y-85928572D02*
X43708600Y-85642857D01*
X43708600Y-85642857D02*
X43565742Y-85500000D01*
X43851457Y-88642857D02*
X43851457Y-89214286D01*
X43851457Y-89214286D02*
X43708600Y-89500000D01*
X43708600Y-89500000D02*
X43565742Y-89642857D01*
X43565742Y-89642857D02*
X43137171Y-89928572D01*
X43137171Y-89928572D02*
X42565742Y-90071429D01*
X42565742Y-90071429D02*
X41422885Y-90071429D01*
X41422885Y-90071429D02*
X41137171Y-89928572D01*
X41137171Y-89928572D02*
X40994314Y-89785715D01*
X40994314Y-89785715D02*
X40851457Y-89500000D01*
X40851457Y-89500000D02*
X40851457Y-88928572D01*
X40851457Y-88928572D02*
X40994314Y-88642857D01*
X40994314Y-88642857D02*
X41137171Y-88500000D01*
X41137171Y-88500000D02*
X41422885Y-88357143D01*
X41422885Y-88357143D02*
X42137171Y-88357143D01*
X42137171Y-88357143D02*
X42422885Y-88500000D01*
X42422885Y-88500000D02*
X42565742Y-88642857D01*
X42565742Y-88642857D02*
X42708600Y-88928572D01*
X42708600Y-88928572D02*
X42708600Y-89500000D01*
X42708600Y-89500000D02*
X42565742Y-89785715D01*
X42565742Y-89785715D02*
X42422885Y-89928572D01*
X42422885Y-89928572D02*
X42137171Y-90071429D01*
X43851457Y-91357143D02*
X40851457Y-91357143D01*
X40851457Y-91357143D02*
X42994314Y-92357143D01*
X42994314Y-92357143D02*
X40851457Y-93357143D01*
X40851457Y-93357143D02*
X43851457Y-93357143D01*
X40851457Y-94500000D02*
X40851457Y-96500000D01*
X40851457Y-96500000D02*
X43851457Y-94500000D01*
X43851457Y-94500000D02*
X43851457Y-96500000D01*
D11*
X224454819Y-85083333D02*
X224454819Y-84607143D01*
X224454819Y-84607143D02*
X223454819Y-84607143D01*
X224454819Y-85416667D02*
X223454819Y-85416667D01*
X223454819Y-85416667D02*
X223454819Y-85797619D01*
X223454819Y-85797619D02*
X223502438Y-85892857D01*
X223502438Y-85892857D02*
X223550057Y-85940476D01*
X223550057Y-85940476D02*
X223645295Y-85988095D01*
X223645295Y-85988095D02*
X223788152Y-85988095D01*
X223788152Y-85988095D02*
X223883390Y-85940476D01*
X223883390Y-85940476D02*
X223931009Y-85892857D01*
X223931009Y-85892857D02*
X223978628Y-85797619D01*
X223978628Y-85797619D02*
X223978628Y-85416667D01*
X223454819Y-86321429D02*
X223454819Y-86988095D01*
X223454819Y-86988095D02*
X224454819Y-86559524D01*
X224073866Y-89642857D02*
X224073866Y-90404762D01*
X224454819Y-92166666D02*
X224454819Y-91595238D01*
X224454819Y-91880952D02*
X223454819Y-91880952D01*
X223454819Y-91880952D02*
X223597676Y-91785714D01*
X223597676Y-91785714D02*
X223692914Y-91690476D01*
X223692914Y-91690476D02*
X223740533Y-91595238D01*
X223454819Y-93023809D02*
X223454819Y-92833333D01*
X223454819Y-92833333D02*
X223502438Y-92738095D01*
X223502438Y-92738095D02*
X223550057Y-92690476D01*
X223550057Y-92690476D02*
X223692914Y-92595238D01*
X223692914Y-92595238D02*
X223883390Y-92547619D01*
X223883390Y-92547619D02*
X224264342Y-92547619D01*
X224264342Y-92547619D02*
X224359580Y-92595238D01*
X224359580Y-92595238D02*
X224407200Y-92642857D01*
X224407200Y-92642857D02*
X224454819Y-92738095D01*
X224454819Y-92738095D02*
X224454819Y-92928571D01*
X224454819Y-92928571D02*
X224407200Y-93023809D01*
X224407200Y-93023809D02*
X224359580Y-93071428D01*
X224359580Y-93071428D02*
X224264342Y-93119047D01*
X224264342Y-93119047D02*
X224026247Y-93119047D01*
X224026247Y-93119047D02*
X223931009Y-93071428D01*
X223931009Y-93071428D02*
X223883390Y-93023809D01*
X223883390Y-93023809D02*
X223835771Y-92928571D01*
X223835771Y-92928571D02*
X223835771Y-92738095D01*
X223835771Y-92738095D02*
X223883390Y-92642857D01*
X223883390Y-92642857D02*
X223931009Y-92595238D01*
X223931009Y-92595238D02*
X224026247Y-92547619D01*
X223454819Y-93738095D02*
X223454819Y-93833333D01*
X223454819Y-93833333D02*
X223502438Y-93928571D01*
X223502438Y-93928571D02*
X223550057Y-93976190D01*
X223550057Y-93976190D02*
X223645295Y-94023809D01*
X223645295Y-94023809D02*
X223835771Y-94071428D01*
X223835771Y-94071428D02*
X224073866Y-94071428D01*
X224073866Y-94071428D02*
X224264342Y-94023809D01*
X224264342Y-94023809D02*
X224359580Y-93976190D01*
X224359580Y-93976190D02*
X224407200Y-93928571D01*
X224407200Y-93928571D02*
X224454819Y-93833333D01*
X224454819Y-93833333D02*
X224454819Y-93738095D01*
X224454819Y-93738095D02*
X224407200Y-93642857D01*
X224407200Y-93642857D02*
X224359580Y-93595238D01*
X224359580Y-93595238D02*
X224264342Y-93547619D01*
X224264342Y-93547619D02*
X224073866Y-93500000D01*
X224073866Y-93500000D02*
X223835771Y-93500000D01*
X223835771Y-93500000D02*
X223645295Y-93547619D01*
X223645295Y-93547619D02*
X223550057Y-93595238D01*
X223550057Y-93595238D02*
X223502438Y-93642857D01*
X223502438Y-93642857D02*
X223454819Y-93738095D01*
X224454819Y-94500000D02*
X223788152Y-94500000D01*
X223883390Y-94500000D02*
X223835771Y-94547619D01*
X223835771Y-94547619D02*
X223788152Y-94642857D01*
X223788152Y-94642857D02*
X223788152Y-94785714D01*
X223788152Y-94785714D02*
X223835771Y-94880952D01*
X223835771Y-94880952D02*
X223931009Y-94928571D01*
X223931009Y-94928571D02*
X224454819Y-94928571D01*
X223931009Y-94928571D02*
X223835771Y-94976190D01*
X223835771Y-94976190D02*
X223788152Y-95071428D01*
X223788152Y-95071428D02*
X223788152Y-95214285D01*
X223788152Y-95214285D02*
X223835771Y-95309524D01*
X223835771Y-95309524D02*
X223931009Y-95357143D01*
X223931009Y-95357143D02*
X224454819Y-95357143D01*
X224073866Y-96595238D02*
X224073866Y-97357143D01*
X166454819Y-85083333D02*
X166454819Y-84607143D01*
X166454819Y-84607143D02*
X165454819Y-84607143D01*
X166454819Y-85416667D02*
X165454819Y-85416667D01*
X165454819Y-85416667D02*
X165454819Y-85797619D01*
X165454819Y-85797619D02*
X165502438Y-85892857D01*
X165502438Y-85892857D02*
X165550057Y-85940476D01*
X165550057Y-85940476D02*
X165645295Y-85988095D01*
X165645295Y-85988095D02*
X165788152Y-85988095D01*
X165788152Y-85988095D02*
X165883390Y-85940476D01*
X165883390Y-85940476D02*
X165931009Y-85892857D01*
X165931009Y-85892857D02*
X165978628Y-85797619D01*
X165978628Y-85797619D02*
X165978628Y-85416667D01*
X165454819Y-86892857D02*
X165454819Y-86416667D01*
X165454819Y-86416667D02*
X165931009Y-86369048D01*
X165931009Y-86369048D02*
X165883390Y-86416667D01*
X165883390Y-86416667D02*
X165835771Y-86511905D01*
X165835771Y-86511905D02*
X165835771Y-86750000D01*
X165835771Y-86750000D02*
X165883390Y-86845238D01*
X165883390Y-86845238D02*
X165931009Y-86892857D01*
X165931009Y-86892857D02*
X166026247Y-86940476D01*
X166026247Y-86940476D02*
X166264342Y-86940476D01*
X166264342Y-86940476D02*
X166359580Y-86892857D01*
X166359580Y-86892857D02*
X166407200Y-86845238D01*
X166407200Y-86845238D02*
X166454819Y-86750000D01*
X166454819Y-86750000D02*
X166454819Y-86511905D01*
X166454819Y-86511905D02*
X166407200Y-86416667D01*
X166407200Y-86416667D02*
X166359580Y-86369048D01*
X166073866Y-90119048D02*
X166073866Y-90880953D01*
X165788152Y-92547619D02*
X166454819Y-92547619D01*
X165407200Y-92309524D02*
X166121485Y-92071429D01*
X166121485Y-92071429D02*
X166121485Y-92690476D01*
X165454819Y-93261905D02*
X165454819Y-93357143D01*
X165454819Y-93357143D02*
X165502438Y-93452381D01*
X165502438Y-93452381D02*
X165550057Y-93500000D01*
X165550057Y-93500000D02*
X165645295Y-93547619D01*
X165645295Y-93547619D02*
X165835771Y-93595238D01*
X165835771Y-93595238D02*
X166073866Y-93595238D01*
X166073866Y-93595238D02*
X166264342Y-93547619D01*
X166264342Y-93547619D02*
X166359580Y-93500000D01*
X166359580Y-93500000D02*
X166407200Y-93452381D01*
X166407200Y-93452381D02*
X166454819Y-93357143D01*
X166454819Y-93357143D02*
X166454819Y-93261905D01*
X166454819Y-93261905D02*
X166407200Y-93166667D01*
X166407200Y-93166667D02*
X166359580Y-93119048D01*
X166359580Y-93119048D02*
X166264342Y-93071429D01*
X166264342Y-93071429D02*
X166073866Y-93023810D01*
X166073866Y-93023810D02*
X165835771Y-93023810D01*
X165835771Y-93023810D02*
X165645295Y-93071429D01*
X165645295Y-93071429D02*
X165550057Y-93119048D01*
X165550057Y-93119048D02*
X165502438Y-93166667D01*
X165502438Y-93166667D02*
X165454819Y-93261905D01*
X166454819Y-94023810D02*
X165788152Y-94023810D01*
X165883390Y-94023810D02*
X165835771Y-94071429D01*
X165835771Y-94071429D02*
X165788152Y-94166667D01*
X165788152Y-94166667D02*
X165788152Y-94309524D01*
X165788152Y-94309524D02*
X165835771Y-94404762D01*
X165835771Y-94404762D02*
X165931009Y-94452381D01*
X165931009Y-94452381D02*
X166454819Y-94452381D01*
X165931009Y-94452381D02*
X165835771Y-94500000D01*
X165835771Y-94500000D02*
X165788152Y-94595238D01*
X165788152Y-94595238D02*
X165788152Y-94738095D01*
X165788152Y-94738095D02*
X165835771Y-94833334D01*
X165835771Y-94833334D02*
X165931009Y-94880953D01*
X165931009Y-94880953D02*
X166454819Y-94880953D01*
X166073866Y-96119048D02*
X166073866Y-96880953D01*
X175775594Y-141304819D02*
X175775594Y-140304819D01*
X175775594Y-140304819D02*
X175537499Y-140304819D01*
X175537499Y-140304819D02*
X175394642Y-140352438D01*
X175394642Y-140352438D02*
X175299404Y-140447676D01*
X175299404Y-140447676D02*
X175251785Y-140542914D01*
X175251785Y-140542914D02*
X175204166Y-140733390D01*
X175204166Y-140733390D02*
X175204166Y-140876247D01*
X175204166Y-140876247D02*
X175251785Y-141066723D01*
X175251785Y-141066723D02*
X175299404Y-141161961D01*
X175299404Y-141161961D02*
X175394642Y-141257200D01*
X175394642Y-141257200D02*
X175537499Y-141304819D01*
X175537499Y-141304819D02*
X175775594Y-141304819D01*
X174870832Y-140304819D02*
X174204166Y-140304819D01*
X174204166Y-140304819D02*
X174632737Y-141304819D01*
X195454819Y-85083333D02*
X195454819Y-84607143D01*
X195454819Y-84607143D02*
X194454819Y-84607143D01*
X195454819Y-85416667D02*
X194454819Y-85416667D01*
X194454819Y-85416667D02*
X194454819Y-85797619D01*
X194454819Y-85797619D02*
X194502438Y-85892857D01*
X194502438Y-85892857D02*
X194550057Y-85940476D01*
X194550057Y-85940476D02*
X194645295Y-85988095D01*
X194645295Y-85988095D02*
X194788152Y-85988095D01*
X194788152Y-85988095D02*
X194883390Y-85940476D01*
X194883390Y-85940476D02*
X194931009Y-85892857D01*
X194931009Y-85892857D02*
X194978628Y-85797619D01*
X194978628Y-85797619D02*
X194978628Y-85416667D01*
X194454819Y-86845238D02*
X194454819Y-86654762D01*
X194454819Y-86654762D02*
X194502438Y-86559524D01*
X194502438Y-86559524D02*
X194550057Y-86511905D01*
X194550057Y-86511905D02*
X194692914Y-86416667D01*
X194692914Y-86416667D02*
X194883390Y-86369048D01*
X194883390Y-86369048D02*
X195264342Y-86369048D01*
X195264342Y-86369048D02*
X195359580Y-86416667D01*
X195359580Y-86416667D02*
X195407200Y-86464286D01*
X195407200Y-86464286D02*
X195454819Y-86559524D01*
X195454819Y-86559524D02*
X195454819Y-86750000D01*
X195454819Y-86750000D02*
X195407200Y-86845238D01*
X195407200Y-86845238D02*
X195359580Y-86892857D01*
X195359580Y-86892857D02*
X195264342Y-86940476D01*
X195264342Y-86940476D02*
X195026247Y-86940476D01*
X195026247Y-86940476D02*
X194931009Y-86892857D01*
X194931009Y-86892857D02*
X194883390Y-86845238D01*
X194883390Y-86845238D02*
X194835771Y-86750000D01*
X194835771Y-86750000D02*
X194835771Y-86559524D01*
X194835771Y-86559524D02*
X194883390Y-86464286D01*
X194883390Y-86464286D02*
X194931009Y-86416667D01*
X194931009Y-86416667D02*
X195026247Y-86369048D01*
X195073866Y-90119048D02*
X195073866Y-90880953D01*
X194883390Y-92261905D02*
X194835771Y-92166667D01*
X194835771Y-92166667D02*
X194788152Y-92119048D01*
X194788152Y-92119048D02*
X194692914Y-92071429D01*
X194692914Y-92071429D02*
X194645295Y-92071429D01*
X194645295Y-92071429D02*
X194550057Y-92119048D01*
X194550057Y-92119048D02*
X194502438Y-92166667D01*
X194502438Y-92166667D02*
X194454819Y-92261905D01*
X194454819Y-92261905D02*
X194454819Y-92452381D01*
X194454819Y-92452381D02*
X194502438Y-92547619D01*
X194502438Y-92547619D02*
X194550057Y-92595238D01*
X194550057Y-92595238D02*
X194645295Y-92642857D01*
X194645295Y-92642857D02*
X194692914Y-92642857D01*
X194692914Y-92642857D02*
X194788152Y-92595238D01*
X194788152Y-92595238D02*
X194835771Y-92547619D01*
X194835771Y-92547619D02*
X194883390Y-92452381D01*
X194883390Y-92452381D02*
X194883390Y-92261905D01*
X194883390Y-92261905D02*
X194931009Y-92166667D01*
X194931009Y-92166667D02*
X194978628Y-92119048D01*
X194978628Y-92119048D02*
X195073866Y-92071429D01*
X195073866Y-92071429D02*
X195264342Y-92071429D01*
X195264342Y-92071429D02*
X195359580Y-92119048D01*
X195359580Y-92119048D02*
X195407200Y-92166667D01*
X195407200Y-92166667D02*
X195454819Y-92261905D01*
X195454819Y-92261905D02*
X195454819Y-92452381D01*
X195454819Y-92452381D02*
X195407200Y-92547619D01*
X195407200Y-92547619D02*
X195359580Y-92595238D01*
X195359580Y-92595238D02*
X195264342Y-92642857D01*
X195264342Y-92642857D02*
X195073866Y-92642857D01*
X195073866Y-92642857D02*
X194978628Y-92595238D01*
X194978628Y-92595238D02*
X194931009Y-92547619D01*
X194931009Y-92547619D02*
X194883390Y-92452381D01*
X194454819Y-93261905D02*
X194454819Y-93357143D01*
X194454819Y-93357143D02*
X194502438Y-93452381D01*
X194502438Y-93452381D02*
X194550057Y-93500000D01*
X194550057Y-93500000D02*
X194645295Y-93547619D01*
X194645295Y-93547619D02*
X194835771Y-93595238D01*
X194835771Y-93595238D02*
X195073866Y-93595238D01*
X195073866Y-93595238D02*
X195264342Y-93547619D01*
X195264342Y-93547619D02*
X195359580Y-93500000D01*
X195359580Y-93500000D02*
X195407200Y-93452381D01*
X195407200Y-93452381D02*
X195454819Y-93357143D01*
X195454819Y-93357143D02*
X195454819Y-93261905D01*
X195454819Y-93261905D02*
X195407200Y-93166667D01*
X195407200Y-93166667D02*
X195359580Y-93119048D01*
X195359580Y-93119048D02*
X195264342Y-93071429D01*
X195264342Y-93071429D02*
X195073866Y-93023810D01*
X195073866Y-93023810D02*
X194835771Y-93023810D01*
X194835771Y-93023810D02*
X194645295Y-93071429D01*
X194645295Y-93071429D02*
X194550057Y-93119048D01*
X194550057Y-93119048D02*
X194502438Y-93166667D01*
X194502438Y-93166667D02*
X194454819Y-93261905D01*
X195454819Y-94023810D02*
X194788152Y-94023810D01*
X194883390Y-94023810D02*
X194835771Y-94071429D01*
X194835771Y-94071429D02*
X194788152Y-94166667D01*
X194788152Y-94166667D02*
X194788152Y-94309524D01*
X194788152Y-94309524D02*
X194835771Y-94404762D01*
X194835771Y-94404762D02*
X194931009Y-94452381D01*
X194931009Y-94452381D02*
X195454819Y-94452381D01*
X194931009Y-94452381D02*
X194835771Y-94500000D01*
X194835771Y-94500000D02*
X194788152Y-94595238D01*
X194788152Y-94595238D02*
X194788152Y-94738095D01*
X194788152Y-94738095D02*
X194835771Y-94833334D01*
X194835771Y-94833334D02*
X194931009Y-94880953D01*
X194931009Y-94880953D02*
X195454819Y-94880953D01*
X195073866Y-96119048D02*
X195073866Y-96880953D01*
X175238094Y-39304819D02*
X175238094Y-38304819D01*
X175238094Y-38304819D02*
X174999999Y-38304819D01*
X174999999Y-38304819D02*
X174857142Y-38352438D01*
X174857142Y-38352438D02*
X174761904Y-38447676D01*
X174761904Y-38447676D02*
X174714285Y-38542914D01*
X174714285Y-38542914D02*
X174666666Y-38733390D01*
X174666666Y-38733390D02*
X174666666Y-38876247D01*
X174666666Y-38876247D02*
X174714285Y-39066723D01*
X174714285Y-39066723D02*
X174761904Y-39161961D01*
X174761904Y-39161961D02*
X174857142Y-39257200D01*
X174857142Y-39257200D02*
X174999999Y-39304819D01*
X174999999Y-39304819D02*
X175238094Y-39304819D01*
X174095237Y-38733390D02*
X174190475Y-38685771D01*
X174190475Y-38685771D02*
X174238094Y-38638152D01*
X174238094Y-38638152D02*
X174285713Y-38542914D01*
X174285713Y-38542914D02*
X174285713Y-38495295D01*
X174285713Y-38495295D02*
X174238094Y-38400057D01*
X174238094Y-38400057D02*
X174190475Y-38352438D01*
X174190475Y-38352438D02*
X174095237Y-38304819D01*
X174095237Y-38304819D02*
X173904761Y-38304819D01*
X173904761Y-38304819D02*
X173809523Y-38352438D01*
X173809523Y-38352438D02*
X173761904Y-38400057D01*
X173761904Y-38400057D02*
X173714285Y-38495295D01*
X173714285Y-38495295D02*
X173714285Y-38542914D01*
X173714285Y-38542914D02*
X173761904Y-38638152D01*
X173761904Y-38638152D02*
X173809523Y-38685771D01*
X173809523Y-38685771D02*
X173904761Y-38733390D01*
X173904761Y-38733390D02*
X174095237Y-38733390D01*
X174095237Y-38733390D02*
X174190475Y-38781009D01*
X174190475Y-38781009D02*
X174238094Y-38828628D01*
X174238094Y-38828628D02*
X174285713Y-38923866D01*
X174285713Y-38923866D02*
X174285713Y-39114342D01*
X174285713Y-39114342D02*
X174238094Y-39209580D01*
X174238094Y-39209580D02*
X174190475Y-39257200D01*
X174190475Y-39257200D02*
X174095237Y-39304819D01*
X174095237Y-39304819D02*
X173904761Y-39304819D01*
X173904761Y-39304819D02*
X173809523Y-39257200D01*
X173809523Y-39257200D02*
X173761904Y-39209580D01*
X173761904Y-39209580D02*
X173714285Y-39114342D01*
X173714285Y-39114342D02*
X173714285Y-38923866D01*
X173714285Y-38923866D02*
X173761904Y-38828628D01*
X173761904Y-38828628D02*
X173809523Y-38781009D01*
X173809523Y-38781009D02*
X173904761Y-38733390D01*
X245751785Y-141304819D02*
X245751785Y-140304819D01*
X245751785Y-140304819D02*
X245513690Y-140304819D01*
X245513690Y-140304819D02*
X245370833Y-140352438D01*
X245370833Y-140352438D02*
X245275595Y-140447676D01*
X245275595Y-140447676D02*
X245227976Y-140542914D01*
X245227976Y-140542914D02*
X245180357Y-140733390D01*
X245180357Y-140733390D02*
X245180357Y-140876247D01*
X245180357Y-140876247D02*
X245227976Y-141066723D01*
X245227976Y-141066723D02*
X245275595Y-141161961D01*
X245275595Y-141161961D02*
X245370833Y-141257200D01*
X245370833Y-141257200D02*
X245513690Y-141304819D01*
X245513690Y-141304819D02*
X245751785Y-141304819D01*
X244227976Y-141304819D02*
X244799404Y-141304819D01*
X244513690Y-141304819D02*
X244513690Y-140304819D01*
X244513690Y-140304819D02*
X244608928Y-140447676D01*
X244608928Y-140447676D02*
X244704166Y-140542914D01*
X244704166Y-140542914D02*
X244799404Y-140590533D01*
X243847023Y-140400057D02*
X243799404Y-140352438D01*
X243799404Y-140352438D02*
X243704166Y-140304819D01*
X243704166Y-140304819D02*
X243466071Y-140304819D01*
X243466071Y-140304819D02*
X243370833Y-140352438D01*
X243370833Y-140352438D02*
X243323214Y-140400057D01*
X243323214Y-140400057D02*
X243275595Y-140495295D01*
X243275595Y-140495295D02*
X243275595Y-140590533D01*
X243275595Y-140590533D02*
X243323214Y-140733390D01*
X243323214Y-140733390D02*
X243894642Y-141304819D01*
X243894642Y-141304819D02*
X243275595Y-141304819D01*
X108454819Y-85083333D02*
X108454819Y-84607143D01*
X108454819Y-84607143D02*
X107454819Y-84607143D01*
X108454819Y-85416667D02*
X107454819Y-85416667D01*
X107454819Y-85416667D02*
X107454819Y-85797619D01*
X107454819Y-85797619D02*
X107502438Y-85892857D01*
X107502438Y-85892857D02*
X107550057Y-85940476D01*
X107550057Y-85940476D02*
X107645295Y-85988095D01*
X107645295Y-85988095D02*
X107788152Y-85988095D01*
X107788152Y-85988095D02*
X107883390Y-85940476D01*
X107883390Y-85940476D02*
X107931009Y-85892857D01*
X107931009Y-85892857D02*
X107978628Y-85797619D01*
X107978628Y-85797619D02*
X107978628Y-85416667D01*
X107454819Y-86321429D02*
X107454819Y-86940476D01*
X107454819Y-86940476D02*
X107835771Y-86607143D01*
X107835771Y-86607143D02*
X107835771Y-86750000D01*
X107835771Y-86750000D02*
X107883390Y-86845238D01*
X107883390Y-86845238D02*
X107931009Y-86892857D01*
X107931009Y-86892857D02*
X108026247Y-86940476D01*
X108026247Y-86940476D02*
X108264342Y-86940476D01*
X108264342Y-86940476D02*
X108359580Y-86892857D01*
X108359580Y-86892857D02*
X108407200Y-86845238D01*
X108407200Y-86845238D02*
X108454819Y-86750000D01*
X108454819Y-86750000D02*
X108454819Y-86464286D01*
X108454819Y-86464286D02*
X108407200Y-86369048D01*
X108407200Y-86369048D02*
X108359580Y-86321429D01*
X108073866Y-88642857D02*
X108073866Y-89404762D01*
X108454819Y-91166666D02*
X108454819Y-90595238D01*
X108454819Y-90880952D02*
X107454819Y-90880952D01*
X107454819Y-90880952D02*
X107597676Y-90785714D01*
X107597676Y-90785714D02*
X107692914Y-90690476D01*
X107692914Y-90690476D02*
X107740533Y-90595238D01*
X107454819Y-91500000D02*
X107454819Y-92166666D01*
X107454819Y-92166666D02*
X108454819Y-91738095D01*
X107407200Y-93261904D02*
X108692914Y-92404762D01*
X108454819Y-94119047D02*
X108454819Y-93547619D01*
X108454819Y-93833333D02*
X107454819Y-93833333D01*
X107454819Y-93833333D02*
X107597676Y-93738095D01*
X107597676Y-93738095D02*
X107692914Y-93642857D01*
X107692914Y-93642857D02*
X107740533Y-93547619D01*
X107454819Y-95023809D02*
X107454819Y-94547619D01*
X107454819Y-94547619D02*
X107931009Y-94500000D01*
X107931009Y-94500000D02*
X107883390Y-94547619D01*
X107883390Y-94547619D02*
X107835771Y-94642857D01*
X107835771Y-94642857D02*
X107835771Y-94880952D01*
X107835771Y-94880952D02*
X107883390Y-94976190D01*
X107883390Y-94976190D02*
X107931009Y-95023809D01*
X107931009Y-95023809D02*
X108026247Y-95071428D01*
X108026247Y-95071428D02*
X108264342Y-95071428D01*
X108264342Y-95071428D02*
X108359580Y-95023809D01*
X108359580Y-95023809D02*
X108407200Y-94976190D01*
X108407200Y-94976190D02*
X108454819Y-94880952D01*
X108454819Y-94880952D02*
X108454819Y-94642857D01*
X108454819Y-94642857D02*
X108407200Y-94547619D01*
X108407200Y-94547619D02*
X108359580Y-94500000D01*
X108454819Y-95500000D02*
X107788152Y-95500000D01*
X107883390Y-95500000D02*
X107835771Y-95547619D01*
X107835771Y-95547619D02*
X107788152Y-95642857D01*
X107788152Y-95642857D02*
X107788152Y-95785714D01*
X107788152Y-95785714D02*
X107835771Y-95880952D01*
X107835771Y-95880952D02*
X107931009Y-95928571D01*
X107931009Y-95928571D02*
X108454819Y-95928571D01*
X107931009Y-95928571D02*
X107835771Y-95976190D01*
X107835771Y-95976190D02*
X107788152Y-96071428D01*
X107788152Y-96071428D02*
X107788152Y-96214285D01*
X107788152Y-96214285D02*
X107835771Y-96309524D01*
X107835771Y-96309524D02*
X107931009Y-96357143D01*
X107931009Y-96357143D02*
X108454819Y-96357143D01*
X108073866Y-97595238D02*
X108073866Y-98357143D01*
X255071428Y-147931009D02*
X255404761Y-147931009D01*
X255404761Y-148454819D02*
X255404761Y-147454819D01*
X255404761Y-147454819D02*
X254928571Y-147454819D01*
X254547618Y-148454819D02*
X254547618Y-147454819D01*
X254071428Y-148454819D02*
X254071428Y-147454819D01*
X254071428Y-147454819D02*
X253833333Y-147454819D01*
X253833333Y-147454819D02*
X253690476Y-147502438D01*
X253690476Y-147502438D02*
X253595238Y-147597676D01*
X253595238Y-147597676D02*
X253547619Y-147692914D01*
X253547619Y-147692914D02*
X253500000Y-147883390D01*
X253500000Y-147883390D02*
X253500000Y-148026247D01*
X253500000Y-148026247D02*
X253547619Y-148216723D01*
X253547619Y-148216723D02*
X253595238Y-148311961D01*
X253595238Y-148311961D02*
X253690476Y-148407200D01*
X253690476Y-148407200D02*
X253833333Y-148454819D01*
X253833333Y-148454819D02*
X254071428Y-148454819D01*
X252642857Y-147788152D02*
X252642857Y-148454819D01*
X252880952Y-147407200D02*
X253119047Y-148121485D01*
X253119047Y-148121485D02*
X252500000Y-148121485D01*
X210775594Y-141304819D02*
X210775594Y-140304819D01*
X210775594Y-140304819D02*
X210537499Y-140304819D01*
X210537499Y-140304819D02*
X210394642Y-140352438D01*
X210394642Y-140352438D02*
X210299404Y-140447676D01*
X210299404Y-140447676D02*
X210251785Y-140542914D01*
X210251785Y-140542914D02*
X210204166Y-140733390D01*
X210204166Y-140733390D02*
X210204166Y-140876247D01*
X210204166Y-140876247D02*
X210251785Y-141066723D01*
X210251785Y-141066723D02*
X210299404Y-141161961D01*
X210299404Y-141161961D02*
X210394642Y-141257200D01*
X210394642Y-141257200D02*
X210537499Y-141304819D01*
X210537499Y-141304819D02*
X210775594Y-141304819D01*
X209727975Y-141304819D02*
X209537499Y-141304819D01*
X209537499Y-141304819D02*
X209442261Y-141257200D01*
X209442261Y-141257200D02*
X209394642Y-141209580D01*
X209394642Y-141209580D02*
X209299404Y-141066723D01*
X209299404Y-141066723D02*
X209251785Y-140876247D01*
X209251785Y-140876247D02*
X209251785Y-140495295D01*
X209251785Y-140495295D02*
X209299404Y-140400057D01*
X209299404Y-140400057D02*
X209347023Y-140352438D01*
X209347023Y-140352438D02*
X209442261Y-140304819D01*
X209442261Y-140304819D02*
X209632737Y-140304819D01*
X209632737Y-140304819D02*
X209727975Y-140352438D01*
X209727975Y-140352438D02*
X209775594Y-140400057D01*
X209775594Y-140400057D02*
X209823213Y-140495295D01*
X209823213Y-140495295D02*
X209823213Y-140733390D01*
X209823213Y-140733390D02*
X209775594Y-140828628D01*
X209775594Y-140828628D02*
X209727975Y-140876247D01*
X209727975Y-140876247D02*
X209632737Y-140923866D01*
X209632737Y-140923866D02*
X209442261Y-140923866D01*
X209442261Y-140923866D02*
X209347023Y-140876247D01*
X209347023Y-140876247D02*
X209299404Y-140828628D01*
X209299404Y-140828628D02*
X209251785Y-140733390D01*
X70238094Y-39142319D02*
X70238094Y-38142319D01*
X70238094Y-38142319D02*
X69999999Y-38142319D01*
X69999999Y-38142319D02*
X69857142Y-38189938D01*
X69857142Y-38189938D02*
X69761904Y-38285176D01*
X69761904Y-38285176D02*
X69714285Y-38380414D01*
X69714285Y-38380414D02*
X69666666Y-38570890D01*
X69666666Y-38570890D02*
X69666666Y-38713747D01*
X69666666Y-38713747D02*
X69714285Y-38904223D01*
X69714285Y-38904223D02*
X69761904Y-38999461D01*
X69761904Y-38999461D02*
X69857142Y-39094700D01*
X69857142Y-39094700D02*
X69999999Y-39142319D01*
X69999999Y-39142319D02*
X70238094Y-39142319D01*
X68714285Y-39142319D02*
X69285713Y-39142319D01*
X68999999Y-39142319D02*
X68999999Y-38142319D01*
X68999999Y-38142319D02*
X69095237Y-38285176D01*
X69095237Y-38285176D02*
X69190475Y-38380414D01*
X69190475Y-38380414D02*
X69285713Y-38428033D01*
X79454819Y-85083333D02*
X79454819Y-84607143D01*
X79454819Y-84607143D02*
X78454819Y-84607143D01*
X79454819Y-85416667D02*
X78454819Y-85416667D01*
X78454819Y-85416667D02*
X78454819Y-85797619D01*
X78454819Y-85797619D02*
X78502438Y-85892857D01*
X78502438Y-85892857D02*
X78550057Y-85940476D01*
X78550057Y-85940476D02*
X78645295Y-85988095D01*
X78645295Y-85988095D02*
X78788152Y-85988095D01*
X78788152Y-85988095D02*
X78883390Y-85940476D01*
X78883390Y-85940476D02*
X78931009Y-85892857D01*
X78931009Y-85892857D02*
X78978628Y-85797619D01*
X78978628Y-85797619D02*
X78978628Y-85416667D01*
X78550057Y-86369048D02*
X78502438Y-86416667D01*
X78502438Y-86416667D02*
X78454819Y-86511905D01*
X78454819Y-86511905D02*
X78454819Y-86750000D01*
X78454819Y-86750000D02*
X78502438Y-86845238D01*
X78502438Y-86845238D02*
X78550057Y-86892857D01*
X78550057Y-86892857D02*
X78645295Y-86940476D01*
X78645295Y-86940476D02*
X78740533Y-86940476D01*
X78740533Y-86940476D02*
X78883390Y-86892857D01*
X78883390Y-86892857D02*
X79454819Y-86321429D01*
X79454819Y-86321429D02*
X79454819Y-86940476D01*
X79073866Y-88642857D02*
X79073866Y-89404762D01*
X79454819Y-91166666D02*
X79454819Y-90595238D01*
X79454819Y-90880952D02*
X78454819Y-90880952D01*
X78454819Y-90880952D02*
X78597676Y-90785714D01*
X78597676Y-90785714D02*
X78692914Y-90690476D01*
X78692914Y-90690476D02*
X78740533Y-90595238D01*
X78550057Y-91547619D02*
X78502438Y-91595238D01*
X78502438Y-91595238D02*
X78454819Y-91690476D01*
X78454819Y-91690476D02*
X78454819Y-91928571D01*
X78454819Y-91928571D02*
X78502438Y-92023809D01*
X78502438Y-92023809D02*
X78550057Y-92071428D01*
X78550057Y-92071428D02*
X78645295Y-92119047D01*
X78645295Y-92119047D02*
X78740533Y-92119047D01*
X78740533Y-92119047D02*
X78883390Y-92071428D01*
X78883390Y-92071428D02*
X79454819Y-91500000D01*
X79454819Y-91500000D02*
X79454819Y-92119047D01*
X78407200Y-93261904D02*
X79692914Y-92404762D01*
X79454819Y-94119047D02*
X79454819Y-93547619D01*
X79454819Y-93833333D02*
X78454819Y-93833333D01*
X78454819Y-93833333D02*
X78597676Y-93738095D01*
X78597676Y-93738095D02*
X78692914Y-93642857D01*
X78692914Y-93642857D02*
X78740533Y-93547619D01*
X78454819Y-94738095D02*
X78454819Y-94833333D01*
X78454819Y-94833333D02*
X78502438Y-94928571D01*
X78502438Y-94928571D02*
X78550057Y-94976190D01*
X78550057Y-94976190D02*
X78645295Y-95023809D01*
X78645295Y-95023809D02*
X78835771Y-95071428D01*
X78835771Y-95071428D02*
X79073866Y-95071428D01*
X79073866Y-95071428D02*
X79264342Y-95023809D01*
X79264342Y-95023809D02*
X79359580Y-94976190D01*
X79359580Y-94976190D02*
X79407200Y-94928571D01*
X79407200Y-94928571D02*
X79454819Y-94833333D01*
X79454819Y-94833333D02*
X79454819Y-94738095D01*
X79454819Y-94738095D02*
X79407200Y-94642857D01*
X79407200Y-94642857D02*
X79359580Y-94595238D01*
X79359580Y-94595238D02*
X79264342Y-94547619D01*
X79264342Y-94547619D02*
X79073866Y-94500000D01*
X79073866Y-94500000D02*
X78835771Y-94500000D01*
X78835771Y-94500000D02*
X78645295Y-94547619D01*
X78645295Y-94547619D02*
X78550057Y-94595238D01*
X78550057Y-94595238D02*
X78502438Y-94642857D01*
X78502438Y-94642857D02*
X78454819Y-94738095D01*
X79454819Y-95500000D02*
X78788152Y-95500000D01*
X78883390Y-95500000D02*
X78835771Y-95547619D01*
X78835771Y-95547619D02*
X78788152Y-95642857D01*
X78788152Y-95642857D02*
X78788152Y-95785714D01*
X78788152Y-95785714D02*
X78835771Y-95880952D01*
X78835771Y-95880952D02*
X78931009Y-95928571D01*
X78931009Y-95928571D02*
X79454819Y-95928571D01*
X78931009Y-95928571D02*
X78835771Y-95976190D01*
X78835771Y-95976190D02*
X78788152Y-96071428D01*
X78788152Y-96071428D02*
X78788152Y-96214285D01*
X78788152Y-96214285D02*
X78835771Y-96309524D01*
X78835771Y-96309524D02*
X78931009Y-96357143D01*
X78931009Y-96357143D02*
X79454819Y-96357143D01*
X79073866Y-97595238D02*
X79073866Y-98357143D01*
X105238094Y-39304819D02*
X105238094Y-38304819D01*
X105238094Y-38304819D02*
X104999999Y-38304819D01*
X104999999Y-38304819D02*
X104857142Y-38352438D01*
X104857142Y-38352438D02*
X104761904Y-38447676D01*
X104761904Y-38447676D02*
X104714285Y-38542914D01*
X104714285Y-38542914D02*
X104666666Y-38733390D01*
X104666666Y-38733390D02*
X104666666Y-38876247D01*
X104666666Y-38876247D02*
X104714285Y-39066723D01*
X104714285Y-39066723D02*
X104761904Y-39161961D01*
X104761904Y-39161961D02*
X104857142Y-39257200D01*
X104857142Y-39257200D02*
X104999999Y-39304819D01*
X104999999Y-39304819D02*
X105238094Y-39304819D01*
X103809523Y-38638152D02*
X103809523Y-39304819D01*
X104047618Y-38257200D02*
X104285713Y-38971485D01*
X104285713Y-38971485D02*
X103666666Y-38971485D01*
X210214285Y-39304819D02*
X210214285Y-38304819D01*
X210214285Y-38304819D02*
X209976190Y-38304819D01*
X209976190Y-38304819D02*
X209833333Y-38352438D01*
X209833333Y-38352438D02*
X209738095Y-38447676D01*
X209738095Y-38447676D02*
X209690476Y-38542914D01*
X209690476Y-38542914D02*
X209642857Y-38733390D01*
X209642857Y-38733390D02*
X209642857Y-38876247D01*
X209642857Y-38876247D02*
X209690476Y-39066723D01*
X209690476Y-39066723D02*
X209738095Y-39161961D01*
X209738095Y-39161961D02*
X209833333Y-39257200D01*
X209833333Y-39257200D02*
X209976190Y-39304819D01*
X209976190Y-39304819D02*
X210214285Y-39304819D01*
X208690476Y-39304819D02*
X209261904Y-39304819D01*
X208976190Y-39304819D02*
X208976190Y-38304819D01*
X208976190Y-38304819D02*
X209071428Y-38447676D01*
X209071428Y-38447676D02*
X209166666Y-38542914D01*
X209166666Y-38542914D02*
X209261904Y-38590533D01*
X208071428Y-38304819D02*
X207976190Y-38304819D01*
X207976190Y-38304819D02*
X207880952Y-38352438D01*
X207880952Y-38352438D02*
X207833333Y-38400057D01*
X207833333Y-38400057D02*
X207785714Y-38495295D01*
X207785714Y-38495295D02*
X207738095Y-38685771D01*
X207738095Y-38685771D02*
X207738095Y-38923866D01*
X207738095Y-38923866D02*
X207785714Y-39114342D01*
X207785714Y-39114342D02*
X207833333Y-39209580D01*
X207833333Y-39209580D02*
X207880952Y-39257200D01*
X207880952Y-39257200D02*
X207976190Y-39304819D01*
X207976190Y-39304819D02*
X208071428Y-39304819D01*
X208071428Y-39304819D02*
X208166666Y-39257200D01*
X208166666Y-39257200D02*
X208214285Y-39209580D01*
X208214285Y-39209580D02*
X208261904Y-39114342D01*
X208261904Y-39114342D02*
X208309523Y-38923866D01*
X208309523Y-38923866D02*
X208309523Y-38685771D01*
X208309523Y-38685771D02*
X208261904Y-38495295D01*
X208261904Y-38495295D02*
X208214285Y-38400057D01*
X208214285Y-38400057D02*
X208166666Y-38352438D01*
X208166666Y-38352438D02*
X208071428Y-38304819D01*
X140238094Y-39142319D02*
X140238094Y-38142319D01*
X140238094Y-38142319D02*
X139999999Y-38142319D01*
X139999999Y-38142319D02*
X139857142Y-38189938D01*
X139857142Y-38189938D02*
X139761904Y-38285176D01*
X139761904Y-38285176D02*
X139714285Y-38380414D01*
X139714285Y-38380414D02*
X139666666Y-38570890D01*
X139666666Y-38570890D02*
X139666666Y-38713747D01*
X139666666Y-38713747D02*
X139714285Y-38904223D01*
X139714285Y-38904223D02*
X139761904Y-38999461D01*
X139761904Y-38999461D02*
X139857142Y-39094700D01*
X139857142Y-39094700D02*
X139999999Y-39142319D01*
X139999999Y-39142319D02*
X140238094Y-39142319D01*
X138809523Y-38142319D02*
X138999999Y-38142319D01*
X138999999Y-38142319D02*
X139095237Y-38189938D01*
X139095237Y-38189938D02*
X139142856Y-38237557D01*
X139142856Y-38237557D02*
X139238094Y-38380414D01*
X139238094Y-38380414D02*
X139285713Y-38570890D01*
X139285713Y-38570890D02*
X139285713Y-38951842D01*
X139285713Y-38951842D02*
X139238094Y-39047080D01*
X139238094Y-39047080D02*
X139190475Y-39094700D01*
X139190475Y-39094700D02*
X139095237Y-39142319D01*
X139095237Y-39142319D02*
X138904761Y-39142319D01*
X138904761Y-39142319D02*
X138809523Y-39094700D01*
X138809523Y-39094700D02*
X138761904Y-39047080D01*
X138761904Y-39047080D02*
X138714285Y-38951842D01*
X138714285Y-38951842D02*
X138714285Y-38713747D01*
X138714285Y-38713747D02*
X138761904Y-38618509D01*
X138761904Y-38618509D02*
X138809523Y-38570890D01*
X138809523Y-38570890D02*
X138904761Y-38523271D01*
X138904761Y-38523271D02*
X139095237Y-38523271D01*
X139095237Y-38523271D02*
X139190475Y-38570890D01*
X139190475Y-38570890D02*
X139238094Y-38618509D01*
X139238094Y-38618509D02*
X139285713Y-38713747D01*
X105775594Y-141304819D02*
X105775594Y-140304819D01*
X105775594Y-140304819D02*
X105537499Y-140304819D01*
X105537499Y-140304819D02*
X105394642Y-140352438D01*
X105394642Y-140352438D02*
X105299404Y-140447676D01*
X105299404Y-140447676D02*
X105251785Y-140542914D01*
X105251785Y-140542914D02*
X105204166Y-140733390D01*
X105204166Y-140733390D02*
X105204166Y-140876247D01*
X105204166Y-140876247D02*
X105251785Y-141066723D01*
X105251785Y-141066723D02*
X105299404Y-141161961D01*
X105299404Y-141161961D02*
X105394642Y-141257200D01*
X105394642Y-141257200D02*
X105537499Y-141304819D01*
X105537499Y-141304819D02*
X105775594Y-141304819D01*
X104870832Y-140304819D02*
X104251785Y-140304819D01*
X104251785Y-140304819D02*
X104585118Y-140685771D01*
X104585118Y-140685771D02*
X104442261Y-140685771D01*
X104442261Y-140685771D02*
X104347023Y-140733390D01*
X104347023Y-140733390D02*
X104299404Y-140781009D01*
X104299404Y-140781009D02*
X104251785Y-140876247D01*
X104251785Y-140876247D02*
X104251785Y-141114342D01*
X104251785Y-141114342D02*
X104299404Y-141209580D01*
X104299404Y-141209580D02*
X104347023Y-141257200D01*
X104347023Y-141257200D02*
X104442261Y-141304819D01*
X104442261Y-141304819D02*
X104727975Y-141304819D01*
X104727975Y-141304819D02*
X104823213Y-141257200D01*
X104823213Y-141257200D02*
X104870832Y-141209580D01*
X137454819Y-85083333D02*
X137454819Y-84607143D01*
X137454819Y-84607143D02*
X136454819Y-84607143D01*
X137454819Y-85416667D02*
X136454819Y-85416667D01*
X136454819Y-85416667D02*
X136454819Y-85797619D01*
X136454819Y-85797619D02*
X136502438Y-85892857D01*
X136502438Y-85892857D02*
X136550057Y-85940476D01*
X136550057Y-85940476D02*
X136645295Y-85988095D01*
X136645295Y-85988095D02*
X136788152Y-85988095D01*
X136788152Y-85988095D02*
X136883390Y-85940476D01*
X136883390Y-85940476D02*
X136931009Y-85892857D01*
X136931009Y-85892857D02*
X136978628Y-85797619D01*
X136978628Y-85797619D02*
X136978628Y-85416667D01*
X136788152Y-86845238D02*
X137454819Y-86845238D01*
X136407200Y-86607143D02*
X137121485Y-86369048D01*
X137121485Y-86369048D02*
X137121485Y-86988095D01*
X137073866Y-88642857D02*
X137073866Y-89404762D01*
X136454819Y-90547619D02*
X136454819Y-91166666D01*
X136454819Y-91166666D02*
X136835771Y-90833333D01*
X136835771Y-90833333D02*
X136835771Y-90976190D01*
X136835771Y-90976190D02*
X136883390Y-91071428D01*
X136883390Y-91071428D02*
X136931009Y-91119047D01*
X136931009Y-91119047D02*
X137026247Y-91166666D01*
X137026247Y-91166666D02*
X137264342Y-91166666D01*
X137264342Y-91166666D02*
X137359580Y-91119047D01*
X137359580Y-91119047D02*
X137407200Y-91071428D01*
X137407200Y-91071428D02*
X137454819Y-90976190D01*
X137454819Y-90976190D02*
X137454819Y-90690476D01*
X137454819Y-90690476D02*
X137407200Y-90595238D01*
X137407200Y-90595238D02*
X137359580Y-90547619D01*
X136454819Y-91785714D02*
X136454819Y-91880952D01*
X136454819Y-91880952D02*
X136502438Y-91976190D01*
X136502438Y-91976190D02*
X136550057Y-92023809D01*
X136550057Y-92023809D02*
X136645295Y-92071428D01*
X136645295Y-92071428D02*
X136835771Y-92119047D01*
X136835771Y-92119047D02*
X137073866Y-92119047D01*
X137073866Y-92119047D02*
X137264342Y-92071428D01*
X137264342Y-92071428D02*
X137359580Y-92023809D01*
X137359580Y-92023809D02*
X137407200Y-91976190D01*
X137407200Y-91976190D02*
X137454819Y-91880952D01*
X137454819Y-91880952D02*
X137454819Y-91785714D01*
X137454819Y-91785714D02*
X137407200Y-91690476D01*
X137407200Y-91690476D02*
X137359580Y-91642857D01*
X137359580Y-91642857D02*
X137264342Y-91595238D01*
X137264342Y-91595238D02*
X137073866Y-91547619D01*
X137073866Y-91547619D02*
X136835771Y-91547619D01*
X136835771Y-91547619D02*
X136645295Y-91595238D01*
X136645295Y-91595238D02*
X136550057Y-91642857D01*
X136550057Y-91642857D02*
X136502438Y-91690476D01*
X136502438Y-91690476D02*
X136454819Y-91785714D01*
X136407200Y-93261904D02*
X137692914Y-92404762D01*
X136550057Y-93547619D02*
X136502438Y-93595238D01*
X136502438Y-93595238D02*
X136454819Y-93690476D01*
X136454819Y-93690476D02*
X136454819Y-93928571D01*
X136454819Y-93928571D02*
X136502438Y-94023809D01*
X136502438Y-94023809D02*
X136550057Y-94071428D01*
X136550057Y-94071428D02*
X136645295Y-94119047D01*
X136645295Y-94119047D02*
X136740533Y-94119047D01*
X136740533Y-94119047D02*
X136883390Y-94071428D01*
X136883390Y-94071428D02*
X137454819Y-93500000D01*
X137454819Y-93500000D02*
X137454819Y-94119047D01*
X136454819Y-94738095D02*
X136454819Y-94833333D01*
X136454819Y-94833333D02*
X136502438Y-94928571D01*
X136502438Y-94928571D02*
X136550057Y-94976190D01*
X136550057Y-94976190D02*
X136645295Y-95023809D01*
X136645295Y-95023809D02*
X136835771Y-95071428D01*
X136835771Y-95071428D02*
X137073866Y-95071428D01*
X137073866Y-95071428D02*
X137264342Y-95023809D01*
X137264342Y-95023809D02*
X137359580Y-94976190D01*
X137359580Y-94976190D02*
X137407200Y-94928571D01*
X137407200Y-94928571D02*
X137454819Y-94833333D01*
X137454819Y-94833333D02*
X137454819Y-94738095D01*
X137454819Y-94738095D02*
X137407200Y-94642857D01*
X137407200Y-94642857D02*
X137359580Y-94595238D01*
X137359580Y-94595238D02*
X137264342Y-94547619D01*
X137264342Y-94547619D02*
X137073866Y-94500000D01*
X137073866Y-94500000D02*
X136835771Y-94500000D01*
X136835771Y-94500000D02*
X136645295Y-94547619D01*
X136645295Y-94547619D02*
X136550057Y-94595238D01*
X136550057Y-94595238D02*
X136502438Y-94642857D01*
X136502438Y-94642857D02*
X136454819Y-94738095D01*
X137454819Y-95500000D02*
X136788152Y-95500000D01*
X136883390Y-95500000D02*
X136835771Y-95547619D01*
X136835771Y-95547619D02*
X136788152Y-95642857D01*
X136788152Y-95642857D02*
X136788152Y-95785714D01*
X136788152Y-95785714D02*
X136835771Y-95880952D01*
X136835771Y-95880952D02*
X136931009Y-95928571D01*
X136931009Y-95928571D02*
X137454819Y-95928571D01*
X136931009Y-95928571D02*
X136835771Y-95976190D01*
X136835771Y-95976190D02*
X136788152Y-96071428D01*
X136788152Y-96071428D02*
X136788152Y-96214285D01*
X136788152Y-96214285D02*
X136835771Y-96309524D01*
X136835771Y-96309524D02*
X136931009Y-96357143D01*
X136931009Y-96357143D02*
X137454819Y-96357143D01*
X137073866Y-97595238D02*
X137073866Y-98357143D01*
X47071428Y-27931009D02*
X47404761Y-27931009D01*
X47404761Y-28454819D02*
X47404761Y-27454819D01*
X47404761Y-27454819D02*
X46928571Y-27454819D01*
X46547618Y-28454819D02*
X46547618Y-27454819D01*
X46071428Y-28454819D02*
X46071428Y-27454819D01*
X46071428Y-27454819D02*
X45833333Y-27454819D01*
X45833333Y-27454819D02*
X45690476Y-27502438D01*
X45690476Y-27502438D02*
X45595238Y-27597676D01*
X45595238Y-27597676D02*
X45547619Y-27692914D01*
X45547619Y-27692914D02*
X45500000Y-27883390D01*
X45500000Y-27883390D02*
X45500000Y-28026247D01*
X45500000Y-28026247D02*
X45547619Y-28216723D01*
X45547619Y-28216723D02*
X45595238Y-28311961D01*
X45595238Y-28311961D02*
X45690476Y-28407200D01*
X45690476Y-28407200D02*
X45833333Y-28454819D01*
X45833333Y-28454819D02*
X46071428Y-28454819D01*
X45166666Y-27454819D02*
X44547619Y-27454819D01*
X44547619Y-27454819D02*
X44880952Y-27835771D01*
X44880952Y-27835771D02*
X44738095Y-27835771D01*
X44738095Y-27835771D02*
X44642857Y-27883390D01*
X44642857Y-27883390D02*
X44595238Y-27931009D01*
X44595238Y-27931009D02*
X44547619Y-28026247D01*
X44547619Y-28026247D02*
X44547619Y-28264342D01*
X44547619Y-28264342D02*
X44595238Y-28359580D01*
X44595238Y-28359580D02*
X44642857Y-28407200D01*
X44642857Y-28407200D02*
X44738095Y-28454819D01*
X44738095Y-28454819D02*
X45023809Y-28454819D01*
X45023809Y-28454819D02*
X45119047Y-28407200D01*
X45119047Y-28407200D02*
X45166666Y-28359580D01*
X245214285Y-39304819D02*
X245214285Y-38304819D01*
X245214285Y-38304819D02*
X244976190Y-38304819D01*
X244976190Y-38304819D02*
X244833333Y-38352438D01*
X244833333Y-38352438D02*
X244738095Y-38447676D01*
X244738095Y-38447676D02*
X244690476Y-38542914D01*
X244690476Y-38542914D02*
X244642857Y-38733390D01*
X244642857Y-38733390D02*
X244642857Y-38876247D01*
X244642857Y-38876247D02*
X244690476Y-39066723D01*
X244690476Y-39066723D02*
X244738095Y-39161961D01*
X244738095Y-39161961D02*
X244833333Y-39257200D01*
X244833333Y-39257200D02*
X244976190Y-39304819D01*
X244976190Y-39304819D02*
X245214285Y-39304819D01*
X243690476Y-39304819D02*
X244261904Y-39304819D01*
X243976190Y-39304819D02*
X243976190Y-38304819D01*
X243976190Y-38304819D02*
X244071428Y-38447676D01*
X244071428Y-38447676D02*
X244166666Y-38542914D01*
X244166666Y-38542914D02*
X244261904Y-38590533D01*
X242738095Y-39304819D02*
X243309523Y-39304819D01*
X243023809Y-39304819D02*
X243023809Y-38304819D01*
X243023809Y-38304819D02*
X243119047Y-38447676D01*
X243119047Y-38447676D02*
X243214285Y-38542914D01*
X243214285Y-38542914D02*
X243309523Y-38590533D01*
X140775594Y-141304819D02*
X140775594Y-140304819D01*
X140775594Y-140304819D02*
X140537499Y-140304819D01*
X140537499Y-140304819D02*
X140394642Y-140352438D01*
X140394642Y-140352438D02*
X140299404Y-140447676D01*
X140299404Y-140447676D02*
X140251785Y-140542914D01*
X140251785Y-140542914D02*
X140204166Y-140733390D01*
X140204166Y-140733390D02*
X140204166Y-140876247D01*
X140204166Y-140876247D02*
X140251785Y-141066723D01*
X140251785Y-141066723D02*
X140299404Y-141161961D01*
X140299404Y-141161961D02*
X140394642Y-141257200D01*
X140394642Y-141257200D02*
X140537499Y-141304819D01*
X140537499Y-141304819D02*
X140775594Y-141304819D01*
X139299404Y-140304819D02*
X139775594Y-140304819D01*
X139775594Y-140304819D02*
X139823213Y-140781009D01*
X139823213Y-140781009D02*
X139775594Y-140733390D01*
X139775594Y-140733390D02*
X139680356Y-140685771D01*
X139680356Y-140685771D02*
X139442261Y-140685771D01*
X139442261Y-140685771D02*
X139347023Y-140733390D01*
X139347023Y-140733390D02*
X139299404Y-140781009D01*
X139299404Y-140781009D02*
X139251785Y-140876247D01*
X139251785Y-140876247D02*
X139251785Y-141114342D01*
X139251785Y-141114342D02*
X139299404Y-141209580D01*
X139299404Y-141209580D02*
X139347023Y-141257200D01*
X139347023Y-141257200D02*
X139442261Y-141304819D01*
X139442261Y-141304819D02*
X139680356Y-141304819D01*
X139680356Y-141304819D02*
X139775594Y-141257200D01*
X139775594Y-141257200D02*
X139823213Y-141209580D01*
X70775594Y-141304819D02*
X70775594Y-140304819D01*
X70775594Y-140304819D02*
X70537499Y-140304819D01*
X70537499Y-140304819D02*
X70394642Y-140352438D01*
X70394642Y-140352438D02*
X70299404Y-140447676D01*
X70299404Y-140447676D02*
X70251785Y-140542914D01*
X70251785Y-140542914D02*
X70204166Y-140733390D01*
X70204166Y-140733390D02*
X70204166Y-140876247D01*
X70204166Y-140876247D02*
X70251785Y-141066723D01*
X70251785Y-141066723D02*
X70299404Y-141161961D01*
X70299404Y-141161961D02*
X70394642Y-141257200D01*
X70394642Y-141257200D02*
X70537499Y-141304819D01*
X70537499Y-141304819D02*
X70775594Y-141304819D01*
X69823213Y-140400057D02*
X69775594Y-140352438D01*
X69775594Y-140352438D02*
X69680356Y-140304819D01*
X69680356Y-140304819D02*
X69442261Y-140304819D01*
X69442261Y-140304819D02*
X69347023Y-140352438D01*
X69347023Y-140352438D02*
X69299404Y-140400057D01*
X69299404Y-140400057D02*
X69251785Y-140495295D01*
X69251785Y-140495295D02*
X69251785Y-140590533D01*
X69251785Y-140590533D02*
X69299404Y-140733390D01*
X69299404Y-140733390D02*
X69870832Y-141304819D01*
X69870832Y-141304819D02*
X69251785Y-141304819D01*
X50454819Y-85083333D02*
X50454819Y-84607143D01*
X50454819Y-84607143D02*
X49454819Y-84607143D01*
X50454819Y-85416667D02*
X49454819Y-85416667D01*
X49454819Y-85416667D02*
X49454819Y-85797619D01*
X49454819Y-85797619D02*
X49502438Y-85892857D01*
X49502438Y-85892857D02*
X49550057Y-85940476D01*
X49550057Y-85940476D02*
X49645295Y-85988095D01*
X49645295Y-85988095D02*
X49788152Y-85988095D01*
X49788152Y-85988095D02*
X49883390Y-85940476D01*
X49883390Y-85940476D02*
X49931009Y-85892857D01*
X49931009Y-85892857D02*
X49978628Y-85797619D01*
X49978628Y-85797619D02*
X49978628Y-85416667D01*
X50454819Y-86940476D02*
X50454819Y-86369048D01*
X50454819Y-86654762D02*
X49454819Y-86654762D01*
X49454819Y-86654762D02*
X49597676Y-86559524D01*
X49597676Y-86559524D02*
X49692914Y-86464286D01*
X49692914Y-86464286D02*
X49740533Y-86369048D01*
X50073866Y-90595238D02*
X50073866Y-91357143D01*
X49454819Y-93023809D02*
X49454819Y-92833333D01*
X49454819Y-92833333D02*
X49502438Y-92738095D01*
X49502438Y-92738095D02*
X49550057Y-92690476D01*
X49550057Y-92690476D02*
X49692914Y-92595238D01*
X49692914Y-92595238D02*
X49883390Y-92547619D01*
X49883390Y-92547619D02*
X50264342Y-92547619D01*
X50264342Y-92547619D02*
X50359580Y-92595238D01*
X50359580Y-92595238D02*
X50407200Y-92642857D01*
X50407200Y-92642857D02*
X50454819Y-92738095D01*
X50454819Y-92738095D02*
X50454819Y-92928571D01*
X50454819Y-92928571D02*
X50407200Y-93023809D01*
X50407200Y-93023809D02*
X50359580Y-93071428D01*
X50359580Y-93071428D02*
X50264342Y-93119047D01*
X50264342Y-93119047D02*
X50026247Y-93119047D01*
X50026247Y-93119047D02*
X49931009Y-93071428D01*
X49931009Y-93071428D02*
X49883390Y-93023809D01*
X49883390Y-93023809D02*
X49835771Y-92928571D01*
X49835771Y-92928571D02*
X49835771Y-92738095D01*
X49835771Y-92738095D02*
X49883390Y-92642857D01*
X49883390Y-92642857D02*
X49931009Y-92595238D01*
X49931009Y-92595238D02*
X50026247Y-92547619D01*
X50454819Y-93547619D02*
X49788152Y-93547619D01*
X49883390Y-93547619D02*
X49835771Y-93595238D01*
X49835771Y-93595238D02*
X49788152Y-93690476D01*
X49788152Y-93690476D02*
X49788152Y-93833333D01*
X49788152Y-93833333D02*
X49835771Y-93928571D01*
X49835771Y-93928571D02*
X49931009Y-93976190D01*
X49931009Y-93976190D02*
X50454819Y-93976190D01*
X49931009Y-93976190D02*
X49835771Y-94023809D01*
X49835771Y-94023809D02*
X49788152Y-94119047D01*
X49788152Y-94119047D02*
X49788152Y-94261904D01*
X49788152Y-94261904D02*
X49835771Y-94357143D01*
X49835771Y-94357143D02*
X49931009Y-94404762D01*
X49931009Y-94404762D02*
X50454819Y-94404762D01*
X50073866Y-95642857D02*
X50073866Y-96404762D01*
D12*
X244661252Y-61710000D02*
X242338748Y-61710000D01*
X244661252Y-50290000D02*
X242338748Y-50290000D01*
X244661252Y-53710000D02*
X242338748Y-53710000D01*
X244661252Y-62290000D02*
X242338748Y-62290000D01*
X244661252Y-125290000D02*
X242338748Y-125290000D01*
X244661252Y-58290000D02*
X242338748Y-58290000D01*
X244661252Y-121290000D02*
X242338748Y-121290000D01*
X251000000Y-47000000D02*
X251000000Y-132000000D01*
X244661252Y-54290000D02*
X242338748Y-54290000D01*
X244661252Y-95790000D02*
X242338748Y-95790000D01*
X244661252Y-87210000D02*
X242338748Y-87210000D01*
X244661252Y-87790000D02*
X242338748Y-87790000D01*
X244661252Y-83210000D02*
X242338748Y-83210000D01*
X244661252Y-95210000D02*
X242338748Y-95210000D01*
X244661252Y-65710000D02*
X242338748Y-65710000D01*
X244661252Y-57710000D02*
X242338748Y-57710000D01*
X244661252Y-79790000D02*
X242338748Y-79790000D01*
X244661252Y-116710000D02*
X242338748Y-116710000D01*
X244661252Y-69710000D02*
X242338748Y-69710000D01*
X244661252Y-91210000D02*
X242338748Y-91210000D01*
X244661252Y-91790000D02*
X242338748Y-91790000D01*
X244661252Y-124710000D02*
X242338748Y-124710000D01*
X244661252Y-112710000D02*
X242338748Y-112710000D01*
X244661252Y-128710000D02*
X242338748Y-128710000D01*
X244661252Y-66290000D02*
X242338748Y-66290000D01*
X244661252Y-109290000D02*
X242338748Y-109290000D01*
X244661252Y-99210000D02*
X242338748Y-99210000D01*
X244661252Y-83790000D02*
X242338748Y-83790000D01*
X244661252Y-117290000D02*
X242338748Y-117290000D01*
X244661252Y-120710000D02*
X242338748Y-120710000D01*
X244661252Y-113290000D02*
X242338748Y-113290000D01*
X186661252Y-83210000D02*
X184338748Y-83210000D01*
X186661252Y-91210000D02*
X184338748Y-91210000D01*
X186661252Y-62290000D02*
X184338748Y-62290000D01*
X186661252Y-83790000D02*
X184338748Y-83790000D01*
X186661252Y-66290000D02*
X184338748Y-66290000D01*
X186661252Y-61710000D02*
X184338748Y-61710000D01*
X186661252Y-125290000D02*
X184338748Y-125290000D01*
X186661252Y-116710000D02*
X184338748Y-116710000D01*
X186661252Y-54290000D02*
X184338748Y-54290000D01*
X186661252Y-95210000D02*
X184338748Y-95210000D01*
X186661252Y-69710000D02*
X184338748Y-69710000D01*
X186661252Y-120710000D02*
X184338748Y-120710000D01*
X186661252Y-117290000D02*
X184338748Y-117290000D01*
X186661252Y-109290000D02*
X184338748Y-109290000D01*
X186661252Y-99210000D02*
X184338748Y-99210000D01*
X186661252Y-50290000D02*
X184338748Y-50290000D01*
X186661252Y-87210000D02*
X184338748Y-87210000D01*
X186661252Y-79790000D02*
X184338748Y-79790000D01*
X186661252Y-128710000D02*
X184338748Y-128710000D01*
X193000000Y-47000000D02*
X193000000Y-132000000D01*
X186661252Y-91790000D02*
X184338748Y-91790000D01*
X186661252Y-53710000D02*
X184338748Y-53710000D01*
X186661252Y-57710000D02*
X184338748Y-57710000D01*
X186661252Y-95790000D02*
X184338748Y-95790000D01*
X186661252Y-121290000D02*
X184338748Y-121290000D01*
X186661252Y-113290000D02*
X184338748Y-113290000D01*
X186661252Y-112710000D02*
X184338748Y-112710000D01*
X186661252Y-87790000D02*
X184338748Y-87790000D01*
X186661252Y-124710000D02*
X184338748Y-124710000D01*
X186661252Y-58290000D02*
X184338748Y-58290000D01*
X186661252Y-65710000D02*
X184338748Y-65710000D01*
X176350000Y-137300000D02*
X176350000Y-143000000D01*
X180650000Y-137300000D02*
X180650000Y-143000000D01*
X176350000Y-137300000D02*
X180650000Y-137300000D01*
X215661252Y-95790000D02*
X213338748Y-95790000D01*
X215661252Y-91790000D02*
X213338748Y-91790000D01*
X215661252Y-83210000D02*
X213338748Y-83210000D01*
X222000000Y-47000000D02*
X222000000Y-132000000D01*
X215661252Y-99210000D02*
X213338748Y-99210000D01*
X215661252Y-128710000D02*
X213338748Y-128710000D01*
X215661252Y-57710000D02*
X213338748Y-57710000D01*
X215661252Y-121290000D02*
X213338748Y-121290000D01*
X215661252Y-87790000D02*
X213338748Y-87790000D01*
X215661252Y-109290000D02*
X213338748Y-109290000D01*
X215661252Y-91210000D02*
X213338748Y-91210000D01*
X215661252Y-83790000D02*
X213338748Y-83790000D01*
X215661252Y-113290000D02*
X213338748Y-113290000D01*
X215661252Y-62290000D02*
X213338748Y-62290000D01*
X215661252Y-79790000D02*
X213338748Y-79790000D01*
X215661252Y-69710000D02*
X213338748Y-69710000D01*
X215661252Y-112710000D02*
X213338748Y-112710000D01*
X215661252Y-120710000D02*
X213338748Y-120710000D01*
X215661252Y-58290000D02*
X213338748Y-58290000D01*
X215661252Y-124710000D02*
X213338748Y-124710000D01*
X215661252Y-116710000D02*
X213338748Y-116710000D01*
X215661252Y-117290000D02*
X213338748Y-117290000D01*
X215661252Y-87210000D02*
X213338748Y-87210000D01*
X215661252Y-50290000D02*
X213338748Y-50290000D01*
X215661252Y-61710000D02*
X213338748Y-61710000D01*
X215661252Y-53710000D02*
X213338748Y-53710000D01*
X215661252Y-66290000D02*
X213338748Y-66290000D01*
X215661252Y-65710000D02*
X213338748Y-65710000D01*
X215661252Y-54290000D02*
X213338748Y-54290000D01*
X215661252Y-125290000D02*
X213338748Y-125290000D01*
X215661252Y-95210000D02*
X213338748Y-95210000D01*
X176350000Y-42400000D02*
X176350000Y-36700000D01*
X180650000Y-42400000D02*
X176350000Y-42400000D01*
X180650000Y-42400000D02*
X180650000Y-36700000D01*
X250650000Y-137300000D02*
X250650000Y-143000000D01*
X246350000Y-137300000D02*
X246350000Y-143000000D01*
X246350000Y-137300000D02*
X250650000Y-137300000D01*
X128661252Y-121290000D02*
X126338748Y-121290000D01*
X128661252Y-83210000D02*
X126338748Y-83210000D01*
X128661252Y-62290000D02*
X126338748Y-62290000D01*
X128661252Y-50290000D02*
X126338748Y-50290000D01*
X128661252Y-91210000D02*
X126338748Y-91210000D01*
X128661252Y-87790000D02*
X126338748Y-87790000D01*
X128661252Y-128710000D02*
X126338748Y-128710000D01*
X128661252Y-58290000D02*
X126338748Y-58290000D01*
X128661252Y-91790000D02*
X126338748Y-91790000D01*
X128661252Y-53710000D02*
X126338748Y-53710000D01*
X128661252Y-109290000D02*
X126338748Y-109290000D01*
X128661252Y-120710000D02*
X126338748Y-120710000D01*
X128661252Y-95790000D02*
X126338748Y-95790000D01*
X128661252Y-117290000D02*
X126338748Y-117290000D01*
X128661252Y-112710000D02*
X126338748Y-112710000D01*
X128661252Y-66290000D02*
X126338748Y-66290000D01*
X128661252Y-87210000D02*
X126338748Y-87210000D01*
X128661252Y-65710000D02*
X126338748Y-65710000D01*
X128661252Y-125290000D02*
X126338748Y-125290000D01*
X128661252Y-61710000D02*
X126338748Y-61710000D01*
X128661252Y-116710000D02*
X126338748Y-116710000D01*
X128661252Y-69710000D02*
X126338748Y-69710000D01*
X128661252Y-124710000D02*
X126338748Y-124710000D01*
X128661252Y-79790000D02*
X126338748Y-79790000D01*
X135000000Y-47000000D02*
X135000000Y-132000000D01*
X128661252Y-57710000D02*
X126338748Y-57710000D01*
X128661252Y-99210000D02*
X126338748Y-99210000D01*
X128661252Y-83790000D02*
X126338748Y-83790000D01*
X128661252Y-95210000D02*
X126338748Y-95210000D01*
X128661252Y-113290000D02*
X126338748Y-113290000D01*
X128661252Y-54290000D02*
X126338748Y-54290000D01*
X211350000Y-137300000D02*
X211350000Y-143000000D01*
X211350000Y-137300000D02*
X215650000Y-137300000D01*
X215650000Y-137300000D02*
X215650000Y-143000000D01*
X71350000Y-42237500D02*
X71350000Y-36537500D01*
X75650000Y-42237500D02*
X75650000Y-36537500D01*
X75650000Y-42237500D02*
X71350000Y-42237500D01*
X99661252Y-62290000D02*
X97338748Y-62290000D01*
X99661252Y-79790000D02*
X97338748Y-79790000D01*
X99661252Y-117290000D02*
X97338748Y-117290000D01*
X99661252Y-50290000D02*
X97338748Y-50290000D01*
X99661252Y-95790000D02*
X97338748Y-95790000D01*
X99661252Y-112710000D02*
X97338748Y-112710000D01*
X99661252Y-83790000D02*
X97338748Y-83790000D01*
X99661252Y-69710000D02*
X97338748Y-69710000D01*
X99661252Y-121290000D02*
X97338748Y-121290000D01*
X99661252Y-91790000D02*
X97338748Y-91790000D01*
X99661252Y-61710000D02*
X97338748Y-61710000D01*
X99661252Y-128710000D02*
X97338748Y-128710000D01*
X99661252Y-91210000D02*
X97338748Y-91210000D01*
X99661252Y-54290000D02*
X97338748Y-54290000D01*
X99661252Y-83210000D02*
X97338748Y-83210000D01*
X99661252Y-99210000D02*
X97338748Y-99210000D01*
X99661252Y-58290000D02*
X97338748Y-58290000D01*
X99661252Y-66290000D02*
X97338748Y-66290000D01*
X99661252Y-124710000D02*
X97338748Y-124710000D01*
X99661252Y-109290000D02*
X97338748Y-109290000D01*
X99661252Y-95210000D02*
X97338748Y-95210000D01*
X99661252Y-65710000D02*
X97338748Y-65710000D01*
X99661252Y-125290000D02*
X97338748Y-125290000D01*
X99661252Y-120710000D02*
X97338748Y-120710000D01*
X106000000Y-47000000D02*
X106000000Y-132000000D01*
X99661252Y-57710000D02*
X97338748Y-57710000D01*
X99661252Y-53710000D02*
X97338748Y-53710000D01*
X99661252Y-87790000D02*
X97338748Y-87790000D01*
X99661252Y-87210000D02*
X97338748Y-87210000D01*
X99661252Y-116710000D02*
X97338748Y-116710000D01*
X99661252Y-113290000D02*
X97338748Y-113290000D01*
X110650000Y-42400000D02*
X106350000Y-42400000D01*
X110650000Y-42400000D02*
X110650000Y-36700000D01*
X106350000Y-42400000D02*
X106350000Y-36700000D01*
X215650000Y-42400000D02*
X215650000Y-36700000D01*
X211350000Y-42400000D02*
X211350000Y-36700000D01*
X215650000Y-42400000D02*
X211350000Y-42400000D01*
X141350000Y-42237500D02*
X141350000Y-36537500D01*
X145650000Y-42237500D02*
X145650000Y-36537500D01*
X145650000Y-42237500D02*
X141350000Y-42237500D01*
X110650000Y-137300000D02*
X110650000Y-143000000D01*
X106350000Y-137300000D02*
X110650000Y-137300000D01*
X106350000Y-137300000D02*
X106350000Y-143000000D01*
X157661252Y-112710000D02*
X155338748Y-112710000D01*
X157661252Y-79790000D02*
X155338748Y-79790000D01*
X157661252Y-65710000D02*
X155338748Y-65710000D01*
X157661252Y-87210000D02*
X155338748Y-87210000D01*
X157661252Y-95790000D02*
X155338748Y-95790000D01*
X157661252Y-50290000D02*
X155338748Y-50290000D01*
X157661252Y-69710000D02*
X155338748Y-69710000D01*
X157661252Y-87790000D02*
X155338748Y-87790000D01*
X157661252Y-99210000D02*
X155338748Y-99210000D01*
X157661252Y-62290000D02*
X155338748Y-62290000D01*
X157661252Y-83790000D02*
X155338748Y-83790000D01*
X157661252Y-53710000D02*
X155338748Y-53710000D01*
X157661252Y-117290000D02*
X155338748Y-117290000D01*
X157661252Y-124710000D02*
X155338748Y-124710000D01*
X157661252Y-58290000D02*
X155338748Y-58290000D01*
X157661252Y-54290000D02*
X155338748Y-54290000D01*
X157661252Y-91210000D02*
X155338748Y-91210000D01*
X157661252Y-95210000D02*
X155338748Y-95210000D01*
X157661252Y-61710000D02*
X155338748Y-61710000D01*
X157661252Y-109290000D02*
X155338748Y-109290000D01*
X157661252Y-125290000D02*
X155338748Y-125290000D01*
X157661252Y-113290000D02*
X155338748Y-113290000D01*
X157661252Y-120710000D02*
X155338748Y-120710000D01*
X157661252Y-116710000D02*
X155338748Y-116710000D01*
X157661252Y-66290000D02*
X155338748Y-66290000D01*
X157661252Y-83210000D02*
X155338748Y-83210000D01*
X157661252Y-128710000D02*
X155338748Y-128710000D01*
X157661252Y-121290000D02*
X155338748Y-121290000D01*
X157661252Y-57710000D02*
X155338748Y-57710000D01*
X164000000Y-47000000D02*
X164000000Y-132000000D01*
X157661252Y-91790000D02*
X155338748Y-91790000D01*
X250650000Y-42400000D02*
X250650000Y-36700000D01*
X250650000Y-42400000D02*
X246350000Y-42400000D01*
X246350000Y-42400000D02*
X246350000Y-36700000D01*
X141350000Y-137300000D02*
X145650000Y-137300000D01*
X141350000Y-137300000D02*
X141350000Y-143000000D01*
X145650000Y-137300000D02*
X145650000Y-143000000D01*
X71350000Y-137300000D02*
X75650000Y-137300000D01*
X71350000Y-137300000D02*
X71350000Y-143000000D01*
X75650000Y-137300000D02*
X75650000Y-143000000D01*
X70661252Y-83210000D02*
X68338748Y-83210000D01*
X70661252Y-113290000D02*
X68338748Y-113290000D01*
X70661252Y-109290000D02*
X68338748Y-109290000D01*
X70661252Y-69710000D02*
X68338748Y-69710000D01*
X77000000Y-47000000D02*
X77000000Y-132000000D01*
X70661252Y-53710000D02*
X68338748Y-53710000D01*
X70661252Y-61710000D02*
X68338748Y-61710000D01*
X70661252Y-54290000D02*
X68338748Y-54290000D01*
X70661252Y-128710000D02*
X68338748Y-128710000D01*
X70661252Y-57710000D02*
X68338748Y-57710000D01*
X70661252Y-87790000D02*
X68338748Y-87790000D01*
X70661252Y-125290000D02*
X68338748Y-125290000D01*
X70661252Y-66290000D02*
X68338748Y-66290000D01*
X70661252Y-83790000D02*
X68338748Y-83790000D01*
X70661252Y-124710000D02*
X68338748Y-124710000D01*
X70661252Y-79790000D02*
X68338748Y-79790000D01*
X70661252Y-99210000D02*
X68338748Y-99210000D01*
X70661252Y-91210000D02*
X68338748Y-91210000D01*
X70661252Y-87210000D02*
X68338748Y-87210000D01*
X70661252Y-62290000D02*
X68338748Y-62290000D01*
X70661252Y-50290000D02*
X68338748Y-50290000D01*
X70661252Y-121290000D02*
X68338748Y-121290000D01*
X70661252Y-91790000D02*
X68338748Y-91790000D01*
X70661252Y-116710000D02*
X68338748Y-116710000D01*
X70661252Y-65710000D02*
X68338748Y-65710000D01*
X70661252Y-58290000D02*
X68338748Y-58290000D01*
X70661252Y-117290000D02*
X68338748Y-117290000D01*
X70661252Y-112710000D02*
X68338748Y-112710000D01*
X70661252Y-120710000D02*
X68338748Y-120710000D01*
X70661252Y-95790000D02*
X68338748Y-95790000D01*
X70661252Y-95210000D02*
X68338748Y-95210000D01*
%LPC*%
D13*
X40000000Y-150000000D03*
X40000000Y-30000000D03*
D14*
X148000000Y-35000000D03*
D15*
X133000000Y-35000000D03*
X128000000Y-35000000D03*
X123000000Y-35000000D03*
X123000000Y-42500000D03*
X128000000Y-42500000D03*
X133000000Y-42500000D03*
X148000000Y-42500000D03*
D14*
X253000000Y-35000000D03*
D15*
X238000000Y-35000000D03*
X233000000Y-35000000D03*
X228000000Y-35000000D03*
X228000000Y-42500000D03*
X233000000Y-42500000D03*
X238000000Y-42500000D03*
X253000000Y-42500000D03*
D14*
X183000000Y-137000000D03*
D15*
X168000000Y-137000000D03*
X163000000Y-137000000D03*
X158000000Y-137000000D03*
X158000000Y-144500000D03*
X163000000Y-144500000D03*
X168000000Y-144500000D03*
X183000000Y-144500000D03*
D13*
X260000000Y-150000000D03*
D14*
X113000000Y-137000000D03*
D15*
X98000000Y-137000000D03*
X93000000Y-137000000D03*
X88000000Y-137000000D03*
X88000000Y-144500000D03*
X93000000Y-144500000D03*
X98000000Y-144500000D03*
X113000000Y-144500000D03*
D14*
X218000000Y-35000000D03*
D15*
X203000000Y-35000000D03*
X198000000Y-35000000D03*
X193000000Y-35000000D03*
X193000000Y-42500000D03*
X198000000Y-42500000D03*
X203000000Y-42500000D03*
X218000000Y-42500000D03*
D14*
X113000000Y-35000000D03*
D15*
X98000000Y-35000000D03*
X93000000Y-35000000D03*
X88000000Y-35000000D03*
X88000000Y-42500000D03*
X93000000Y-42500000D03*
X98000000Y-42500000D03*
X113000000Y-42500000D03*
D14*
X218000000Y-137000000D03*
D15*
X203000000Y-137000000D03*
X198000000Y-137000000D03*
X193000000Y-137000000D03*
X193000000Y-144500000D03*
X198000000Y-144500000D03*
X203000000Y-144500000D03*
X218000000Y-144500000D03*
D14*
X183000000Y-35000000D03*
D15*
X168000000Y-35000000D03*
X163000000Y-35000000D03*
X158000000Y-35000000D03*
X158000000Y-42500000D03*
X163000000Y-42500000D03*
X168000000Y-42500000D03*
X183000000Y-42500000D03*
D13*
X260000000Y-30000000D03*
D14*
X148000000Y-137000000D03*
D15*
X133000000Y-137000000D03*
X128000000Y-137000000D03*
X123000000Y-137000000D03*
X123000000Y-144500000D03*
X128000000Y-144500000D03*
X133000000Y-144500000D03*
X148000000Y-144500000D03*
D14*
X253000000Y-137000000D03*
D15*
X238000000Y-137000000D03*
X233000000Y-137000000D03*
X228000000Y-137000000D03*
X228000000Y-144500000D03*
X233000000Y-144500000D03*
X238000000Y-144500000D03*
X253000000Y-144500000D03*
D14*
X78000000Y-137000000D03*
D15*
X63000000Y-137000000D03*
X58000000Y-137000000D03*
X53000000Y-137000000D03*
X53000000Y-144500000D03*
X58000000Y-144500000D03*
X63000000Y-144500000D03*
X78000000Y-144500000D03*
D14*
X78000000Y-35000000D03*
D15*
X63000000Y-35000000D03*
X58000000Y-35000000D03*
X53000000Y-35000000D03*
X53000000Y-42500000D03*
X58000000Y-42500000D03*
X63000000Y-42500000D03*
X78000000Y-42500000D03*
D16*
X258275000Y-93300000D03*
D17*
X255735000Y-93300000D03*
X258275000Y-90760000D03*
X255735000Y-90760000D03*
X258275000Y-88220000D03*
X255735000Y-88220000D03*
X258275000Y-85680000D03*
X255735000Y-85680000D03*
D18*
X245550000Y-97500000D03*
X245550000Y-119000000D03*
X245550000Y-115000000D03*
X245550000Y-81500000D03*
X245550000Y-93500000D03*
X245550000Y-56000000D03*
X245550000Y-60000000D03*
X245550000Y-111000000D03*
X245550000Y-89500000D03*
X245550000Y-52000000D03*
X245550000Y-123000000D03*
X245550000Y-64000000D03*
X245550000Y-127000000D03*
X245550000Y-85500000D03*
X245550000Y-68000000D03*
X241450000Y-52000000D03*
D19*
X236500000Y-50500000D03*
D18*
X241450000Y-64000000D03*
X241450000Y-68000000D03*
D19*
X236500000Y-57000000D03*
D18*
X241450000Y-60000000D03*
X241450000Y-56000000D03*
X241450000Y-123000000D03*
X241450000Y-115000000D03*
X241450000Y-111000000D03*
D19*
X230000000Y-122000000D03*
D18*
X241450000Y-119000000D03*
X241450000Y-127000000D03*
D19*
X230000000Y-128500000D03*
D18*
X241450000Y-81500000D03*
X241450000Y-85500000D03*
X241450000Y-93500000D03*
X241450000Y-89500000D03*
D19*
X230000000Y-85500000D03*
X236500000Y-93500000D03*
D18*
X241450000Y-97500000D03*
X187550000Y-97500000D03*
X187550000Y-119000000D03*
X187550000Y-68000000D03*
X187550000Y-89500000D03*
X187550000Y-123000000D03*
X187550000Y-93500000D03*
X187550000Y-64000000D03*
X187550000Y-111000000D03*
X187550000Y-60000000D03*
X187550000Y-56000000D03*
X187550000Y-81500000D03*
X187550000Y-127000000D03*
X187550000Y-85500000D03*
X187550000Y-52000000D03*
X187550000Y-115000000D03*
D19*
X178500000Y-50500000D03*
D18*
X183450000Y-52000000D03*
X183450000Y-68000000D03*
X183450000Y-64000000D03*
X183450000Y-60000000D03*
D19*
X178500000Y-57000000D03*
D18*
X183450000Y-56000000D03*
D19*
X172000000Y-128500000D03*
X172000000Y-122000000D03*
D18*
X183450000Y-127000000D03*
X183450000Y-111000000D03*
X183450000Y-115000000D03*
X183450000Y-123000000D03*
X183450000Y-119000000D03*
X183450000Y-93500000D03*
D19*
X178500000Y-93500000D03*
D18*
X183450000Y-97500000D03*
D19*
X172000000Y-85500000D03*
D18*
X183450000Y-81500000D03*
X183450000Y-89500000D03*
X183450000Y-85500000D03*
D20*
X178500000Y-138700000D03*
X178500000Y-143000000D03*
D18*
X216550000Y-60000000D03*
X216550000Y-52000000D03*
X216550000Y-89500000D03*
X216550000Y-111000000D03*
X216550000Y-85500000D03*
X216550000Y-119000000D03*
X216550000Y-93500000D03*
X216550000Y-56000000D03*
X216550000Y-81500000D03*
X216550000Y-97500000D03*
X216550000Y-123000000D03*
X216550000Y-115000000D03*
X216550000Y-127000000D03*
X216550000Y-64000000D03*
X216550000Y-68000000D03*
X212450000Y-52000000D03*
X212450000Y-68000000D03*
D19*
X207500000Y-57000000D03*
D18*
X212450000Y-64000000D03*
D19*
X207500000Y-50500000D03*
D18*
X212450000Y-60000000D03*
X212450000Y-56000000D03*
X212450000Y-111000000D03*
X212450000Y-127000000D03*
D19*
X201000000Y-128500000D03*
X201000000Y-122000000D03*
D18*
X212450000Y-119000000D03*
X212450000Y-123000000D03*
X212450000Y-115000000D03*
D19*
X201000000Y-85500000D03*
D18*
X212450000Y-97500000D03*
X212450000Y-81500000D03*
X212450000Y-85500000D03*
X212450000Y-89500000D03*
X212450000Y-93500000D03*
D19*
X207500000Y-93500000D03*
D20*
X178500000Y-41000000D03*
X178500000Y-36700000D03*
X248500000Y-138700000D03*
X248500000Y-143000000D03*
D18*
X129550000Y-89500000D03*
X129550000Y-81500000D03*
X129550000Y-64000000D03*
X129550000Y-111000000D03*
X129550000Y-85500000D03*
X129550000Y-123000000D03*
X129550000Y-56000000D03*
X129550000Y-68000000D03*
X129550000Y-52000000D03*
X129550000Y-115000000D03*
X129550000Y-93500000D03*
X129550000Y-119000000D03*
X129550000Y-127000000D03*
X129550000Y-97500000D03*
X129550000Y-60000000D03*
X125450000Y-60000000D03*
X125450000Y-68000000D03*
D19*
X120500000Y-50500000D03*
D18*
X125450000Y-64000000D03*
X125450000Y-52000000D03*
X125450000Y-56000000D03*
D19*
X120500000Y-57000000D03*
D18*
X125450000Y-123000000D03*
X125450000Y-111000000D03*
X125450000Y-119000000D03*
X125450000Y-115000000D03*
D19*
X114000000Y-122000000D03*
X114000000Y-128500000D03*
D18*
X125450000Y-127000000D03*
X125450000Y-89500000D03*
X125450000Y-85500000D03*
X125450000Y-97500000D03*
X125450000Y-93500000D03*
D19*
X114000000Y-85500000D03*
D18*
X125450000Y-81500000D03*
D19*
X120500000Y-93500000D03*
D21*
X254000000Y-150000000D03*
D20*
X213500000Y-138700000D03*
X213500000Y-143000000D03*
X73500000Y-40837500D03*
X73500000Y-36537500D03*
D18*
X100550000Y-115000000D03*
X100550000Y-119000000D03*
X100550000Y-127000000D03*
X100550000Y-85500000D03*
X100550000Y-81500000D03*
X100550000Y-56000000D03*
X100550000Y-68000000D03*
X100550000Y-64000000D03*
X100550000Y-93500000D03*
X100550000Y-97500000D03*
X100550000Y-52000000D03*
X100550000Y-89500000D03*
X100550000Y-60000000D03*
X100550000Y-111000000D03*
X100550000Y-123000000D03*
D19*
X91500000Y-63500000D03*
D18*
X96450000Y-68000000D03*
X96450000Y-56000000D03*
X96450000Y-52000000D03*
D19*
X91500000Y-70000000D03*
D18*
X96450000Y-64000000D03*
X96450000Y-60000000D03*
X96450000Y-123000000D03*
D19*
X85000000Y-109000000D03*
D18*
X96450000Y-127000000D03*
X96450000Y-115000000D03*
X96450000Y-119000000D03*
X96450000Y-111000000D03*
D19*
X85000000Y-115500000D03*
X91500000Y-99500000D03*
D18*
X96450000Y-89500000D03*
X96450000Y-81500000D03*
X96450000Y-93500000D03*
X96450000Y-97500000D03*
X96450000Y-85500000D03*
D19*
X85000000Y-79500000D03*
D20*
X108500000Y-41000000D03*
X108500000Y-36700000D03*
X213500000Y-41000000D03*
X213500000Y-36700000D03*
X143500000Y-40837500D03*
X143500000Y-36537500D03*
X108500000Y-138700000D03*
X108500000Y-143000000D03*
D18*
X158550000Y-68000000D03*
X158550000Y-85500000D03*
X158550000Y-89500000D03*
X158550000Y-97500000D03*
X158550000Y-93500000D03*
X158550000Y-81500000D03*
X158550000Y-119000000D03*
X158550000Y-60000000D03*
X158550000Y-123000000D03*
X158550000Y-127000000D03*
X158550000Y-56000000D03*
X158550000Y-111000000D03*
X158550000Y-52000000D03*
X158550000Y-64000000D03*
X158550000Y-115000000D03*
D19*
X149500000Y-50500000D03*
D18*
X154450000Y-64000000D03*
X154450000Y-52000000D03*
X154450000Y-56000000D03*
X154450000Y-60000000D03*
D19*
X149500000Y-57000000D03*
D18*
X154450000Y-68000000D03*
X154450000Y-127000000D03*
D19*
X143000000Y-122000000D03*
D18*
X154450000Y-111000000D03*
X154450000Y-123000000D03*
D19*
X143000000Y-128500000D03*
D18*
X154450000Y-119000000D03*
X154450000Y-115000000D03*
X154450000Y-97500000D03*
X154450000Y-85500000D03*
X154450000Y-81500000D03*
X154450000Y-93500000D03*
D19*
X149500000Y-93500000D03*
D18*
X154450000Y-89500000D03*
D19*
X143000000Y-85500000D03*
D21*
X46000000Y-30000000D03*
D20*
X248500000Y-41000000D03*
X248500000Y-36700000D03*
X143500000Y-138700000D03*
X143500000Y-143000000D03*
X73500000Y-138700000D03*
X73500000Y-143000000D03*
D18*
X71550000Y-111000000D03*
X71550000Y-97500000D03*
X71550000Y-123000000D03*
X71550000Y-81500000D03*
X71550000Y-89500000D03*
X71550000Y-119000000D03*
X71550000Y-127000000D03*
X71550000Y-85500000D03*
X71550000Y-52000000D03*
X71550000Y-64000000D03*
X71550000Y-68000000D03*
X71550000Y-93500000D03*
X71550000Y-60000000D03*
X71550000Y-56000000D03*
X71550000Y-115000000D03*
X67450000Y-68000000D03*
D19*
X62500000Y-70000000D03*
D18*
X67450000Y-52000000D03*
X67450000Y-56000000D03*
X67450000Y-60000000D03*
D19*
X62500000Y-63500000D03*
D18*
X67450000Y-64000000D03*
D19*
X56000000Y-109000000D03*
D18*
X67450000Y-127000000D03*
X67450000Y-123000000D03*
X67450000Y-111000000D03*
D19*
X56000000Y-115500000D03*
D18*
X67450000Y-115000000D03*
X67450000Y-119000000D03*
D19*
X62500000Y-99500000D03*
D18*
X67450000Y-89500000D03*
D19*
X56000000Y-79500000D03*
D18*
X67450000Y-93500000D03*
X67450000Y-85500000D03*
X67450000Y-81500000D03*
X67450000Y-97500000D03*
%LPD*%
M02*
