G04 #@! TF.GenerationSoftware,KiCad,Pcbnew,7.0.9-7.0.9~ubuntu20.04.1*
G04 #@! TF.CreationDate,2023-12-17T16:45:51+01:00*
G04 #@! TF.ProjectId,low_pass,6c6f775f-7061-4737-932e-6b696361645f,1.0*
G04 #@! TF.SameCoordinates,Original*
G04 #@! TF.FileFunction,Soldermask,Top*
G04 #@! TF.FilePolarity,Negative*
%FSLAX46Y46*%
G04 Gerber Fmt 4.6, Leading zero omitted, Abs format (unit mm)*
G04 Created by KiCad (PCBNEW 7.0.9-7.0.9~ubuntu20.04.1) date 2023-12-17 16:45:51*
%MOMM*%
%LPD*%
G01*
G04 APERTURE LIST*
G04 Aperture macros list*
%AMRoundRect*
0 Rectangle with rounded corners*
0 $1 Rounding radius*
0 $2 $3 $4 $5 $6 $7 $8 $9 X,Y pos of 4 corners*
0 Add a 4 corners polygon primitive as box body*
4,1,4,$2,$3,$4,$5,$6,$7,$8,$9,$2,$3,0*
0 Add four circle primitives for the rounded corners*
1,1,$1+$1,$2,$3*
1,1,$1+$1,$4,$5*
1,1,$1+$1,$6,$7*
1,1,$1+$1,$8,$9*
0 Add four rect primitives between the rounded corners*
20,1,$1+$1,$2,$3,$4,$5,0*
20,1,$1+$1,$4,$5,$6,$7,0*
20,1,$1+$1,$6,$7,$8,$9,0*
20,1,$1+$1,$8,$9,$2,$3,0*%
G04 Aperture macros list end*
%ADD10C,2.000000*%
%ADD11C,5.600000*%
%ADD12R,2.500000X2.500000*%
%ADD13O,2.500000X2.500000*%
%ADD14RoundRect,1.500000X-3.500000X3.500000X-3.500000X-3.500000X3.500000X-3.500000X3.500000X3.500000X0*%
%ADD15RoundRect,0.500000X-4.500000X7.500000X-4.500000X-7.500000X4.500000X-7.500000X4.500000X7.500000X0*%
%ADD16RoundRect,1.500000X3.500000X-3.500000X3.500000X3.500000X-3.500000X3.500000X-3.500000X-3.500000X0*%
%ADD17RoundRect,0.500000X4.500000X-7.500000X4.500000X7.500000X-4.500000X7.500000X-4.500000X-7.500000X0*%
%ADD18R,1.700000X1.700000*%
%ADD19O,1.700000X1.700000*%
%ADD20C,5.000000*%
G04 APERTURE END LIST*
D10*
X254000000Y-150000000D03*
D11*
X40000000Y-150000000D03*
X40000000Y-30000000D03*
D12*
X148000000Y-35000000D03*
D13*
X133000000Y-35000000D03*
X128000000Y-35000000D03*
X123000000Y-35000000D03*
X123000000Y-42500000D03*
X128000000Y-42500000D03*
X133000000Y-42500000D03*
X148000000Y-42500000D03*
D14*
X41000000Y-132000000D03*
D15*
X41000000Y-113000000D03*
D12*
X253000000Y-35000000D03*
D13*
X238000000Y-35000000D03*
X233000000Y-35000000D03*
X228000000Y-35000000D03*
X228000000Y-42500000D03*
X233000000Y-42500000D03*
X238000000Y-42500000D03*
X253000000Y-42500000D03*
D12*
X183000000Y-137000000D03*
D13*
X168000000Y-137000000D03*
X163000000Y-137000000D03*
X158000000Y-137000000D03*
X158000000Y-144500000D03*
X163000000Y-144500000D03*
X168000000Y-144500000D03*
X183000000Y-144500000D03*
D11*
X260000000Y-150000000D03*
D12*
X113000000Y-137000000D03*
D13*
X98000000Y-137000000D03*
X93000000Y-137000000D03*
X88000000Y-137000000D03*
X88000000Y-144500000D03*
X93000000Y-144500000D03*
X98000000Y-144500000D03*
X113000000Y-144500000D03*
D12*
X218000000Y-35000000D03*
D13*
X203000000Y-35000000D03*
X198000000Y-35000000D03*
X193000000Y-35000000D03*
X193000000Y-42500000D03*
X198000000Y-42500000D03*
X203000000Y-42500000D03*
X218000000Y-42500000D03*
D12*
X113000000Y-35000000D03*
D13*
X98000000Y-35000000D03*
X93000000Y-35000000D03*
X88000000Y-35000000D03*
X88000000Y-42500000D03*
X93000000Y-42500000D03*
X98000000Y-42500000D03*
X113000000Y-42500000D03*
D12*
X218000000Y-137000000D03*
D13*
X203000000Y-137000000D03*
X198000000Y-137000000D03*
X193000000Y-137000000D03*
X193000000Y-144500000D03*
X198000000Y-144500000D03*
X203000000Y-144500000D03*
X218000000Y-144500000D03*
D12*
X183000000Y-35000000D03*
D13*
X168000000Y-35000000D03*
X163000000Y-35000000D03*
X158000000Y-35000000D03*
X158000000Y-42500000D03*
X163000000Y-42500000D03*
X168000000Y-42500000D03*
X183000000Y-42500000D03*
D11*
X260000000Y-30000000D03*
D12*
X148000000Y-137000000D03*
D13*
X133000000Y-137000000D03*
X128000000Y-137000000D03*
X123000000Y-137000000D03*
X123000000Y-144500000D03*
X128000000Y-144500000D03*
X133000000Y-144500000D03*
X148000000Y-144500000D03*
D12*
X253000000Y-137000000D03*
D13*
X238000000Y-137000000D03*
X233000000Y-137000000D03*
X228000000Y-137000000D03*
X228000000Y-144500000D03*
X233000000Y-144500000D03*
X238000000Y-144500000D03*
X253000000Y-144500000D03*
D12*
X78000000Y-137000000D03*
D13*
X63000000Y-137000000D03*
X58000000Y-137000000D03*
X53000000Y-137000000D03*
X53000000Y-144500000D03*
X58000000Y-144500000D03*
X63000000Y-144500000D03*
X78000000Y-144500000D03*
D10*
X46000000Y-30000000D03*
D12*
X78000000Y-35000000D03*
D13*
X63000000Y-35000000D03*
X58000000Y-35000000D03*
X53000000Y-35000000D03*
X53000000Y-42500000D03*
X58000000Y-42500000D03*
X63000000Y-42500000D03*
X78000000Y-42500000D03*
D16*
X41000000Y-48000000D03*
D17*
X41000000Y-67000000D03*
D18*
X258275000Y-93300000D03*
D19*
X255735000Y-93300000D03*
X258275000Y-90760000D03*
X255735000Y-90760000D03*
X258275000Y-88220000D03*
X255735000Y-88220000D03*
X258275000Y-85680000D03*
X255735000Y-85680000D03*
D20*
X236500000Y-50500000D03*
X236500000Y-57000000D03*
X230000000Y-122000000D03*
X230000000Y-128500000D03*
X230000000Y-85500000D03*
X236500000Y-93500000D03*
X178500000Y-50500000D03*
X178500000Y-57000000D03*
X172000000Y-128500000D03*
X172000000Y-122000000D03*
X178500000Y-93500000D03*
X172000000Y-85500000D03*
X207500000Y-57000000D03*
X207500000Y-50500000D03*
X201000000Y-128500000D03*
X201000000Y-122000000D03*
X201000000Y-85500000D03*
X207500000Y-93500000D03*
X120500000Y-50500000D03*
X120500000Y-57000000D03*
X114000000Y-122000000D03*
X114000000Y-128500000D03*
X114000000Y-85500000D03*
X120500000Y-93500000D03*
X91500000Y-63500000D03*
X91500000Y-70000000D03*
X85000000Y-109000000D03*
X85000000Y-115500000D03*
X91500000Y-99500000D03*
X85000000Y-79500000D03*
X149500000Y-50500000D03*
X149500000Y-57000000D03*
X143000000Y-122000000D03*
X143000000Y-128500000D03*
X149500000Y-93500000D03*
X143000000Y-85500000D03*
X62500000Y-70000000D03*
X62500000Y-63500000D03*
X56000000Y-109000000D03*
X56000000Y-115500000D03*
X62500000Y-99500000D03*
X56000000Y-79500000D03*
M02*
