%TF.GenerationSoftware,KiCad,Pcbnew,7.0.9-7.0.9~ubuntu20.04.1*%
%TF.CreationDate,2023-12-17T16:46:09+01:00*%
%TF.ProjectId,low_pass,6c6f775f-7061-4737-932e-6b696361645f,1.0*%
%TF.SameCoordinates,Original*%
%TF.FileFunction,Drillmap*%
%TF.FilePolarity,Positive*%
%FSLAX45Y45*%
G04 Gerber Fmt 4.5, Leading zero omitted, Abs format (unit mm)*
G04 Created by KiCad (PCBNEW 7.0.9-7.0.9~ubuntu20.04.1) date 2023-12-17 16:46:09*
%MOMM*%
%LPD*%
G01*
G04 APERTURE LIST*
%ADD10C,0.100000*%
%ADD11C,0.200000*%
G04 APERTURE END LIST*
D10*
X3500000Y-2500000D02*
X26500000Y-2500000D01*
X26500000Y-15500000D01*
X3500000Y-15500000D01*
X3500000Y-2500000D01*
D11*
X3755777Y-15816484D02*
X3755777Y-15616484D01*
X3755777Y-15616484D02*
X3803396Y-15616484D01*
X3803396Y-15616484D02*
X3831967Y-15626008D01*
X3831967Y-15626008D02*
X3851015Y-15645055D01*
X3851015Y-15645055D02*
X3860539Y-15664103D01*
X3860539Y-15664103D02*
X3870062Y-15702198D01*
X3870062Y-15702198D02*
X3870062Y-15730769D01*
X3870062Y-15730769D02*
X3860539Y-15768865D01*
X3860539Y-15768865D02*
X3851015Y-15787912D01*
X3851015Y-15787912D02*
X3831967Y-15806960D01*
X3831967Y-15806960D02*
X3803396Y-15816484D01*
X3803396Y-15816484D02*
X3755777Y-15816484D01*
X3955777Y-15816484D02*
X3955777Y-15683150D01*
X3955777Y-15721246D02*
X3965301Y-15702198D01*
X3965301Y-15702198D02*
X3974824Y-15692674D01*
X3974824Y-15692674D02*
X3993872Y-15683150D01*
X3993872Y-15683150D02*
X4012920Y-15683150D01*
X4079586Y-15816484D02*
X4079586Y-15683150D01*
X4079586Y-15616484D02*
X4070062Y-15626008D01*
X4070062Y-15626008D02*
X4079586Y-15635531D01*
X4079586Y-15635531D02*
X4089110Y-15626008D01*
X4089110Y-15626008D02*
X4079586Y-15616484D01*
X4079586Y-15616484D02*
X4079586Y-15635531D01*
X4203396Y-15816484D02*
X4184348Y-15806960D01*
X4184348Y-15806960D02*
X4174824Y-15787912D01*
X4174824Y-15787912D02*
X4174824Y-15616484D01*
X4308158Y-15816484D02*
X4289110Y-15806960D01*
X4289110Y-15806960D02*
X4279586Y-15787912D01*
X4279586Y-15787912D02*
X4279586Y-15616484D01*
X4536729Y-15816484D02*
X4536729Y-15616484D01*
X4536729Y-15616484D02*
X4603396Y-15759341D01*
X4603396Y-15759341D02*
X4670063Y-15616484D01*
X4670063Y-15616484D02*
X4670063Y-15816484D01*
X4851015Y-15816484D02*
X4851015Y-15711722D01*
X4851015Y-15711722D02*
X4841491Y-15692674D01*
X4841491Y-15692674D02*
X4822444Y-15683150D01*
X4822444Y-15683150D02*
X4784348Y-15683150D01*
X4784348Y-15683150D02*
X4765301Y-15692674D01*
X4851015Y-15806960D02*
X4831967Y-15816484D01*
X4831967Y-15816484D02*
X4784348Y-15816484D01*
X4784348Y-15816484D02*
X4765301Y-15806960D01*
X4765301Y-15806960D02*
X4755777Y-15787912D01*
X4755777Y-15787912D02*
X4755777Y-15768865D01*
X4755777Y-15768865D02*
X4765301Y-15749817D01*
X4765301Y-15749817D02*
X4784348Y-15740293D01*
X4784348Y-15740293D02*
X4831967Y-15740293D01*
X4831967Y-15740293D02*
X4851015Y-15730769D01*
X4946253Y-15683150D02*
X4946253Y-15883150D01*
X4946253Y-15692674D02*
X4965301Y-15683150D01*
X4965301Y-15683150D02*
X5003396Y-15683150D01*
X5003396Y-15683150D02*
X5022444Y-15692674D01*
X5022444Y-15692674D02*
X5031967Y-15702198D01*
X5031967Y-15702198D02*
X5041491Y-15721246D01*
X5041491Y-15721246D02*
X5041491Y-15778388D01*
X5041491Y-15778388D02*
X5031967Y-15797436D01*
X5031967Y-15797436D02*
X5022444Y-15806960D01*
X5022444Y-15806960D02*
X5003396Y-15816484D01*
X5003396Y-15816484D02*
X4965301Y-15816484D01*
X4965301Y-15816484D02*
X4946253Y-15806960D01*
X5127205Y-15797436D02*
X5136729Y-15806960D01*
X5136729Y-15806960D02*
X5127205Y-15816484D01*
X5127205Y-15816484D02*
X5117682Y-15806960D01*
X5117682Y-15806960D02*
X5127205Y-15797436D01*
X5127205Y-15797436D02*
X5127205Y-15816484D01*
X5127205Y-15692674D02*
X5136729Y-15702198D01*
X5136729Y-15702198D02*
X5127205Y-15711722D01*
X5127205Y-15711722D02*
X5117682Y-15702198D01*
X5117682Y-15702198D02*
X5127205Y-15692674D01*
X5127205Y-15692674D02*
X5127205Y-15711722D01*
M02*
